<svg width="70" height="182" viewBox="0 0 70 182" fill="none" xmlns="http://www.w3.org/2000/svg">
<mask id="path-1-outside-1_144_645" maskUnits="userSpaceOnUse" x="0" y="0" width="70" height="182" fill="black">
<rect fill="white" width="70" height="182"/>
<path d="M67.56 179.64H34.34C35.66 171.06 36.1 162.48 36.1 151.04V29.82H25.54C17.4 29.82 11.02 30.26 2.88 31.14V3.2C9.7 4.29999 14.54 4.51999 24.88 4.51999H45.12C56.34 4.51999 59.64 4.29999 67.56 3.41999C66.24 16.4 65.8 26.52 65.8 39.72V151.04C65.8 162.7 66.24 170.62 67.56 179.64Z"/>
</mask>
<path d="M67.56 179.64H34.34C35.66 171.06 36.1 162.48 36.1 151.04V29.82H25.54C17.4 29.82 11.02 30.26 2.88 31.14V3.2C9.7 4.29999 14.54 4.51999 24.88 4.51999H45.12C56.34 4.51999 59.64 4.29999 67.56 3.41999C66.24 16.4 65.8 26.52 65.8 39.72V151.04C65.8 162.7 66.24 170.62 67.56 179.64Z" fill="white"/>
<path d="M67.56 179.64V181.64H69.874L69.5389 179.35L67.56 179.64ZM34.34 179.64L32.3633 179.336L32.0088 181.64H34.34V179.64ZM36.1 29.82H38.1V27.82H36.1V29.82ZM2.88 31.14H0.880003V33.3679L3.09497 33.1284L2.88 31.14ZM2.88 3.2L3.19847 1.22551L0.880003 0.851567V3.2H2.88ZM67.56 3.41999L69.5497 3.62234L69.8003 1.15877L67.3391 1.43223L67.56 3.41999ZM67.56 177.64H34.34V181.64H67.56V177.64ZM36.3167 179.944C37.6584 171.223 38.1 162.531 38.1 151.04H34.1C34.1 162.429 33.6616 170.897 32.3633 179.336L36.3167 179.944ZM38.1 151.04V29.82H34.1V151.04H38.1ZM36.1 27.82H25.54V31.82H36.1V27.82ZM25.54 27.82C17.3114 27.82 10.8576 28.2659 2.66504 29.1516L3.09497 33.1284C11.1824 32.2541 17.4886 31.82 25.54 31.82V27.82ZM4.88 31.14V3.2H0.880003V31.14H4.88ZM2.56154 5.17448C9.53819 6.29974 14.5025 6.51999 24.88 6.51999V2.51999C14.5775 2.51999 9.86181 2.30025 3.19847 1.22551L2.56154 5.17448ZM24.88 6.51999H45.12V2.51999H24.88V6.51999ZM45.12 6.51999C56.4025 6.51999 59.7771 6.29707 67.7809 5.40776L67.3391 1.43223C59.5029 2.30292 56.2775 2.51999 45.12 2.51999V6.51999ZM65.5703 3.21765C64.2426 16.2734 63.8 26.4616 63.8 39.72H67.8C67.8 26.5784 68.2374 16.5266 69.5497 3.62234L65.5703 3.21765ZM63.8 39.72V151.04H67.8V39.72H63.8ZM63.8 151.04C63.8 162.761 64.2426 170.784 65.5811 179.93L69.5389 179.35C68.2374 170.456 67.8 162.639 67.8 151.04H63.8Z" fill="black" mask="url(#path-1-outside-1_144_645)"/>
</svg>
