<svg width="138" height="185" viewBox="0 0 138 185" fill="none" xmlns="http://www.w3.org/2000/svg">
<mask id="path-1-outside-1_144_646" maskUnits="userSpaceOnUse" x="0" y="0" width="138" height="185" fill="black">
<rect fill="white" width="138" height="185"/>
<path d="M101.88 180.64H31.26C14.1 180.64 10.58 180.86 2.88 181.74C4.2 169.2 5.74 161.5 8.6 153.58C14.54 137.52 24.44 123.44 38.74 110.46C46.44 103.64 53.04 98.58 75.04 83.84C95.28 69.98 101.44 62.72 101.44 51.5C101.44 36.54 89.78 27.3 71.08 27.3C58.32 27.3 48.64 31.7 43.14 40.28C39.4 45.56 37.86 50.4 36.32 60.52L4.86 56.78C7.94 40.06 11.9 31.04 20.04 21.58C31.04 8.81999 48.42 2 70.42 2C108.92 2 132.68 20.48 132.68 50.62C132.68 65.14 127.84 75.7 117.06 85.82C110.9 91.54 108.7 93.3 80.1 112.88C70.42 119.7 59.42 128.94 53.92 134.88C47.32 141.92 44.68 146.32 41.38 154.68H102.98C116.84 154.68 127.84 154.02 135.1 152.92V181.96C124.76 181.08 115.96 180.64 101.88 180.64Z"/>
</mask>
<path d="M101.88 180.64H31.26C14.1 180.64 10.58 180.86 2.88 181.74C4.2 169.2 5.74 161.5 8.6 153.58C14.54 137.52 24.44 123.44 38.74 110.46C46.44 103.64 53.04 98.58 75.04 83.84C95.28 69.98 101.44 62.72 101.44 51.5C101.44 36.54 89.78 27.3 71.08 27.3C58.32 27.3 48.64 31.7 43.14 40.28C39.4 45.56 37.86 50.4 36.32 60.52L4.86 56.78C7.94 40.06 11.9 31.04 20.04 21.58C31.04 8.81999 48.42 2 70.42 2C108.92 2 132.68 20.48 132.68 50.62C132.68 65.14 127.84 75.7 117.06 85.82C110.9 91.54 108.7 93.3 80.1 112.88C70.42 119.7 59.42 128.94 53.92 134.88C47.32 141.92 44.68 146.32 41.38 154.68H102.98C116.84 154.68 127.84 154.02 135.1 152.92V181.96C124.76 181.08 115.96 180.64 101.88 180.64Z" fill="white"/>
<path d="M2.88 181.74L0.890989 181.531L0.629986 184.01L3.10709 183.727L2.88 181.74ZM8.6 153.58L6.72419 152.886L6.72152 152.893L6.71889 152.901L8.6 153.58ZM38.74 110.46L37.4139 108.963L37.4048 108.971L37.3958 108.979L38.74 110.46ZM75.04 83.84L76.1532 85.5015L76.1617 85.4959L76.17 85.4902L75.04 83.84ZM43.14 40.28L44.7721 41.436L44.7988 41.3983L44.8238 41.3593L43.14 40.28ZM36.32 60.52L36.0839 62.506L38.006 62.7345L38.2972 60.8209L36.32 60.52ZM4.86 56.78L2.89309 56.4177L2.50687 58.5143L4.6239 58.766L4.86 56.78ZM20.04 21.58L18.5252 20.2741L18.524 20.2755L20.04 21.58ZM117.06 85.82L118.421 87.2856L118.429 87.2781L117.06 85.82ZM80.1 112.88L78.9702 111.23L78.9591 111.237L78.9481 111.245L80.1 112.88ZM53.92 134.88L55.3791 136.248L55.3875 136.239L53.92 134.88ZM41.38 154.68L39.5197 153.946L38.4403 156.68H41.38V154.68ZM135.1 152.92H137.1V150.594L134.8 150.943L135.1 152.92ZM135.1 181.96L134.93 183.953L137.1 184.137V181.96H135.1ZM101.88 178.64H31.26V182.64H101.88V178.64ZM31.26 178.64C14.0713 178.64 10.4639 178.86 2.65291 179.753L3.10709 183.727C10.6961 182.86 14.1287 182.64 31.26 182.64V178.64ZM4.86901 181.949C6.1802 169.493 7.69704 161.969 10.4811 154.259L6.71889 152.901C3.78296 161.031 2.2198 168.907 0.890989 181.531L4.86901 181.949ZM10.4758 154.274C16.289 138.557 25.9869 124.737 40.0842 111.941L37.3958 108.979C22.8931 122.143 12.791 136.483 6.72419 152.886L10.4758 154.274ZM40.0661 111.957C47.6627 105.229 54.1724 100.229 76.1532 85.5015L73.9268 82.1785C51.9076 96.9313 45.2173 102.051 37.4139 108.963L40.0661 111.957ZM76.17 85.4902C86.2992 78.5539 93.1092 73.1382 97.3749 67.9502C101.735 62.6477 103.44 57.5803 103.44 51.5H99.44C99.44 56.6397 98.0653 60.8123 94.2852 65.4098C90.4108 70.1218 84.0208 75.2661 73.91 82.1898L76.17 85.4902ZM103.44 51.5C103.44 43.4492 100.277 36.8079 94.5179 32.2251C88.8111 27.6836 80.735 25.3 71.08 25.3V29.3C80.125 29.3 87.2289 31.5364 92.0271 35.3549C96.7734 39.1321 99.44 44.5907 99.44 51.5H103.44ZM71.08 25.3C57.8565 25.3 47.4279 29.8848 41.4562 39.2007L44.8238 41.3593C49.8521 33.5152 58.7835 29.3 71.08 29.3V25.3ZM41.508 39.124C37.5027 44.7785 35.9008 49.9806 34.3428 60.2191L38.2972 60.8209C39.8192 50.8194 41.2974 46.3415 44.7721 41.436L41.508 39.124ZM36.5561 58.534L5.0961 54.794L4.6239 58.766L36.0839 62.506L36.5561 58.534ZM6.82691 57.1423C9.86299 40.6607 13.7106 32.0022 21.556 22.8845L18.524 20.2755C10.0894 30.0778 6.01701 39.4593 2.89309 56.4177L6.82691 57.1423ZM21.5548 22.8859C32.0706 10.6875 48.8206 4 70.42 4V0C48.0194 0 30.0094 6.95247 18.5252 20.2741L21.5548 22.8859ZM70.42 4C89.3771 4 104.46 8.55222 114.757 16.5845C124.997 24.5719 130.68 36.1311 130.68 50.62H134.68C134.68 34.9689 128.483 22.2181 117.218 13.4305C106.01 4.68777 89.9629 0 70.42 0V4ZM130.68 50.62C130.68 64.5534 126.094 74.5958 115.691 84.3618L118.429 87.2781C129.586 76.8042 134.68 65.7266 134.68 50.62H130.68ZM115.699 84.3544C109.669 89.9542 107.6 91.629 78.9702 111.23L81.2298 114.53C109.8 94.971 112.131 93.1258 118.421 87.2856L115.699 84.3544ZM78.9481 111.245C69.2015 118.112 58.0807 127.443 52.4525 133.521L55.3875 136.239C60.7593 130.437 71.6385 121.288 81.2519 114.515L78.9481 111.245ZM52.4609 133.512C45.6805 140.745 42.9079 145.362 39.5197 153.946L43.2403 155.414C46.4521 147.278 48.9595 143.095 55.3791 136.248L52.4609 133.512ZM41.38 156.68H102.98V152.68H41.38V156.68ZM102.98 156.68C116.883 156.68 127.996 156.019 135.4 154.897L134.8 150.943C127.684 152.021 116.797 152.68 102.98 152.68V156.68ZM133.1 152.92V181.96H137.1V152.92H133.1ZM135.27 179.967C124.872 179.082 116.015 178.64 101.88 178.64V182.64C115.905 182.64 124.648 183.078 134.93 183.953L135.27 179.967Z" fill="black" mask="url(#path-1-outside-1_144_646)"/>
</svg>
