<svg width="141" height="188" viewBox="0 0 141 188" fill="none" xmlns="http://www.w3.org/2000/svg">
<mask id="path-1-outside-1_144_647" maskUnits="userSpaceOnUse" x="0" y="0" width="141" height="188" fill="black">
<rect fill="white" width="141" height="188"/>
<path d="M3.02 140.06L34.48 133.9C37.34 144.02 39.32 147.54 44.82 151.94C52.08 157.66 60.88 160.52 71.44 160.52C93.22 160.52 107.08 149.3 107.08 131.92C107.08 121.8 102.68 113.44 94.76 108.82C89.48 105.74 79.14 103.54 69.46 103.54C59.78 103.54 53.4 103.76 45.92 104.64V77.36C52.96 78.24 57.8 78.46 67.26 78.46C89.26 78.46 102.24 68.34 102.24 51.4C102.24 36.22 91.9 27.64 73.2 27.64C62.42 27.64 54.5 30.06 49.22 34.46C44.82 38.64 42.62 42.38 39.98 51.4L8.52 46.12C14.02 29.84 19.08 22.14 29.42 14.66C40.64 6.51999 54.94 2.55999 72.54 2.55999C109.28 2.55999 133.04 21.04 133.04 49.64C133.04 62.84 127.32 74.94 117.86 81.98C113.02 85.72 108.18 87.48 96.52 90.56C112.14 92.98 120.28 96.72 127.98 105.3C135.24 113.44 138.54 122.68 138.54 135.66C138.54 147.54 133.48 159.64 125.34 167.78C113.24 179.44 94.76 185.6 71.22 185.6C45.48 185.6 27.88 179 15.34 164.7C9.84 158.54 6.98 152.82 3.02 140.06Z"/>
</mask>
<path d="M3.02 140.06L34.48 133.9C37.34 144.02 39.32 147.54 44.82 151.94C52.08 157.66 60.88 160.52 71.44 160.52C93.22 160.52 107.08 149.3 107.08 131.92C107.08 121.8 102.68 113.44 94.76 108.82C89.48 105.74 79.14 103.54 69.46 103.54C59.78 103.54 53.4 103.76 45.92 104.64V77.36C52.96 78.24 57.8 78.46 67.26 78.46C89.26 78.46 102.24 68.34 102.24 51.4C102.24 36.22 91.9 27.64 73.2 27.64C62.42 27.64 54.5 30.06 49.22 34.46C44.82 38.64 42.62 42.38 39.98 51.4L8.52 46.12C14.02 29.84 19.08 22.14 29.42 14.66C40.64 6.51999 54.94 2.55999 72.54 2.55999C109.28 2.55999 133.04 21.04 133.04 49.64C133.04 62.84 127.32 74.94 117.86 81.98C113.02 85.72 108.18 87.48 96.52 90.56C112.14 92.98 120.28 96.72 127.98 105.3C135.24 113.44 138.54 122.68 138.54 135.66C138.54 147.54 133.48 159.64 125.34 167.78C113.24 179.44 94.76 185.6 71.22 185.6C45.48 185.6 27.88 179 15.34 164.7C9.84 158.54 6.98 152.82 3.02 140.06Z" fill="white"/>
<path d="M3.02 140.06L2.63569 138.097L0.449618 138.525L1.10987 140.653L3.02 140.06ZM34.48 133.9L36.4046 133.356L35.9036 131.583L34.0957 131.937L34.48 133.9ZM44.82 151.94L43.5706 153.502L43.5764 153.506L43.5823 153.511L44.82 151.94ZM94.76 108.82L95.7678 107.092H95.7677L94.76 108.82ZM45.92 104.64H43.92V106.889L46.1537 106.626L45.92 104.64ZM45.92 77.36L46.1681 75.3754L43.92 75.0944V77.36H45.92ZM49.22 34.46L47.9396 32.9236L47.8897 32.9652L47.8425 33.01L49.22 34.46ZM39.98 51.4L39.649 53.3724L41.4006 53.6664L41.8995 51.9618L39.98 51.4ZM8.52 46.12L6.62521 45.4799L5.87386 47.7039L8.18897 48.0924L8.52 46.12ZM29.42 14.66L30.5922 16.2804L30.5945 16.2788L29.42 14.66ZM117.86 81.98L116.666 80.3755L116.651 80.3864L116.637 80.3974L117.86 81.98ZM96.52 90.56L96.0092 88.6263L96.2138 92.5364L96.52 90.56ZM127.98 105.3L129.473 103.969L129.468 103.964L127.98 105.3ZM125.34 167.78L126.728 169.22L126.741 169.207L126.754 169.194L125.34 167.78ZM15.34 164.7L16.8437 163.381L16.8378 163.375L16.8319 163.368L15.34 164.7ZM3.40431 142.023L34.8643 135.863L34.0957 131.937L2.63569 138.097L3.40431 142.023ZM32.5554 134.444C33.9926 139.53 35.2555 143.138 36.9235 146.057C38.6246 149.034 40.6899 151.197 43.5706 153.502L46.0694 150.378C43.4501 148.283 41.7754 146.486 40.3965 144.073C38.9845 141.602 37.8274 138.39 36.4046 133.356L32.5554 134.444ZM43.5823 153.511C51.2406 159.545 60.4928 162.52 71.44 162.52V158.52C61.2672 158.52 52.9194 155.775 46.0577 150.369L43.5823 153.511ZM71.44 162.52C82.6534 162.52 92.0472 159.633 98.6811 154.296C105.359 148.924 109.08 141.191 109.08 131.92H105.08C105.08 140.029 101.871 146.596 96.1739 151.179C90.4329 155.798 82.0066 158.52 71.44 158.52V162.52ZM109.08 131.92C109.08 121.193 104.387 112.12 95.7678 107.092L93.7523 110.548C100.973 114.76 105.08 122.407 105.08 131.92H109.08ZM95.7677 107.092C90.06 103.763 79.3196 101.54 69.46 101.54V105.54C78.9604 105.54 88.9 107.717 93.7523 110.548L95.7677 107.092ZM69.46 101.54C59.7453 101.54 53.2775 101.761 45.6863 102.654L46.1537 106.626C53.5225 105.759 59.8147 105.54 69.46 105.54V101.54ZM47.92 104.64V77.36H43.92V104.64H47.92ZM45.6719 79.3446C52.8225 80.2384 57.7516 80.46 67.26 80.46V76.46C57.8484 76.46 53.0975 76.2416 46.1681 75.3754L45.6719 79.3446ZM67.26 80.46C78.5352 80.46 87.7665 77.8703 94.2254 72.8631C100.749 67.8055 104.24 60.4353 104.24 51.4H100.24C100.24 59.3047 97.2406 65.4645 91.7746 69.7018C86.2435 73.9897 77.9848 76.46 67.26 76.46V80.46ZM104.24 51.4C104.24 43.3221 101.466 36.7694 96.0018 32.2819C90.5975 27.8438 82.822 25.64 73.2 25.64V29.64C82.278 29.64 89.0225 31.7262 93.4632 35.3731C97.8438 38.9706 100.24 44.2978 100.24 51.4H104.24ZM73.2 25.64C62.1543 25.64 53.7086 28.116 47.9396 32.9236L50.5004 35.9964C55.2914 32.0039 62.6857 29.64 73.2 29.64V25.64ZM47.8425 33.01C45.532 35.205 43.7411 37.3429 42.1899 40.1469C40.6563 42.9192 39.3975 46.2703 38.0605 50.8382L41.8995 51.9618C43.2025 47.5097 44.3637 44.4808 45.6901 42.0831C46.9989 39.7171 48.508 37.895 50.5975 35.91L47.8425 33.01ZM40.311 49.4276L8.85103 44.1476L8.18897 48.0924L39.649 53.3724L40.311 49.4276ZM10.4148 46.7601C13.1405 38.6919 15.7148 32.8822 18.822 28.1951C21.91 23.5368 25.5776 19.908 30.5922 16.2804L28.2478 13.0395C22.9224 16.8919 18.89 20.8532 15.488 25.9849C12.1052 31.0878 9.39945 37.2681 6.62521 45.4799L10.4148 46.7601ZM30.5945 16.2788C41.3857 8.44993 55.2394 4.55999 72.54 4.55999V0.55999C54.6406 0.55999 39.8943 4.59006 28.2455 13.0411L30.5945 16.2788ZM72.54 4.55999C90.597 4.55999 105.25 9.10291 115.339 16.9535C125.381 24.7664 131.04 35.952 131.04 49.64H135.04C135.04 34.728 128.819 22.3735 117.796 13.7965C106.82 5.25707 91.223 0.55999 72.54 0.55999V4.55999ZM131.04 49.64C131.04 62.2872 125.558 73.7579 116.666 80.3755L119.054 83.5845C129.082 76.1221 135.04 63.3928 135.04 49.64H131.04ZM116.637 80.3974C112.149 83.8654 107.67 85.5462 96.0092 88.6263L97.0308 92.4937C108.69 89.4138 113.891 87.5746 119.083 83.5626L116.637 80.3974ZM96.2138 92.5364C103.937 93.7329 109.667 95.2359 114.374 97.4324C119.047 99.613 122.795 102.517 126.492 106.636L129.468 103.964C125.465 99.5027 121.293 96.247 116.066 93.8076C110.873 91.3841 104.723 89.8071 96.8262 88.5836L96.2138 92.5364ZM126.487 106.631C133.37 114.348 136.54 123.09 136.54 135.66H140.54C140.54 122.27 137.11 112.532 129.473 103.969L126.487 106.631ZM136.54 135.66C136.54 147.013 131.688 158.603 123.926 166.366L126.754 169.194C135.272 160.677 140.54 148.067 140.54 135.66H136.54ZM123.952 166.34C112.348 177.522 94.4423 183.6 71.22 183.6V187.6C95.0777 187.6 114.132 181.358 126.728 169.22L123.952 166.34ZM71.22 183.6C45.8444 183.6 28.8838 177.111 16.8437 163.381L13.8363 166.019C26.8762 180.889 45.1156 187.6 71.22 187.6V183.6ZM16.8319 163.368C11.6047 157.514 8.85156 152.103 4.93013 139.467L1.10987 140.653C5.10844 153.537 8.07528 159.566 13.8481 166.032L16.8319 163.368Z" fill="black" mask="url(#path-1-outside-1_144_647)"/>
</svg>
