<svg width="151" height="180" viewBox="0 0 151 180" fill="none" xmlns="http://www.w3.org/2000/svg">
<mask id="path-1-outside-1_144_648" maskUnits="userSpaceOnUse" x="0" y="0" width="151" height="180" fill="black">
<rect fill="white" width="151" height="180"/>
<path d="M148.36 110.32V138.48C140.22 137.38 135.6 137.16 126.36 136.94H118.44V152.56C118.44 163.78 118.88 169.5 120.2 177.64H88.96C90.28 169.94 90.72 163.12 90.72 152.12V136.94H29.78C16.8 136.94 9.76 137.16 2.28 137.82V110.76C9.76 102.62 12.18 99.76 19.88 90.52L72.02 26.72C81.7 15.06 85.22 10.44 90.28 2.51999H119.98C118.66 15.28 118.44 22.98 118.44 39.7V111.86H126.14C134.94 111.86 140.22 111.42 148.36 110.32ZM90.94 112.08V66.54C90.94 56.2 91.16 49.16 92.04 40.14C87.64 46.52 85 50.04 77.08 59.72L34.84 112.08H90.94Z"/>
</mask>
<path d="M148.36 110.32V138.48C140.22 137.38 135.6 137.16 126.36 136.94H118.44V152.56C118.44 163.78 118.88 169.5 120.2 177.64H88.96C90.28 169.94 90.72 163.12 90.72 152.12V136.94H29.78C16.8 136.94 9.76 137.16 2.28 137.82V110.76C9.76 102.62 12.18 99.76 19.88 90.52L72.02 26.72C81.7 15.06 85.22 10.44 90.28 2.51999H119.98C118.66 15.28 118.44 22.98 118.44 39.7V111.86H126.14C134.94 111.86 140.22 111.42 148.36 110.32ZM90.94 112.08V66.54C90.94 56.2 91.16 49.16 92.04 40.14C87.64 46.52 85 50.04 77.08 59.72L34.84 112.08H90.94Z" fill="white"/>
<path d="M148.36 110.32H150.36V108.032L148.092 108.338L148.36 110.32ZM148.36 138.48L148.092 140.462L150.36 140.768V138.48H148.36ZM126.36 136.94L126.408 134.941L126.384 134.94H126.36V136.94ZM118.44 136.94V134.94H116.44V136.94H118.44ZM120.2 177.64V179.64H122.55L122.174 177.32L120.2 177.64ZM88.96 177.64L86.9888 177.302L86.588 179.64H88.96V177.64ZM90.72 136.94H92.72V134.94H90.72V136.94ZM2.28 137.82H0.28V140.004L2.45579 139.812L2.28 137.82ZM2.28 110.76L0.807345 109.407L0.28 109.981V110.76H2.28ZM19.88 90.52L21.4164 91.8004L21.4226 91.793L21.4286 91.7856L19.88 90.52ZM72.02 26.72L70.4812 25.4425L70.4763 25.4484L70.4714 25.4544L72.02 26.72ZM90.28 2.51999V0.519989H89.1844L88.5946 1.44321L90.28 2.51999ZM119.98 2.51999L121.969 2.72579L122.198 0.519989H119.98V2.51999ZM118.44 111.86H116.44V113.86H118.44V111.86ZM90.94 112.08V114.08H92.94V112.08H90.94ZM92.04 40.14L94.0305 40.3342L94.7809 32.6429L90.3936 39.0045L92.04 40.14ZM77.08 59.72L75.5321 58.4535L75.5234 58.4642L77.08 59.72ZM34.84 112.08L33.2834 110.824L30.6569 114.08H34.84V112.08ZM146.36 110.32V138.48H150.36V110.32H146.36ZM148.628 136.498C140.384 135.384 135.682 135.161 126.408 134.941L126.312 138.939C135.518 139.159 140.056 139.376 148.092 140.462L148.628 136.498ZM126.36 134.94H118.44V138.94H126.36V134.94ZM116.44 136.94V152.56H120.44V136.94H116.44ZM116.44 152.56C116.44 163.862 116.885 169.692 118.226 177.96L122.174 177.32C120.875 169.308 120.44 163.698 120.44 152.56H116.44ZM120.2 175.64H88.96V179.64H120.2V175.64ZM90.9312 177.978C92.2773 170.126 92.72 163.183 92.72 152.12H88.72C88.72 163.057 88.2827 169.754 86.9888 177.302L90.9312 177.978ZM92.72 152.12V136.94H88.72V152.12H92.72ZM90.72 134.94H29.78V138.94H90.72V134.94ZM29.78 134.94C16.7783 134.94 9.67055 135.16 2.10421 135.828L2.45579 139.812C9.84945 139.16 16.8217 138.94 29.78 138.94V134.94ZM4.28 137.82V110.76H0.28V137.82H4.28ZM3.75266 112.113C11.2624 103.941 13.7049 101.054 21.4164 91.8004L18.3436 89.2396C10.6551 98.4658 8.2576 101.299 0.807345 109.407L3.75266 112.113ZM21.4286 91.7856L73.5686 27.9856L70.4714 25.4544L18.3314 89.2544L21.4286 91.7856ZM73.5588 27.9975C83.26 16.312 86.8402 11.6188 91.9654 3.59677L88.5946 1.44321C83.5998 9.26118 80.14 13.808 70.4812 25.4425L73.5588 27.9975ZM90.28 4.51999H119.98V0.519989H90.28V4.51999ZM117.991 2.31419C116.661 15.1714 116.44 22.9482 116.44 39.7H120.44C120.44 23.0118 120.659 15.3886 121.969 2.72579L117.991 2.31419ZM116.44 39.7V111.86H120.44V39.7H116.44ZM118.44 113.86H126.14V109.86H118.44V113.86ZM126.14 113.86C135.042 113.86 140.412 113.412 148.628 112.302L148.092 108.338C140.028 109.428 134.838 109.86 126.14 109.86V113.86ZM92.94 112.08V66.54H88.94V112.08H92.94ZM92.94 66.54C92.94 56.2381 93.159 49.2676 94.0305 40.3342L90.0495 39.9458C89.161 49.0524 88.94 56.1619 88.94 66.54H92.94ZM90.3936 39.0045C86.0335 45.3267 83.429 48.8017 75.5321 58.4535L78.6279 60.9865C86.571 51.2783 89.2465 47.7133 93.6864 41.2755L90.3936 39.0045ZM75.5234 58.4642L33.2834 110.824L36.3966 113.336L78.6366 60.9758L75.5234 58.4642ZM34.84 114.08H90.94V110.08H34.84V114.08Z" fill="black" mask="url(#path-1-outside-1_144_648)"/>
</svg>
