<svg width="901" height="37" viewBox="0 0 901 37" fill="none" xmlns="http://www.w3.org/2000/svg">
<circle cx="18.2138" cy="18.2138" r="12.5" transform="rotate(37.1801 18.2138 18.2138)" fill="#FCFCFC" stroke="black"/>
<circle cx="54.2138" cy="18.2138" r="12" transform="rotate(37.1801 54.2138 18.2138)" fill="#FCFCFC" stroke="black" stroke-width="2"/>
<circle cx="90.2138" cy="18.2138" r="11.5" transform="rotate(37.1801 90.2138 18.2138)" fill="#FCFCFC" stroke="black" stroke-width="3"/>
<circle cx="126.214" cy="18.2138" r="11" transform="rotate(37.1801 126.214 18.2138)" fill="#FCFCFC" stroke="black" stroke-width="4"/>
<circle cx="162.214" cy="18.2138" r="10.5" transform="rotate(37.1801 162.214 18.2138)" fill="#FCFCFC" stroke="black" stroke-width="5"/>
<circle cx="198.214" cy="18.2138" r="10" transform="rotate(37.1801 198.214 18.2138)" fill="#FCFCFC" stroke="black" stroke-width="6"/>
<circle cx="234.214" cy="18.2138" r="9.5" transform="rotate(37.1801 234.214 18.2138)" fill="#FCFCFC" stroke="black" stroke-width="7"/>
<circle cx="270.214" cy="18.2138" r="9" transform="rotate(37.1801 270.214 18.2138)" fill="#FCFCFC" stroke="black" stroke-width="8"/>
<circle cx="306.214" cy="18.2138" r="8.5" transform="rotate(37.1801 306.214 18.2138)" fill="#FCFCFC" stroke="black" stroke-width="9"/>
<circle cx="342.214" cy="18.2138" r="8" transform="rotate(37.1801 342.214 18.2138)" fill="#FCFCFC" stroke="black" stroke-width="10"/>
<circle cx="378.214" cy="18.2138" r="7.5" transform="rotate(37.1801 378.214 18.2138)" fill="#FCFCFC" stroke="black" stroke-width="11"/>
<circle cx="414.214" cy="18.2138" r="7" transform="rotate(37.1801 414.214 18.2138)" fill="#FCFCFC" stroke="black" stroke-width="12"/>
<circle cx="882.214" cy="18.2138" r="12.5" transform="rotate(-142.82 882.214 18.2138)" fill="#FCFCFC" stroke="black"/>
<circle cx="846.214" cy="18.2138" r="12" transform="rotate(-142.82 846.214 18.2138)" fill="#FCFCFC" stroke="black" stroke-width="2"/>
<circle cx="810.214" cy="18.2139" r="11.5" transform="rotate(180 810.214 18.2139)" fill="#FCFCFC" stroke="black" stroke-width="3"/>
<circle cx="774.214" cy="18.2138" r="11" transform="rotate(-142.82 774.214 18.2138)" fill="#FCFCFC" stroke="black" stroke-width="4"/>
<circle cx="738.214" cy="18.2138" r="10.5" transform="rotate(-142.82 738.214 18.2138)" fill="#FCFCFC" stroke="black" stroke-width="5"/>
<circle cx="702.214" cy="18.2138" r="10" transform="rotate(-142.82 702.214 18.2138)" fill="#FCFCFC" stroke="black" stroke-width="6"/>
<circle cx="666.214" cy="18.2138" r="9.5" transform="rotate(-142.82 666.214 18.2138)" fill="#FCFCFC" stroke="black" stroke-width="7"/>
<circle cx="630.214" cy="18.2138" r="9" transform="rotate(-142.82 630.214 18.2138)" fill="#FCFCFC" stroke="black" stroke-width="8"/>
<circle cx="594.214" cy="18.2138" r="8.5" transform="rotate(-142.82 594.214 18.2138)" fill="#FCFCFC" stroke="black" stroke-width="9"/>
<circle cx="558.214" cy="18.2138" r="8" transform="rotate(-142.82 558.214 18.2138)" fill="#FCFCFC" stroke="black" stroke-width="10"/>
<circle cx="522.214" cy="18.2138" r="7.5" transform="rotate(-142.82 522.214 18.2138)" fill="#FCFCFC" stroke="black" stroke-width="11"/>
<circle cx="486.214" cy="18.2138" r="7" transform="rotate(-142.82 486.214 18.2138)" fill="#FCFCFC" stroke="black" stroke-width="12"/>
<circle cx="450.214" cy="18.2138" r="13" transform="rotate(-142.82 450.214 18.2138)" fill="black"/>
</svg>
