<svg width="342" height="67" viewBox="0 0 342 67" fill="none" xmlns="http://www.w3.org/2000/svg">
<rect x="1" y="1" width="340" height="65" fill="white" stroke="black" stroke-width="2"/>
<path d="M48.5078 19.5869H50.125V20.8789H50.1602C50.2656 20.6621 50.3975 20.457 50.5557 20.2637C50.7197 20.0703 50.9131 19.9033 51.1357 19.7627C51.3643 19.6162 51.625 19.502 51.918 19.4199C52.2168 19.3379 52.5566 19.2969 52.9375 19.2969C53.4414 19.2969 53.9248 19.3936 54.3877 19.5869C54.8506 19.7803 55.2607 20.0703 55.6182 20.457C55.9756 20.8438 56.2598 21.3301 56.4707 21.916C56.6816 22.4961 56.7871 23.1729 56.7871 23.9463C56.7871 24.9131 56.6875 25.7363 56.4883 26.416C56.2949 27.0898 56.0166 27.6406 55.6533 28.0684C55.2959 28.4961 54.8623 28.8066 54.3525 29C53.8428 29.1934 53.2744 29.29 52.6475 29.29C52.3369 29.29 52.0469 29.249 51.7773 29.167C51.5078 29.085 51.2646 28.9795 51.0479 28.8506C50.8369 28.7158 50.6553 28.5693 50.5029 28.4111C50.3506 28.2471 50.2363 28.0889 50.1602 27.9365H50.125V32.709H48.5078V19.5869ZM50.0898 24.3418C50.0898 24.8516 50.1396 25.3232 50.2393 25.7568C50.3389 26.1846 50.4912 26.5566 50.6963 26.873C50.9072 27.1895 51.168 27.4385 51.4785 27.6201C51.7949 27.7959 52.167 27.8838 52.5947 27.8838C53.04 27.8838 53.4238 27.7959 53.7461 27.6201C54.0742 27.4385 54.3438 27.1895 54.5547 26.873C54.7656 26.5566 54.9209 26.1846 55.0205 25.7568C55.1201 25.3232 55.1699 24.8516 55.1699 24.3418C55.1699 23.8086 55.1201 23.3193 55.0205 22.874C54.9209 22.4287 54.7656 22.0449 54.5547 21.7227C54.3438 21.4004 54.0742 21.1514 53.7461 20.9756C53.4238 20.7939 53.04 20.7031 52.5947 20.7031C52.167 20.7031 51.7949 20.7939 51.4785 20.9756C51.168 21.1514 50.9072 21.4004 50.6963 21.7227C50.4912 22.0449 50.3389 22.4287 50.2393 22.874C50.1396 23.3193 50.0898 23.8086 50.0898 24.3418ZM58.5977 22.4082C58.6152 21.834 58.7236 21.3506 58.9229 20.958C59.1221 20.5596 59.3916 20.2373 59.7314 19.9912C60.0713 19.7451 60.4727 19.5693 60.9355 19.4639C61.4043 19.3525 61.9141 19.2969 62.4648 19.2969C62.9219 19.2969 63.3643 19.3438 63.792 19.4375C64.2256 19.5313 64.6094 19.6836 64.9434 19.8945C65.2773 20.0996 65.5439 20.3691 65.7432 20.7031C65.9482 21.0313 66.0508 21.4326 66.0508 21.9072V27.3828C66.0508 27.5352 66.0918 27.667 66.1738 27.7783C66.2559 27.8838 66.3877 27.9365 66.5693 27.9365C66.6514 27.9365 66.7363 27.9307 66.8242 27.9189C66.9121 27.9014 67.0029 27.8838 67.0967 27.8662V28.9824C66.9619 29.0176 66.8271 29.0498 66.6924 29.0791C66.5635 29.1084 66.4082 29.123 66.2266 29.123C65.9453 29.123 65.7021 29.0996 65.4971 29.0527C65.2979 29.0059 65.1279 28.9297 64.9873 28.8242C64.8525 28.7129 64.7471 28.5723 64.6709 28.4023C64.5947 28.2266 64.5449 28.0127 64.5215 27.7607C64.3223 27.9775 64.1113 28.1797 63.8887 28.3672C63.666 28.5488 63.417 28.71 63.1416 28.8506C62.8662 28.9854 62.5586 29.0908 62.2188 29.167C61.8789 29.249 61.4951 29.29 61.0674 29.29C60.7041 29.29 60.3496 29.2314 60.0039 29.1143C59.6641 28.9971 59.3564 28.8242 59.0811 28.5957C58.8115 28.3672 58.5947 28.0859 58.4307 27.752C58.2666 27.4121 58.1846 27.0195 58.1846 26.5742C58.1846 26.0879 58.2666 25.6689 58.4307 25.3174C58.5947 24.96 58.8086 24.6641 59.0723 24.4297C59.3359 24.1895 59.6377 24.0049 59.9775 23.876C60.3174 23.7471 60.6631 23.6621 61.0146 23.6211L63.6602 23.2959C63.9121 23.2666 64.1084 23.1699 64.249 23.0059C64.3955 22.8359 64.4688 22.5664 64.4688 22.1973C64.4688 21.6289 64.2812 21.2217 63.9062 20.9756C63.5371 20.7236 63.0039 20.5977 62.3066 20.5977C61.5918 20.5977 61.0586 20.75 60.707 21.0547C60.3555 21.3535 60.1562 21.8047 60.1094 22.4082H58.5977ZM64.4336 24.21C64.3047 24.3037 64.1436 24.3828 63.9502 24.4473C63.7627 24.5059 63.5547 24.5557 63.3262 24.5967C63.0977 24.6377 62.8545 24.6758 62.5967 24.7109C62.3389 24.7402 62.0811 24.7725 61.8232 24.8076C61.5303 24.8486 61.2607 24.9072 61.0146 24.9834C60.7686 25.0596 60.5547 25.1592 60.373 25.2822C60.1914 25.4053 60.0508 25.5547 59.9512 25.7305C59.8516 25.9004 59.8018 26.1025 59.8018 26.3369C59.8018 26.6064 59.8428 26.8438 59.9248 27.0488C60.0127 27.2539 60.1299 27.4268 60.2764 27.5674C60.4287 27.708 60.6104 27.8135 60.8213 27.8838C61.0322 27.9541 61.2637 27.9893 61.5156 27.9893C61.6738 27.9893 61.8555 27.9717 62.0605 27.9365C62.2656 27.8955 62.4766 27.8369 62.6934 27.7607C62.9102 27.6846 63.1211 27.5879 63.3262 27.4707C63.5371 27.3477 63.7246 27.2012 63.8887 27.0313C64.0527 26.8613 64.1846 26.668 64.2842 26.4512C64.3838 26.2344 64.4336 25.9912 64.4336 25.7217V24.21ZM71.0693 23.5596H71.8867C72.1035 23.5596 72.3291 23.5332 72.5635 23.4805C72.7979 23.4277 73.0117 23.3457 73.2051 23.2344C73.3984 23.1172 73.5566 22.9678 73.6797 22.7861C73.8086 22.6045 73.873 22.3848 73.873 22.127C73.873 21.9395 73.832 21.7607 73.75 21.5908C73.6738 21.415 73.5566 21.2627 73.3984 21.1338C73.2461 20.999 73.0527 20.8936 72.8184 20.8174C72.584 20.7412 72.3115 20.7031 72.001 20.7031C71.8369 20.7031 71.6436 20.7266 71.4209 20.7734C71.1982 20.8203 70.9785 20.9082 70.7617 21.0371C70.5508 21.1602 70.3604 21.3389 70.1904 21.5732C70.0264 21.8018 69.9209 22.1006 69.874 22.4697H68.3623C68.4033 22.0479 68.4883 21.6787 68.6172 21.3623C68.7461 21.04 68.9072 20.7617 69.1006 20.5273C69.2939 20.293 69.5107 20.0967 69.751 19.9385C69.9971 19.7803 70.249 19.6543 70.5068 19.5605C70.7705 19.4668 71.0342 19.3994 71.2979 19.3584C71.5615 19.3174 71.8135 19.2969 72.0537 19.2969C72.4756 19.2969 72.8916 19.3525 73.3018 19.4639C73.7119 19.5693 74.0781 19.7334 74.4004 19.9561C74.7285 20.1729 74.9922 20.4482 75.1914 20.7822C75.3906 21.1162 75.4902 21.5059 75.4902 21.9512C75.4902 22.2383 75.4492 22.4932 75.3672 22.7158C75.2852 22.9326 75.1768 23.123 75.042 23.2871C74.9131 23.4512 74.7666 23.5918 74.6025 23.709C74.4385 23.8203 74.2773 23.9141 74.1191 23.9902V24.0342C74.2832 24.0635 74.4648 24.125 74.6641 24.2188C74.8633 24.3066 75.0479 24.4355 75.2178 24.6055C75.3877 24.7695 75.5283 24.9834 75.6396 25.2471C75.7568 25.5049 75.8154 25.8213 75.8154 26.1963C75.8154 26.7236 75.7012 27.1807 75.4727 27.5674C75.25 27.9541 74.957 28.2764 74.5938 28.5342C74.2305 28.7861 73.8203 28.9736 73.3633 29.0967C72.9062 29.2256 72.4463 29.29 71.9834 29.29C71.3857 29.29 70.8438 29.2139 70.3574 29.0615C69.877 28.9092 69.4609 28.6924 69.1094 28.4111C68.7578 28.1299 68.4766 27.793 68.2656 27.4004C68.0605 27.0078 67.9375 26.5742 67.8965 26.0996H69.5225C69.5635 26.4453 69.6631 26.7324 69.8213 26.9609C69.9795 27.1895 70.1699 27.3711 70.3926 27.5059C70.6152 27.6406 70.8613 27.7373 71.1309 27.7959C71.4062 27.8545 71.6846 27.8838 71.9658 27.8838C72.71 27.8838 73.2666 27.7344 73.6357 27.4355C74.0107 27.1367 74.1982 26.7354 74.1982 26.2314C74.1982 26.0146 74.1631 25.8213 74.0928 25.6514C74.0283 25.4814 73.917 25.3379 73.7588 25.2207C73.6006 25.0977 73.3896 25.0068 73.126 24.9482C72.8682 24.8838 72.5459 24.8516 72.1592 24.8516C72.083 24.8516 71.9951 24.8545 71.8955 24.8604C71.8018 24.8604 71.7051 24.8633 71.6055 24.8691C71.5117 24.875 71.418 24.8838 71.3242 24.8955C71.2305 24.9014 71.1455 24.9072 71.0693 24.9131V23.5596ZM77.5469 19.5869H79.1641V20.8789H79.1992C79.3047 20.6621 79.4365 20.457 79.5947 20.2637C79.7588 20.0703 79.9521 19.9033 80.1748 19.7627C80.4033 19.6162 80.6641 19.502 80.957 19.4199C81.2559 19.3379 81.5957 19.2969 81.9766 19.2969C82.4805 19.2969 82.9639 19.3936 83.4268 19.5869C83.8896 19.7803 84.2998 20.0703 84.6572 20.457C85.0146 20.8438 85.2988 21.3301 85.5098 21.916C85.7207 22.4961 85.8262 23.1729 85.8262 23.9463C85.8262 24.9131 85.7266 25.7363 85.5273 26.416C85.334 27.0898 85.0557 27.6406 84.6924 28.0684C84.335 28.4961 83.9014 28.8066 83.3916 29C82.8818 29.1934 82.3135 29.29 81.6865 29.29C81.376 29.29 81.0859 29.249 80.8164 29.167C80.5469 29.085 80.3037 28.9795 80.0869 28.8506C79.876 28.7158 79.6943 28.5693 79.542 28.4111C79.3896 28.2471 79.2754 28.0889 79.1992 27.9365H79.1641V32.709H77.5469V19.5869ZM79.1289 24.3418C79.1289 24.8516 79.1787 25.3232 79.2783 25.7568C79.3779 26.1846 79.5303 26.5566 79.7354 26.873C79.9463 27.1895 80.207 27.4385 80.5176 27.6201C80.834 27.7959 81.2061 27.8838 81.6338 27.8838C82.0791 27.8838 82.4629 27.7959 82.7852 27.6201C83.1133 27.4385 83.3828 27.1895 83.5938 26.873C83.8047 26.5566 83.96 26.1846 84.0596 25.7568C84.1592 25.3232 84.209 24.8516 84.209 24.3418C84.209 23.8086 84.1592 23.3193 84.0596 22.874C83.96 22.4287 83.8047 22.0449 83.5938 21.7227C83.3828 21.4004 83.1133 21.1514 82.7852 20.9756C82.4629 20.7939 82.0791 20.7031 81.6338 20.7031C81.2061 20.7031 80.834 20.7939 80.5176 20.9756C80.207 21.1514 79.9463 21.4004 79.7354 21.7227C79.5303 22.0449 79.3779 22.4287 79.2783 22.874C79.1787 23.3193 79.1289 23.8086 79.1289 24.3418ZM87.6367 22.4082C87.6543 21.834 87.7627 21.3506 87.9619 20.958C88.1611 20.5596 88.4307 20.2373 88.7705 19.9912C89.1104 19.7451 89.5117 19.5693 89.9746 19.4639C90.4434 19.3525 90.9531 19.2969 91.5039 19.2969C91.9609 19.2969 92.4033 19.3438 92.8311 19.4375C93.2646 19.5313 93.6484 19.6836 93.9824 19.8945C94.3164 20.0996 94.583 20.3691 94.7822 20.7031C94.9873 21.0313 95.0898 21.4326 95.0898 21.9072V27.3828C95.0898 27.5352 95.1309 27.667 95.2129 27.7783C95.2949 27.8838 95.4268 27.9365 95.6084 27.9365C95.6904 27.9365 95.7754 27.9307 95.8633 27.9189C95.9512 27.9014 96.042 27.8838 96.1357 27.8662V28.9824C96.001 29.0176 95.8662 29.0498 95.7314 29.0791C95.6025 29.1084 95.4473 29.123 95.2656 29.123C94.9844 29.123 94.7412 29.0996 94.5361 29.0527C94.3369 29.0059 94.167 28.9297 94.0264 28.8242C93.8916 28.7129 93.7861 28.5723 93.71 28.4023C93.6338 28.2266 93.584 28.0127 93.5605 27.7607C93.3613 27.9775 93.1504 28.1797 92.9277 28.3672C92.7051 28.5488 92.4561 28.71 92.1807 28.8506C91.9053 28.9854 91.5977 29.0908 91.2578 29.167C90.918 29.249 90.5342 29.29 90.1064 29.29C89.7432 29.29 89.3887 29.2314 89.043 29.1143C88.7031 28.9971 88.3955 28.8242 88.1201 28.5957C87.8506 28.3672 87.6338 28.0859 87.4697 27.752C87.3057 27.4121 87.2236 27.0195 87.2236 26.5742C87.2236 26.0879 87.3057 25.6689 87.4697 25.3174C87.6338 24.96 87.8477 24.6641 88.1113 24.4297C88.375 24.1895 88.6768 24.0049 89.0166 23.876C89.3564 23.7471 89.7021 23.6621 90.0537 23.6211L92.6992 23.2959C92.9512 23.2666 93.1475 23.1699 93.2881 23.0059C93.4346 22.8359 93.5078 22.5664 93.5078 22.1973C93.5078 21.6289 93.3203 21.2217 92.9453 20.9756C92.5762 20.7236 92.043 20.5977 91.3457 20.5977C90.6309 20.5977 90.0977 20.75 89.7461 21.0547C89.3945 21.3535 89.1953 21.8047 89.1484 22.4082H87.6367ZM93.4727 24.21C93.3438 24.3037 93.1826 24.3828 92.9893 24.4473C92.8018 24.5059 92.5938 24.5557 92.3652 24.5967C92.1367 24.6377 91.8936 24.6758 91.6357 24.7109C91.3779 24.7402 91.1201 24.7725 90.8623 24.8076C90.5693 24.8486 90.2998 24.9072 90.0537 24.9834C89.8076 25.0596 89.5938 25.1592 89.4121 25.2822C89.2305 25.4053 89.0898 25.5547 88.9902 25.7305C88.8906 25.9004 88.8408 26.1025 88.8408 26.3369C88.8408 26.6064 88.8818 26.8438 88.9639 27.0488C89.0518 27.2539 89.1689 27.4268 89.3154 27.5674C89.4678 27.708 89.6494 27.8135 89.8604 27.8838C90.0713 27.9541 90.3027 27.9893 90.5547 27.9893C90.7129 27.9893 90.8945 27.9717 91.0996 27.9365C91.3047 27.8955 91.5156 27.8369 91.7324 27.7607C91.9492 27.6846 92.1602 27.5879 92.3652 27.4707C92.5762 27.3477 92.7637 27.2012 92.9277 27.0313C93.0918 26.8613 93.2236 26.668 93.3232 26.4512C93.4229 26.2344 93.4727 25.9912 93.4727 25.7217V24.21ZM104.986 15.9658C104.975 16.0537 104.957 16.1621 104.934 16.291C104.916 16.4141 104.878 16.5459 104.819 16.6865C104.761 16.8271 104.679 16.9707 104.573 17.1172C104.474 17.2578 104.339 17.3896 104.169 17.5127C104.075 17.5771 103.99 17.6328 103.914 17.6797C103.838 17.7266 103.741 17.7676 103.624 17.8027C103.507 17.8379 103.357 17.8672 103.176 17.8906C102.994 17.9141 102.751 17.9287 102.446 17.9346L101.778 17.9521C101.321 17.9639 100.908 18.0576 100.539 18.2334C100.176 18.4033 99.8535 18.6436 99.5723 18.9541C99.2969 19.2588 99.0684 19.6279 98.8867 20.0615C98.7051 20.4951 98.5703 20.9785 98.4824 21.5117C98.6055 21.2773 98.7578 21.0488 98.9395 20.8262C99.1211 20.5977 99.3467 20.3955 99.6162 20.2197C99.8857 20.0381 100.202 19.8945 100.565 19.7891C100.929 19.6777 101.351 19.6221 101.831 19.6221C102.376 19.6221 102.892 19.7188 103.378 19.9121C103.87 20.1055 104.298 20.3955 104.661 20.7822C105.03 21.1689 105.323 21.6494 105.54 22.2236C105.757 22.7979 105.865 23.4658 105.865 24.2275C105.865 24.4678 105.848 24.7607 105.812 25.1064C105.777 25.4463 105.707 25.8037 105.602 26.1787C105.496 26.5537 105.344 26.9287 105.145 27.3037C104.951 27.6729 104.69 28.0039 104.362 28.2969C104.04 28.5898 103.645 28.8271 103.176 29.0088C102.713 29.1963 102.156 29.29 101.506 29.29C101.236 29.29 100.949 29.2666 100.645 29.2197C100.346 29.1787 100.044 29.0996 99.7393 28.9824C99.4404 28.8652 99.1475 28.7012 98.8604 28.4902C98.5791 28.2793 98.3213 28.0098 98.0869 27.6816C97.9697 27.5176 97.8525 27.3301 97.7354 27.1191C97.624 26.9023 97.5215 26.6416 97.4277 26.3369C97.334 26.0322 97.2578 25.6719 97.1992 25.2559C97.1465 24.8398 97.1201 24.3477 97.1201 23.7793C97.1201 23.4043 97.1377 22.9795 97.1729 22.5049C97.208 22.0303 97.2695 21.5469 97.3574 21.0547C97.4453 20.5625 97.5625 20.0879 97.709 19.6309C97.8555 19.168 98.043 18.7637 98.2715 18.418C98.5176 18.043 98.7754 17.7383 99.0449 17.5039C99.3145 17.2695 99.6016 17.085 99.9062 16.9502C100.211 16.8154 100.539 16.7188 100.891 16.6602C101.242 16.6016 101.623 16.5635 102.033 16.5459L102.604 16.5283C102.792 16.5225 102.95 16.5137 103.079 16.502C103.214 16.4844 103.325 16.458 103.413 16.4229C103.501 16.3877 103.571 16.335 103.624 16.2646C103.677 16.1943 103.721 16.0947 103.756 15.9658H104.986ZM98.7373 24.4648C98.7373 24.6406 98.7461 24.8486 98.7637 25.0889C98.7871 25.3291 98.8311 25.5811 98.8955 25.8447C98.96 26.1025 99.0537 26.3604 99.1768 26.6182C99.2998 26.876 99.4609 27.1074 99.6602 27.3125C99.8652 27.5117 100.117 27.6758 100.416 27.8047C100.715 27.9277 101.072 27.9893 101.488 27.9893C101.951 27.9893 102.341 27.916 102.657 27.7695C102.974 27.6172 103.234 27.4238 103.439 27.1895C103.645 26.9492 103.8 26.6855 103.905 26.3984C104.017 26.1113 104.096 25.833 104.143 25.5635C104.195 25.2881 104.225 25.0391 104.23 24.8164C104.242 24.5879 104.248 24.415 104.248 24.2979C104.248 23.8701 104.198 23.4512 104.099 23.041C104.005 22.6309 103.85 22.2676 103.633 21.9512C103.422 21.6348 103.144 21.3799 102.798 21.1865C102.458 20.9932 102.039 20.8965 101.541 20.8965C101.055 20.8965 100.636 20.9932 100.284 21.1865C99.9326 21.374 99.6426 21.6318 99.4141 21.96C99.1855 22.2822 99.0156 22.6602 98.9043 23.0938C98.793 23.5215 98.7373 23.9785 98.7373 24.4648ZM114.268 24.2803C114.268 23.7588 114.209 23.2813 114.092 22.8477C113.975 22.4082 113.799 22.0303 113.564 21.7139C113.33 21.3975 113.04 21.1514 112.694 20.9756C112.354 20.7939 111.959 20.7031 111.508 20.7031C111.057 20.7031 110.661 20.7939 110.321 20.9756C109.981 21.1514 109.694 21.3975 109.46 21.7139C109.226 22.0303 109.05 22.4082 108.933 22.8477C108.815 23.2813 108.757 23.7588 108.757 24.2803C108.757 24.8076 108.815 25.2939 108.933 25.7393C109.05 26.1787 109.226 26.5566 109.46 26.873C109.694 27.1895 109.981 27.4385 110.321 27.6201C110.661 27.7959 111.057 27.8838 111.508 27.8838C111.959 27.8838 112.354 27.7959 112.694 27.6201C113.04 27.4385 113.33 27.1895 113.564 26.873C113.799 26.5566 113.975 26.1787 114.092 25.7393C114.209 25.2939 114.268 24.8076 114.268 24.2803ZM115.885 24.2803C115.885 25.0537 115.785 25.751 115.586 26.3721C115.387 26.9873 115.1 27.5117 114.725 27.9453C114.35 28.3789 113.89 28.7129 113.345 28.9473C112.806 29.1758 112.193 29.29 111.508 29.29C110.822 29.29 110.21 29.1758 109.671 28.9473C109.132 28.7129 108.675 28.3789 108.3 27.9453C107.925 27.5117 107.638 26.9873 107.438 26.3721C107.239 25.751 107.14 25.0537 107.14 24.2803C107.14 23.5186 107.239 22.8301 107.438 22.2148C107.638 21.5996 107.925 21.0752 108.3 20.6416C108.675 20.208 109.132 19.877 109.671 19.6484C110.21 19.4141 110.822 19.2969 111.508 19.2969C112.193 19.2969 112.806 19.4141 113.345 19.6484C113.89 19.877 114.35 20.208 114.725 20.6416C115.1 21.0752 115.387 21.5996 115.586 22.2148C115.785 22.8301 115.885 23.5186 115.885 24.2803ZM120.218 20.9932L116.975 20.9932V19.5869L125.078 19.5869V20.9932H121.835V29H120.218V20.9932ZM126.695 22.4082C126.713 21.834 126.821 21.3506 127.021 20.958C127.22 20.5596 127.489 20.2373 127.829 19.9912C128.169 19.7451 128.57 19.5693 129.033 19.4639C129.502 19.3525 130.012 19.2969 130.562 19.2969C131.02 19.2969 131.462 19.3438 131.89 19.4375C132.323 19.5313 132.707 19.6836 133.041 19.8945C133.375 20.0996 133.642 20.3691 133.841 20.7031C134.046 21.0313 134.148 21.4326 134.148 21.9072V27.3828C134.148 27.5352 134.189 27.667 134.271 27.7783C134.354 27.8838 134.485 27.9365 134.667 27.9365C134.749 27.9365 134.834 27.9307 134.922 27.9189C135.01 27.9014 135.101 27.8838 135.194 27.8662V28.9824C135.06 29.0176 134.925 29.0498 134.79 29.0791C134.661 29.1084 134.506 29.123 134.324 29.123C134.043 29.123 133.8 29.0996 133.595 29.0527C133.396 29.0059 133.226 28.9297 133.085 28.8242C132.95 28.7129 132.845 28.5723 132.769 28.4023C132.692 28.2266 132.643 28.0127 132.619 27.7607C132.42 27.9775 132.209 28.1797 131.986 28.3672C131.764 28.5488 131.515 28.71 131.239 28.8506C130.964 28.9854 130.656 29.0908 130.316 29.167C129.977 29.249 129.593 29.29 129.165 29.29C128.802 29.29 128.447 29.2314 128.102 29.1143C127.762 28.9971 127.454 28.8242 127.179 28.5957C126.909 28.3672 126.692 28.0859 126.528 27.752C126.364 27.4121 126.282 27.0195 126.282 26.5742C126.282 26.0879 126.364 25.6689 126.528 25.3174C126.692 24.96 126.906 24.6641 127.17 24.4297C127.434 24.1895 127.735 24.0049 128.075 23.876C128.415 23.7471 128.761 23.6621 129.112 23.6211L131.758 23.2959C132.01 23.2666 132.206 23.1699 132.347 23.0059C132.493 22.8359 132.566 22.5664 132.566 22.1973C132.566 21.6289 132.379 21.2217 132.004 20.9756C131.635 20.7236 131.102 20.5977 130.404 20.5977C129.689 20.5977 129.156 20.75 128.805 21.0547C128.453 21.3535 128.254 21.8047 128.207 22.4082H126.695ZM132.531 24.21C132.402 24.3037 132.241 24.3828 132.048 24.4473C131.86 24.5059 131.652 24.5557 131.424 24.5967C131.195 24.6377 130.952 24.6758 130.694 24.7109C130.437 24.7402 130.179 24.7725 129.921 24.8076C129.628 24.8486 129.358 24.9072 129.112 24.9834C128.866 25.0596 128.652 25.1592 128.471 25.2822C128.289 25.4053 128.148 25.5547 128.049 25.7305C127.949 25.9004 127.899 26.1025 127.899 26.3369C127.899 26.6064 127.94 26.8438 128.022 27.0488C128.11 27.2539 128.228 27.4268 128.374 27.5674C128.526 27.708 128.708 27.8135 128.919 27.8838C129.13 27.9541 129.361 27.9893 129.613 27.9893C129.771 27.9893 129.953 27.9717 130.158 27.9365C130.363 27.8955 130.574 27.8369 130.791 27.7607C131.008 27.6846 131.219 27.5879 131.424 27.4707C131.635 27.3477 131.822 27.2012 131.986 27.0313C132.15 26.8613 132.282 26.668 132.382 26.4512C132.481 26.2344 132.531 25.9912 132.531 25.7217V24.21ZM139.272 15.9307C139.349 16.3057 139.507 16.6045 139.747 16.8271C139.987 17.0439 140.342 17.1523 140.811 17.1523C141.285 17.1523 141.643 17.0469 141.883 16.8359C142.123 16.6191 142.278 16.3174 142.349 15.9307H143.852C143.846 16.2822 143.77 16.6016 143.623 16.8887C143.477 17.1699 143.269 17.4102 142.999 17.6094C142.735 17.8086 142.416 17.9639 142.041 18.0752C141.672 18.1807 141.262 18.2334 140.811 18.2334C140.359 18.2334 139.949 18.1807 139.58 18.0752C139.211 17.9697 138.895 17.8174 138.631 17.6182C138.367 17.4189 138.159 17.1787 138.007 16.8975C137.86 16.6104 137.784 16.2881 137.778 15.9307H139.272ZM136.732 19.5869H138.35V26.8027H138.385L143.008 19.5869H144.862V29H143.236V21.7842H143.201L138.587 29H136.732V19.5869ZM152.254 19.5869H153.871V26.8027H153.906L158.529 19.5869H160.384V29H158.758V21.7842H158.723L154.108 29H152.254V19.5869ZM170.21 23.5596H171.027C171.244 23.5596 171.47 23.5332 171.704 23.4805C171.938 23.4277 172.152 23.3457 172.346 23.2344C172.539 23.1172 172.697 22.9678 172.82 22.7861C172.949 22.6045 173.014 22.3848 173.014 22.127C173.014 21.9395 172.973 21.7607 172.891 21.5908C172.814 21.415 172.697 21.2627 172.539 21.1338C172.387 20.999 172.193 20.8936 171.959 20.8174C171.725 20.7412 171.452 20.7031 171.142 20.7031C170.978 20.7031 170.784 20.7266 170.562 20.7734C170.339 20.8203 170.119 20.9082 169.902 21.0371C169.691 21.1602 169.501 21.3389 169.331 21.5732C169.167 21.8018 169.062 22.1006 169.015 22.4697H167.503C167.544 22.0479 167.629 21.6787 167.758 21.3623C167.887 21.04 168.048 20.7617 168.241 20.5273C168.435 20.293 168.651 20.0967 168.892 19.9385C169.138 19.7803 169.39 19.6543 169.647 19.5605C169.911 19.4668 170.175 19.3994 170.438 19.3584C170.702 19.3174 170.954 19.2969 171.194 19.2969C171.616 19.2969 172.032 19.3525 172.442 19.4639C172.853 19.5693 173.219 19.7334 173.541 19.9561C173.869 20.1729 174.133 20.4482 174.332 20.7822C174.531 21.1162 174.631 21.5059 174.631 21.9512C174.631 22.2383 174.59 22.4932 174.508 22.7158C174.426 22.9326 174.317 23.123 174.183 23.2871C174.054 23.4512 173.907 23.5918 173.743 23.709C173.579 23.8203 173.418 23.9141 173.26 23.9902V24.0342C173.424 24.0635 173.605 24.125 173.805 24.2188C174.004 24.3066 174.188 24.4355 174.358 24.6055C174.528 24.7695 174.669 24.9834 174.78 25.2471C174.897 25.5049 174.956 25.8213 174.956 26.1963C174.956 26.7236 174.842 27.1807 174.613 27.5674C174.391 27.9541 174.098 28.2764 173.734 28.5342C173.371 28.7861 172.961 28.9736 172.504 29.0967C172.047 29.2256 171.587 29.29 171.124 29.29C170.526 29.29 169.984 29.2139 169.498 29.0615C169.018 28.9092 168.602 28.6924 168.25 28.4111C167.898 28.1299 167.617 27.793 167.406 27.4004C167.201 27.0078 167.078 26.5742 167.037 26.0996H168.663C168.704 26.4453 168.804 26.7324 168.962 26.9609C169.12 27.1895 169.311 27.3711 169.533 27.5059C169.756 27.6406 170.002 27.7373 170.271 27.7959C170.547 27.8545 170.825 27.8838 171.106 27.8838C171.851 27.8838 172.407 27.7344 172.776 27.4355C173.151 27.1367 173.339 26.7354 173.339 26.2314C173.339 26.0146 173.304 25.8213 173.233 25.6514C173.169 25.4814 173.058 25.3379 172.899 25.2207C172.741 25.0977 172.53 25.0068 172.267 24.9482C172.009 24.8838 171.687 24.8516 171.3 24.8516C171.224 24.8516 171.136 24.8545 171.036 24.8604C170.942 24.8604 170.846 24.8633 170.746 24.8691C170.652 24.875 170.559 24.8838 170.465 24.8955C170.371 24.9014 170.286 24.9072 170.21 24.9131V23.5596ZM176.758 22.4082C176.775 21.834 176.884 21.3506 177.083 20.958C177.282 20.5596 177.552 20.2373 177.892 19.9912C178.231 19.7451 178.633 19.5693 179.096 19.4639C179.564 19.3525 180.074 19.2969 180.625 19.2969C181.082 19.2969 181.524 19.3438 181.952 19.4375C182.386 19.5313 182.77 19.6836 183.104 19.8945C183.438 20.0996 183.704 20.3691 183.903 20.7031C184.108 21.0313 184.211 21.4326 184.211 21.9072V27.3828C184.211 27.5352 184.252 27.667 184.334 27.7783C184.416 27.8838 184.548 27.9365 184.729 27.9365C184.812 27.9365 184.896 27.9307 184.984 27.9189C185.072 27.9014 185.163 27.8838 185.257 27.8662V28.9824C185.122 29.0176 184.987 29.0498 184.853 29.0791C184.724 29.1084 184.568 29.123 184.387 29.123C184.105 29.123 183.862 29.0996 183.657 29.0527C183.458 29.0059 183.288 28.9297 183.147 28.8242C183.013 28.7129 182.907 28.5723 182.831 28.4023C182.755 28.2266 182.705 28.0127 182.682 27.7607C182.482 27.9775 182.271 28.1797 182.049 28.3672C181.826 28.5488 181.577 28.71 181.302 28.8506C181.026 28.9854 180.719 29.0908 180.379 29.167C180.039 29.249 179.655 29.29 179.228 29.29C178.864 29.29 178.51 29.2314 178.164 29.1143C177.824 28.9971 177.517 28.8242 177.241 28.5957C176.972 28.3672 176.755 28.0859 176.591 27.752C176.427 27.4121 176.345 27.0195 176.345 26.5742C176.345 26.0879 176.427 25.6689 176.591 25.3174C176.755 24.96 176.969 24.6641 177.232 24.4297C177.496 24.1895 177.798 24.0049 178.138 23.876C178.478 23.7471 178.823 23.6621 179.175 23.6211L181.82 23.2959C182.072 23.2666 182.269 23.1699 182.409 23.0059C182.556 22.8359 182.629 22.5664 182.629 22.1973C182.629 21.6289 182.441 21.2217 182.066 20.9756C181.697 20.7236 181.164 20.5977 180.467 20.5977C179.752 20.5977 179.219 20.75 178.867 21.0547C178.516 21.3535 178.316 21.8047 178.27 22.4082H176.758ZM182.594 24.21C182.465 24.3037 182.304 24.3828 182.11 24.4473C181.923 24.5059 181.715 24.5557 181.486 24.5967C181.258 24.6377 181.015 24.6758 180.757 24.7109C180.499 24.7402 180.241 24.7725 179.983 24.8076C179.69 24.8486 179.421 24.9072 179.175 24.9834C178.929 25.0596 178.715 25.1592 178.533 25.2822C178.352 25.4053 178.211 25.5547 178.111 25.7305C178.012 25.9004 177.962 26.1025 177.962 26.3369C177.962 26.6064 178.003 26.8438 178.085 27.0488C178.173 27.2539 178.29 27.4268 178.437 27.5674C178.589 27.708 178.771 27.8135 178.981 27.8838C179.192 27.9541 179.424 27.9893 179.676 27.9893C179.834 27.9893 180.016 27.9717 180.221 27.9365C180.426 27.8955 180.637 27.8369 180.854 27.7607C181.07 27.6846 181.281 27.5879 181.486 27.4707C181.697 27.3477 181.885 27.2012 182.049 27.0313C182.213 26.8613 182.345 26.668 182.444 26.4512C182.544 26.2344 182.594 25.9912 182.594 25.7217V24.21ZM186.707 19.5869H188.324V20.8789H188.359C188.465 20.6621 188.597 20.457 188.755 20.2637C188.919 20.0703 189.112 19.9033 189.335 19.7627C189.563 19.6162 189.824 19.502 190.117 19.4199C190.416 19.3379 190.756 19.2969 191.137 19.2969C191.641 19.2969 192.124 19.3936 192.587 19.5869C193.05 19.7803 193.46 20.0703 193.817 20.457C194.175 20.8438 194.459 21.3301 194.67 21.916C194.881 22.4961 194.986 23.1729 194.986 23.9463C194.986 24.9131 194.887 25.7363 194.688 26.416C194.494 27.0898 194.216 27.6406 193.853 28.0684C193.495 28.4961 193.062 28.8066 192.552 29C192.042 29.1934 191.474 29.29 190.847 29.29C190.536 29.29 190.246 29.249 189.977 29.167C189.707 29.085 189.464 28.9795 189.247 28.8506C189.036 28.7158 188.854 28.5693 188.702 28.4111C188.55 28.2471 188.436 28.0889 188.359 27.9365H188.324V32.709H186.707V19.5869ZM188.289 24.3418C188.289 24.8516 188.339 25.3232 188.438 25.7568C188.538 26.1846 188.69 26.5566 188.896 26.873C189.106 27.1895 189.367 27.4385 189.678 27.6201C189.994 27.7959 190.366 27.8838 190.794 27.8838C191.239 27.8838 191.623 27.7959 191.945 27.6201C192.273 27.4385 192.543 27.1895 192.754 26.873C192.965 26.5566 193.12 26.1846 193.22 25.7568C193.319 25.3232 193.369 24.8516 193.369 24.3418C193.369 23.8086 193.319 23.3193 193.22 22.874C193.12 22.4287 192.965 22.0449 192.754 21.7227C192.543 21.4004 192.273 21.1514 191.945 20.9756C191.623 20.7939 191.239 20.7031 190.794 20.7031C190.366 20.7031 189.994 20.7939 189.678 20.9756C189.367 21.1514 189.106 21.4004 188.896 21.7227C188.69 22.0449 188.538 22.4287 188.438 22.874C188.339 23.3193 188.289 23.8086 188.289 24.3418ZM196.814 19.5869H198.432V26.8027H198.467L203.09 19.5869H204.944V29H203.318V21.7842H203.283L198.669 29H196.814V19.5869ZM214.727 25.6865C214.703 25.915 214.656 26.1641 214.586 26.4336C214.521 26.7031 214.425 26.9727 214.296 27.2422C214.167 27.5059 214 27.7607 213.795 28.0068C213.596 28.2529 213.35 28.4727 213.057 28.666C212.77 28.8535 212.43 29.0029 212.037 29.1143C211.645 29.2314 211.196 29.29 210.692 29.29C210.417 29.29 210.127 29.2549 209.822 29.1846C209.518 29.1201 209.219 29.0088 208.926 28.8506C208.639 28.6924 208.363 28.4902 208.1 28.2441C207.842 27.9922 207.613 27.6816 207.414 27.3125C207.221 26.9434 207.065 26.5156 206.948 26.0293C206.831 25.5371 206.772 24.9746 206.772 24.3418C206.772 23.5625 206.884 22.8623 207.106 22.2412C207.329 21.6143 207.625 21.084 207.994 20.6504C208.369 20.2168 208.803 19.8828 209.295 19.6484C209.793 19.4141 210.314 19.2969 210.859 19.2969C211.352 19.2969 211.785 19.3496 212.16 19.4551C212.541 19.5605 212.872 19.7012 213.153 19.877C213.435 20.0527 213.672 20.2578 213.865 20.4922C214.059 20.7207 214.214 20.9639 214.331 21.2217C214.454 21.4736 214.545 21.7314 214.604 21.9951C214.668 22.2588 214.709 22.5107 214.727 22.751H213.215C213.133 22.1123 212.91 21.6113 212.547 21.248C212.189 20.8848 211.686 20.7031 211.035 20.7031C210.59 20.7031 210.2 20.7939 209.866 20.9756C209.538 21.1572 209.263 21.4121 209.04 21.7402C208.823 22.0625 208.659 22.4551 208.548 22.918C208.442 23.375 208.39 23.8789 208.39 24.4297C208.39 25.0508 208.448 25.5869 208.565 26.0381C208.683 26.4834 208.85 26.8525 209.066 27.1455C209.283 27.4326 209.547 27.6465 209.857 27.7871C210.174 27.9219 210.531 27.9893 210.93 27.9893C211.211 27.9893 211.478 27.9395 211.729 27.8398C211.981 27.7344 212.207 27.585 212.406 27.3916C212.605 27.1924 212.775 26.9492 212.916 26.6621C213.057 26.375 213.156 26.0498 213.215 25.6865H214.727ZM215.342 19.5869H217.117L219.622 27.251H219.657L222.162 19.5869H223.938L220.343 29.3779C220.161 29.8701 219.994 30.2979 219.842 30.6611C219.689 31.0244 219.54 31.332 219.394 31.584C219.247 31.8418 219.098 32.0498 218.945 32.208C218.799 32.3662 218.635 32.4893 218.453 32.5771C218.277 32.6709 218.078 32.7324 217.855 32.7617C217.639 32.7969 217.387 32.8145 217.1 32.8145C216.865 32.8145 216.681 32.8027 216.546 32.7793C216.417 32.7617 216.303 32.7383 216.203 32.709V31.25C216.309 31.2852 216.446 31.3203 216.616 31.3555C216.786 31.3906 216.965 31.4082 217.152 31.4082C217.451 31.4082 217.691 31.335 217.873 31.1885C218.061 31.0479 218.204 30.8457 218.304 30.582L218.831 29.2549L215.342 19.5869ZM227.866 15.9307C227.942 16.3057 228.101 16.6045 228.341 16.8271C228.581 17.0439 228.936 17.1523 229.404 17.1523C229.879 17.1523 230.236 17.0469 230.477 16.8359C230.717 16.6191 230.872 16.3174 230.942 15.9307H232.445C232.439 16.2822 232.363 16.6016 232.217 16.8887C232.07 17.1699 231.862 17.4102 231.593 17.6094C231.329 17.8086 231.01 17.9639 230.635 18.0752C230.266 18.1807 229.855 18.2334 229.404 18.2334C228.953 18.2334 228.543 18.1807 228.174 18.0752C227.805 17.9697 227.488 17.8174 227.225 17.6182C226.961 17.4189 226.753 17.1787 226.601 16.8975C226.454 16.6104 226.378 16.2881 226.372 15.9307H227.866ZM225.326 19.5869H226.943V26.8027H226.979L231.602 19.5869H233.456V29H231.83V21.7842H231.795L227.181 29H225.326V19.5869ZM246.859 20.9932H242.465V29H240.848V19.5869H248.485V29L246.859 29V20.9932ZM250.779 19.5869H252.396V20.8789H252.432C252.537 20.6621 252.669 20.457 252.827 20.2637C252.991 20.0703 253.185 19.9033 253.407 19.7627C253.636 19.6162 253.896 19.502 254.189 19.4199C254.488 19.3379 254.828 19.2969 255.209 19.2969C255.713 19.2969 256.196 19.3936 256.659 19.5869C257.122 19.7803 257.532 20.0703 257.89 20.457C258.247 20.8438 258.531 21.3301 258.742 21.916C258.953 22.4961 259.059 23.1729 259.059 23.9463C259.059 24.9131 258.959 25.7363 258.76 26.416C258.566 27.0898 258.288 27.6406 257.925 28.0684C257.567 28.4961 257.134 28.8066 256.624 29C256.114 29.1934 255.546 29.29 254.919 29.29C254.608 29.29 254.318 29.249 254.049 29.167C253.779 29.085 253.536 28.9795 253.319 28.8506C253.108 28.7158 252.927 28.5693 252.774 28.4111C252.622 28.2471 252.508 28.0889 252.432 27.9365H252.396V32.709H250.779V19.5869ZM252.361 24.3418C252.361 24.8516 252.411 25.3232 252.511 25.7568C252.61 26.1846 252.763 26.5566 252.968 26.873C253.179 27.1895 253.439 27.4385 253.75 27.6201C254.066 27.7959 254.438 27.8838 254.866 27.8838C255.312 27.8838 255.695 27.7959 256.018 27.6201C256.346 27.4385 256.615 27.1895 256.826 26.873C257.037 26.5566 257.192 26.1846 257.292 25.7568C257.392 25.3232 257.441 24.8516 257.441 24.3418C257.441 23.8086 257.392 23.3193 257.292 22.874C257.192 22.4287 257.037 22.0449 256.826 21.7227C256.615 21.4004 256.346 21.1514 256.018 20.9756C255.695 20.7939 255.312 20.7031 254.866 20.7031C254.438 20.7031 254.066 20.7939 253.75 20.9756C253.439 21.1514 253.179 21.4004 252.968 21.7227C252.763 22.0449 252.61 22.4287 252.511 22.874C252.411 23.3193 252.361 23.8086 252.361 24.3418ZM267.461 24.2803C267.461 23.7588 267.402 23.2813 267.285 22.8477C267.168 22.4082 266.992 22.0303 266.758 21.7139C266.523 21.3975 266.233 21.1514 265.888 20.9756C265.548 20.7939 265.152 20.7031 264.701 20.7031C264.25 20.7031 263.854 20.7939 263.515 20.9756C263.175 21.1514 262.888 21.3975 262.653 21.7139C262.419 22.0303 262.243 22.4082 262.126 22.8477C262.009 23.2813 261.95 23.7588 261.95 24.2803C261.95 24.8076 262.009 25.2939 262.126 25.7393C262.243 26.1787 262.419 26.5566 262.653 26.873C262.888 27.1895 263.175 27.4385 263.515 27.6201C263.854 27.7959 264.25 27.8838 264.701 27.8838C265.152 27.8838 265.548 27.7959 265.888 27.6201C266.233 27.4385 266.523 27.1895 266.758 26.873C266.992 26.5566 267.168 26.1787 267.285 25.7393C267.402 25.2939 267.461 24.8076 267.461 24.2803ZM269.078 24.2803C269.078 25.0537 268.979 25.751 268.779 26.3721C268.58 26.9873 268.293 27.5117 267.918 27.9453C267.543 28.3789 267.083 28.7129 266.538 28.9473C265.999 29.1758 265.387 29.29 264.701 29.29C264.016 29.29 263.403 29.1758 262.864 28.9473C262.325 28.7129 261.868 28.3789 261.493 27.9453C261.118 27.5117 260.831 26.9873 260.632 26.3721C260.433 25.751 260.333 25.0537 260.333 24.2803C260.333 23.5186 260.433 22.8301 260.632 22.2148C260.831 21.5996 261.118 21.0752 261.493 20.6416C261.868 20.208 262.325 19.877 262.864 19.6484C263.403 19.4141 264.016 19.2969 264.701 19.2969C265.387 19.2969 265.999 19.4141 266.538 19.6484C267.083 19.877 267.543 20.208 267.918 20.6416C268.293 21.0752 268.58 21.5996 268.779 22.2148C268.979 22.8301 269.078 23.5186 269.078 24.2803ZM278.922 25.9941C278.857 26.4043 278.717 26.8057 278.5 27.1982C278.283 27.5908 277.999 27.9424 277.647 28.2529C277.296 28.5635 276.88 28.8125 276.399 29C275.925 29.1934 275.397 29.29 274.817 29.29C274.185 29.29 273.599 29.1875 273.06 28.9824C272.526 28.7715 272.063 28.458 271.671 28.042C271.284 27.6201 270.979 27.0928 270.757 26.46C270.534 25.8271 270.423 25.083 270.423 24.2275C270.423 23.6533 270.484 23.1348 270.607 22.6719C270.736 22.2031 270.906 21.7871 271.117 21.4238C271.334 21.0547 271.583 20.7383 271.864 20.4746C272.146 20.2051 272.441 19.9854 272.752 19.8154C273.068 19.6396 273.391 19.5107 273.719 19.4287C274.047 19.3408 274.363 19.2969 274.668 19.2969C275.312 19.2969 275.901 19.3936 276.435 19.5869C276.968 19.7803 277.425 20.0762 277.806 20.4746C278.192 20.8672 278.491 21.3623 278.702 21.96C278.919 22.5518 279.027 23.249 279.027 24.0518V24.8604H272.146C272.151 25.3174 272.216 25.7334 272.339 26.1084C272.462 26.4775 272.638 26.7939 272.866 27.0576C273.095 27.3213 273.37 27.5264 273.692 27.6729C274.021 27.8135 274.39 27.8838 274.8 27.8838C275.216 27.8838 275.567 27.8252 275.854 27.708C276.142 27.5908 276.382 27.4414 276.575 27.2598C276.769 27.0781 276.924 26.876 277.041 26.6533C277.164 26.4307 277.267 26.2109 277.349 25.9941H278.922ZM277.401 23.5684C277.39 23.1113 277.319 22.7041 277.19 22.3467C277.067 21.9893 276.892 21.6904 276.663 21.4502C276.44 21.2041 276.171 21.0195 275.854 20.8965C275.538 20.7676 275.187 20.7031 274.8 20.7031C274.431 20.7031 274.091 20.7764 273.78 20.9229C273.47 21.0635 273.197 21.2627 272.963 21.5205C272.729 21.7725 272.541 22.0742 272.4 22.4258C272.26 22.7715 272.175 23.1523 272.146 23.5684H277.401ZM280.926 19.5869H282.543V24.1396L287.298 19.5869H289.416L284.995 23.7441L289.486 29H287.403L283.729 24.7285L282.543 25.7217V29H280.926V19.5869ZM293.292 20.9932H290.049V19.5869L298.152 19.5869V20.9932L294.909 20.9932V29H293.292V20.9932ZM93.1826 46.6865C93.1592 46.915 93.1123 47.1641 93.042 47.4336C92.9775 47.7031 92.8809 47.9727 92.752 48.2422C92.623 48.5059 92.4561 48.7607 92.251 49.0068C92.0518 49.2529 91.8057 49.4727 91.5127 49.666C91.2256 49.8535 90.8857 50.0029 90.4932 50.1143C90.1006 50.2314 89.6523 50.29 89.1484 50.29C88.873 50.29 88.583 50.2549 88.2783 50.1846C87.9736 50.1201 87.6748 50.0088 87.3818 49.8506C87.0947 49.6924 86.8193 49.4902 86.5557 49.2441C86.2979 48.9922 86.0693 48.6816 85.8701 48.3125C85.6768 47.9434 85.5215 47.5156 85.4043 47.0293C85.2871 46.5371 85.2285 45.9746 85.2285 45.3418C85.2285 44.5625 85.3398 43.8623 85.5625 43.2412C85.7852 42.6143 86.0811 42.084 86.4502 41.6504C86.8252 41.2168 87.2588 40.8828 87.751 40.6484C88.249 40.4141 88.7705 40.2969 89.3154 40.2969C89.8076 40.2969 90.2412 40.3496 90.6162 40.4551C90.9971 40.5605 91.3281 40.7012 91.6094 40.877C91.8906 41.0527 92.1279 41.2578 92.3213 41.4922C92.5146 41.7207 92.6699 41.9639 92.7871 42.2217C92.9102 42.4736 93.001 42.7314 93.0596 42.9951C93.124 43.2588 93.165 43.5107 93.1826 43.751H91.6709C91.5889 43.1123 91.3662 42.6113 91.0029 42.248C90.6455 41.8848 90.1416 41.7031 89.4912 41.7031C89.0459 41.7031 88.6562 41.7939 88.3223 41.9756C87.9941 42.1572 87.7188 42.4121 87.4961 42.7402C87.2793 43.0625 87.1152 43.4551 87.0039 43.918C86.8984 44.375 86.8457 44.8789 86.8457 45.4297C86.8457 46.0508 86.9043 46.5869 87.0215 47.0381C87.1387 47.4834 87.3057 47.8525 87.5225 48.1455C87.7393 48.4326 88.0029 48.6465 88.3135 48.7871C88.6299 48.9219 88.9873 48.9893 89.3857 48.9893C89.667 48.9893 89.9336 48.9395 90.1855 48.8398C90.4375 48.7344 90.6631 48.585 90.8623 48.3916C91.0615 48.1924 91.2314 47.9492 91.3721 47.6621C91.5127 47.375 91.6123 47.0498 91.6709 46.6865H93.1826ZM94.7822 40.5869H98.79C99.9385 40.5869 100.797 40.8008 101.365 41.2285C101.939 41.6563 102.227 42.2773 102.227 43.0918C102.227 43.5254 102.121 43.8916 101.91 44.1904C101.699 44.4893 101.421 44.7529 101.075 44.9814C101.573 45.1689 101.969 45.4385 102.262 45.79C102.555 46.1416 102.701 46.5957 102.701 47.1523C102.701 47.5918 102.628 47.9873 102.481 48.3389C102.335 48.6904 102.112 48.9893 101.813 49.2354C101.515 49.4814 101.134 49.6719 100.671 49.8066C100.214 49.9355 99.6719 50 99.0449 50H94.7822V40.5869ZM96.3994 48.708H98.8604C99.2881 48.708 99.6426 48.6758 99.9238 48.6113C100.211 48.541 100.439 48.4414 100.609 48.3125C100.779 48.1836 100.899 48.0283 100.97 47.8467C101.04 47.665 101.075 47.46 101.075 47.2314C101.075 47.0029 101.04 46.7979 100.97 46.6162C100.899 46.4287 100.779 46.2734 100.609 46.1504C100.439 46.0215 100.211 45.9248 99.9238 45.8604C99.6426 45.79 99.2881 45.7549 98.8604 45.7549H96.3994V48.708ZM96.3994 44.5684H98.8428C99.3877 44.5684 99.8184 44.46 100.135 44.2432C100.451 44.0264 100.609 43.6895 100.609 43.2324C100.609 42.9746 100.565 42.7607 100.478 42.5908C100.39 42.415 100.272 42.2744 100.126 42.1689C99.9795 42.0635 99.8125 41.9902 99.625 41.9492C99.4434 41.9023 99.2559 41.8789 99.0625 41.8789H96.3994V44.5684ZM111.218 45.2803C111.218 44.7588 111.159 44.2813 111.042 43.8477C110.925 43.4082 110.749 43.0303 110.515 42.7139C110.28 42.3975 109.99 42.1514 109.645 41.9756C109.305 41.7939 108.909 41.7031 108.458 41.7031C108.007 41.7031 107.611 41.7939 107.271 41.9756C106.932 42.1514 106.645 42.3975 106.41 42.7139C106.176 43.0303 106 43.4082 105.883 43.8477C105.766 44.2813 105.707 44.7588 105.707 45.2803C105.707 45.8076 105.766 46.2939 105.883 46.7393C106 47.1787 106.176 47.5566 106.41 47.873C106.645 48.1895 106.932 48.4385 107.271 48.6201C107.611 48.7959 108.007 48.8838 108.458 48.8838C108.909 48.8838 109.305 48.7959 109.645 48.6201C109.99 48.4385 110.28 48.1895 110.515 47.873C110.749 47.5566 110.925 47.1787 111.042 46.7393C111.159 46.2939 111.218 45.8076 111.218 45.2803ZM112.835 45.2803C112.835 46.0537 112.735 46.751 112.536 47.3721C112.337 47.9873 112.05 48.5117 111.675 48.9453C111.3 49.3789 110.84 49.7129 110.295 49.9473C109.756 50.1758 109.144 50.29 108.458 50.29C107.772 50.29 107.16 50.1758 106.621 49.9473C106.082 49.7129 105.625 49.3789 105.25 48.9453C104.875 48.5117 104.588 47.9873 104.389 47.3721C104.189 46.751 104.09 46.0537 104.09 45.2803C104.09 44.5186 104.189 43.8301 104.389 43.2148C104.588 42.5996 104.875 42.0752 105.25 41.6416C105.625 41.208 106.082 40.877 106.621 40.6484C107.16 40.4141 107.772 40.2969 108.458 40.2969C109.144 40.2969 109.756 40.4141 110.295 40.6484C110.84 40.877 111.3 41.208 111.675 41.6416C112.05 42.0752 112.337 42.5996 112.536 43.2148C112.735 43.8301 112.835 44.5186 112.835 45.2803ZM122.679 46.9941C122.614 47.4043 122.474 47.8057 122.257 48.1982C122.04 48.5908 121.756 48.9424 121.404 49.2529C121.053 49.5635 120.637 49.8125 120.156 50C119.682 50.1934 119.154 50.29 118.574 50.29C117.941 50.29 117.355 50.1875 116.816 49.9824C116.283 49.7715 115.82 49.458 115.428 49.042C115.041 48.6201 114.736 48.0928 114.514 47.46C114.291 46.8271 114.18 46.083 114.18 45.2275C114.18 44.6533 114.241 44.1348 114.364 43.6719C114.493 43.2031 114.663 42.7871 114.874 42.4238C115.091 42.0547 115.34 41.7383 115.621 41.4746C115.902 41.2051 116.198 40.9854 116.509 40.8154C116.825 40.6396 117.147 40.5107 117.476 40.4287C117.804 40.3408 118.12 40.2969 118.425 40.2969C119.069 40.2969 119.658 40.3936 120.191 40.5869C120.725 40.7803 121.182 41.0762 121.562 41.4746C121.949 41.8672 122.248 42.3623 122.459 42.96C122.676 43.5518 122.784 44.249 122.784 45.0518V45.8604H115.902C115.908 46.3174 115.973 46.7334 116.096 47.1084C116.219 47.4775 116.395 47.7939 116.623 48.0576C116.852 48.3213 117.127 48.5264 117.449 48.6729C117.777 48.8135 118.146 48.8838 118.557 48.8838C118.973 48.8838 119.324 48.8252 119.611 48.708C119.898 48.5908 120.139 48.4414 120.332 48.2598C120.525 48.0781 120.681 47.876 120.798 47.6533C120.921 47.4307 121.023 47.2109 121.105 46.9941H122.679ZM121.158 44.5684C121.146 44.1113 121.076 43.7041 120.947 43.3467C120.824 42.9893 120.648 42.6904 120.42 42.4502C120.197 42.2041 119.928 42.0195 119.611 41.8965C119.295 41.7676 118.943 41.7031 118.557 41.7031C118.188 41.7031 117.848 41.7764 117.537 41.9229C117.227 42.0635 116.954 42.2627 116.72 42.5205C116.485 42.7725 116.298 43.0742 116.157 43.4258C116.017 43.7715 115.932 44.1523 115.902 44.5684H121.158ZM124.683 40.5869H130.527V41.9932H126.3V50L124.683 50V40.5869ZM138.517 45.2803C138.517 44.7588 138.458 44.2813 138.341 43.8477C138.224 43.4082 138.048 43.0303 137.813 42.7139C137.579 42.3975 137.289 42.1514 136.943 41.9756C136.604 41.7939 136.208 41.7031 135.757 41.7031C135.306 41.7031 134.91 41.7939 134.57 41.9756C134.23 42.1514 133.943 42.3975 133.709 42.7139C133.475 43.0303 133.299 43.4082 133.182 43.8477C133.064 44.2813 133.006 44.7588 133.006 45.2803C133.006 45.8076 133.064 46.2939 133.182 46.7393C133.299 47.1787 133.475 47.5566 133.709 47.873C133.943 48.1895 134.23 48.4385 134.57 48.6201C134.91 48.7959 135.306 48.8838 135.757 48.8838C136.208 48.8838 136.604 48.7959 136.943 48.6201C137.289 48.4385 137.579 48.1895 137.813 47.873C138.048 47.5566 138.224 47.1787 138.341 46.7393C138.458 46.2939 138.517 45.8076 138.517 45.2803ZM140.134 45.2803C140.134 46.0537 140.034 46.751 139.835 47.3721C139.636 47.9873 139.349 48.5117 138.974 48.9453C138.599 49.3789 138.139 49.7129 137.594 49.9473C137.055 50.1758 136.442 50.29 135.757 50.29C135.071 50.29 134.459 50.1758 133.92 49.9473C133.381 49.7129 132.924 49.3789 132.549 48.9453C132.174 48.5117 131.887 47.9873 131.688 47.3721C131.488 46.751 131.389 46.0537 131.389 45.2803C131.389 44.5186 131.488 43.8301 131.688 43.2148C131.887 42.5996 132.174 42.0752 132.549 41.6416C132.924 41.208 133.381 40.877 133.92 40.6484C134.459 40.4141 135.071 40.2969 135.757 40.2969C136.442 40.2969 137.055 40.4141 137.594 40.6484C138.139 40.877 138.599 41.208 138.974 41.6416C139.349 42.0752 139.636 42.5996 139.835 43.2148C140.034 43.8301 140.134 44.5186 140.134 45.2803ZM152.983 41.9932H148.589V50H146.972V40.5869H154.609V50H152.983V41.9932ZM165.007 46.9941C164.942 47.4043 164.802 47.8057 164.585 48.1982C164.368 48.5908 164.084 48.9424 163.732 49.2529C163.381 49.5635 162.965 49.8125 162.484 50C162.01 50.1934 161.482 50.29 160.902 50.29C160.27 50.29 159.684 50.1875 159.145 49.9824C158.611 49.7715 158.148 49.458 157.756 49.042C157.369 48.6201 157.064 48.0928 156.842 47.46C156.619 46.8271 156.508 46.083 156.508 45.2275C156.508 44.6533 156.569 44.1348 156.692 43.6719C156.821 43.2031 156.991 42.7871 157.202 42.4238C157.419 42.0547 157.668 41.7383 157.949 41.4746C158.23 41.2051 158.526 40.9854 158.837 40.8154C159.153 40.6396 159.476 40.5107 159.804 40.4287C160.132 40.3408 160.448 40.2969 160.753 40.2969C161.397 40.2969 161.986 40.3936 162.52 40.5869C163.053 40.7803 163.51 41.0762 163.891 41.4746C164.277 41.8672 164.576 42.3623 164.787 42.96C165.004 43.5518 165.112 44.249 165.112 45.0518V45.8604H158.23C158.236 46.3174 158.301 46.7334 158.424 47.1084C158.547 47.4775 158.723 47.7939 158.951 48.0576C159.18 48.3213 159.455 48.5264 159.777 48.6729C160.105 48.8135 160.475 48.8838 160.885 48.8838C161.301 48.8838 161.652 48.8252 161.939 48.708C162.227 48.5908 162.467 48.4414 162.66 48.2598C162.854 48.0781 163.009 47.876 163.126 47.6533C163.249 47.4307 163.352 47.2109 163.434 46.9941H165.007ZM163.486 44.5684C163.475 44.1113 163.404 43.7041 163.275 43.3467C163.152 42.9893 162.977 42.6904 162.748 42.4502C162.525 42.2041 162.256 42.0195 161.939 41.8965C161.623 41.7676 161.271 41.7031 160.885 41.7031C160.516 41.7031 160.176 41.7764 159.865 41.9229C159.555 42.0635 159.282 42.2627 159.048 42.5205C158.813 42.7725 158.626 43.0742 158.485 43.4258C158.345 43.7715 158.26 44.1523 158.23 44.5684H163.486ZM166.923 40.5869H168.54V41.8789H168.575C168.681 41.6621 168.812 41.457 168.971 41.2637C169.135 41.0703 169.328 40.9033 169.551 40.7627C169.779 40.6162 170.04 40.502 170.333 40.4199C170.632 40.3379 170.972 40.2969 171.353 40.2969C171.856 40.2969 172.34 40.3936 172.803 40.5869C173.266 40.7803 173.676 41.0703 174.033 41.457C174.391 41.8438 174.675 42.3301 174.886 42.916C175.097 43.4961 175.202 44.1729 175.202 44.9463C175.202 45.9131 175.103 46.7363 174.903 47.416C174.71 48.0898 174.432 48.6406 174.068 49.0684C173.711 49.4961 173.277 49.8066 172.768 50C172.258 50.1934 171.689 50.29 171.062 50.29C170.752 50.29 170.462 50.249 170.192 50.167C169.923 50.085 169.68 49.9795 169.463 49.8506C169.252 49.7158 169.07 49.5693 168.918 49.4111C168.766 49.2471 168.651 49.0889 168.575 48.9365H168.54V53.709H166.923V40.5869ZM168.505 45.3418C168.505 45.8516 168.555 46.3232 168.654 46.7568C168.754 47.1846 168.906 47.5566 169.111 47.873C169.322 48.1895 169.583 48.4385 169.894 48.6201C170.21 48.7959 170.582 48.8838 171.01 48.8838C171.455 48.8838 171.839 48.7959 172.161 48.6201C172.489 48.4385 172.759 48.1895 172.97 47.873C173.181 47.5566 173.336 47.1846 173.436 46.7568C173.535 46.3232 173.585 45.8516 173.585 45.3418C173.585 44.8086 173.535 44.3193 173.436 43.874C173.336 43.4287 173.181 43.0449 172.97 42.7227C172.759 42.4004 172.489 42.1514 172.161 41.9756C171.839 41.7939 171.455 41.7031 171.01 41.7031C170.582 41.7031 170.21 41.7939 169.894 41.9756C169.583 42.1514 169.322 42.4004 169.111 42.7227C168.906 43.0449 168.754 43.4287 168.654 43.874C168.555 44.3193 168.505 44.8086 168.505 45.3418ZM177.03 40.5869H181.038C182.187 40.5869 183.045 40.8008 183.613 41.2285C184.188 41.6563 184.475 42.2773 184.475 43.0918C184.475 43.5254 184.369 43.8916 184.158 44.1904C183.947 44.4893 183.669 44.7529 183.323 44.9814C183.821 45.1689 184.217 45.4385 184.51 45.79C184.803 46.1416 184.949 46.5957 184.949 47.1523C184.949 47.5918 184.876 47.9873 184.729 48.3389C184.583 48.6904 184.36 48.9893 184.062 49.2354C183.763 49.4814 183.382 49.6719 182.919 49.8066C182.462 49.9355 181.92 50 181.293 50H177.03V40.5869ZM178.647 48.708H181.108C181.536 48.708 181.891 48.6758 182.172 48.6113C182.459 48.541 182.688 48.4414 182.857 48.3125C183.027 48.1836 183.147 48.0283 183.218 47.8467C183.288 47.665 183.323 47.46 183.323 47.2314C183.323 47.0029 183.288 46.7979 183.218 46.6162C183.147 46.4287 183.027 46.2734 182.857 46.1504C182.688 46.0215 182.459 45.9248 182.172 45.8604C181.891 45.79 181.536 45.7549 181.108 45.7549H178.647V48.708ZM178.647 44.5684H181.091C181.636 44.5684 182.066 44.46 182.383 44.2432C182.699 44.0264 182.857 43.6895 182.857 43.2324C182.857 42.9746 182.813 42.7607 182.726 42.5908C182.638 42.415 182.521 42.2744 182.374 42.1689C182.228 42.0635 182.061 41.9902 181.873 41.9492C181.691 41.9023 181.504 41.8789 181.311 41.8789H178.647V44.5684ZM193.466 45.2803C193.466 44.7588 193.407 44.2813 193.29 43.8477C193.173 43.4082 192.997 43.0303 192.763 42.7139C192.528 42.3975 192.238 42.1514 191.893 41.9756C191.553 41.7939 191.157 41.7031 190.706 41.7031C190.255 41.7031 189.859 41.7939 189.52 41.9756C189.18 42.1514 188.893 42.3975 188.658 42.7139C188.424 43.0303 188.248 43.4082 188.131 43.8477C188.014 44.2813 187.955 44.7588 187.955 45.2803C187.955 45.8076 188.014 46.2939 188.131 46.7393C188.248 47.1787 188.424 47.5566 188.658 47.873C188.893 48.1895 189.18 48.4385 189.52 48.6201C189.859 48.7959 190.255 48.8838 190.706 48.8838C191.157 48.8838 191.553 48.7959 191.893 48.6201C192.238 48.4385 192.528 48.1895 192.763 47.873C192.997 47.5566 193.173 47.1787 193.29 46.7393C193.407 46.2939 193.466 45.8076 193.466 45.2803ZM195.083 45.2803C195.083 46.0537 194.983 46.751 194.784 47.3721C194.585 47.9873 194.298 48.5117 193.923 48.9453C193.548 49.3789 193.088 49.7129 192.543 49.9473C192.004 50.1758 191.392 50.29 190.706 50.29C190.021 50.29 189.408 50.1758 188.869 49.9473C188.33 49.7129 187.873 49.3789 187.498 48.9453C187.123 48.5117 186.836 47.9873 186.637 47.3721C186.438 46.751 186.338 46.0537 186.338 45.2803C186.338 44.5186 186.438 43.8301 186.637 43.2148C186.836 42.5996 187.123 42.0752 187.498 41.6416C187.873 41.208 188.33 40.877 188.869 40.6484C189.408 40.4141 190.021 40.2969 190.706 40.2969C191.392 40.2969 192.004 40.4141 192.543 40.6484C193.088 40.877 193.548 41.208 193.923 41.6416C194.298 42.0752 194.585 42.5996 194.784 43.2148C194.983 43.8301 195.083 44.5186 195.083 45.2803ZM196.911 40.5869H202.756V41.9932H198.528V50H196.911V40.5869ZM210.745 45.2803C210.745 44.7588 210.687 44.2813 210.569 43.8477C210.452 43.4082 210.276 43.0303 210.042 42.7139C209.808 42.3975 209.518 42.1514 209.172 41.9756C208.832 41.7939 208.437 41.7031 207.985 41.7031C207.534 41.7031 207.139 41.7939 206.799 41.9756C206.459 42.1514 206.172 42.3975 205.938 42.7139C205.703 43.0303 205.527 43.4082 205.41 43.8477C205.293 44.2813 205.234 44.7588 205.234 45.2803C205.234 45.8076 205.293 46.2939 205.41 46.7393C205.527 47.1787 205.703 47.5566 205.938 47.873C206.172 48.1895 206.459 48.4385 206.799 48.6201C207.139 48.7959 207.534 48.8838 207.985 48.8838C208.437 48.8838 208.832 48.7959 209.172 48.6201C209.518 48.4385 209.808 48.1895 210.042 47.873C210.276 47.5566 210.452 47.1787 210.569 46.7393C210.687 46.2939 210.745 45.8076 210.745 45.2803ZM212.362 45.2803C212.362 46.0537 212.263 46.751 212.063 47.3721C211.864 47.9873 211.577 48.5117 211.202 48.9453C210.827 49.3789 210.367 49.7129 209.822 49.9473C209.283 50.1758 208.671 50.29 207.985 50.29C207.3 50.29 206.688 50.1758 206.148 49.9473C205.609 49.7129 205.152 49.3789 204.777 48.9453C204.402 48.5117 204.115 47.9873 203.916 47.3721C203.717 46.751 203.617 46.0537 203.617 45.2803C203.617 44.5186 203.717 43.8301 203.916 43.2148C204.115 42.5996 204.402 42.0752 204.777 41.6416C205.152 41.208 205.609 40.877 206.148 40.6484C206.688 40.4141 207.3 40.2969 207.985 40.2969C208.671 40.2969 209.283 40.4141 209.822 40.6484C210.367 40.877 210.827 41.208 211.202 41.6416C211.577 42.0752 211.864 42.5996 212.063 43.2148C212.263 43.8301 212.362 44.5186 212.362 45.2803ZM218.216 40.5869H219.991L222.496 48.251H222.531L225.036 40.5869H226.812L223.217 50.3779C223.035 50.8701 222.868 51.2979 222.716 51.6611C222.563 52.0244 222.414 52.332 222.268 52.584C222.121 52.8418 221.972 53.0498 221.819 53.208C221.673 53.3662 221.509 53.4893 221.327 53.5771C221.151 53.6709 220.952 53.7324 220.729 53.7617C220.513 53.7969 220.261 53.8145 219.974 53.8145C219.739 53.8145 219.555 53.8027 219.42 53.7793C219.291 53.7617 219.177 53.7383 219.077 53.709V52.25C219.183 52.2852 219.32 52.3203 219.49 52.3555C219.66 52.3906 219.839 52.4082 220.026 52.4082C220.325 52.4082 220.565 52.335 220.747 52.1885C220.935 52.0479 221.078 51.8457 221.178 51.582L221.705 50.2549L218.216 40.5869ZM234.537 41.9932H230.934L230.863 44.252C230.828 45.3945 230.74 46.3496 230.6 47.1172C230.459 47.8789 230.266 48.4912 230.02 48.9541C229.779 49.417 229.486 49.7451 229.141 49.9385C228.795 50.1318 228.399 50.2285 227.954 50.2285C227.79 50.2285 227.646 50.2021 227.523 50.1494C227.406 50.1025 227.315 50.0527 227.251 50V48.5762C227.479 48.6641 227.682 48.708 227.857 48.708C227.98 48.708 228.098 48.6875 228.209 48.6465C228.326 48.6055 228.435 48.5264 228.534 48.4092C228.64 48.292 228.736 48.1279 228.824 47.917C228.912 47.7002 228.988 47.4189 229.053 47.0732C229.123 46.7275 229.179 46.3086 229.22 45.8164C229.267 45.3242 229.299 44.7383 229.316 44.0586L229.396 40.5869H236.154V50H234.537V41.9932ZM238.536 40.5869H240.153V44.1289H242.764C243.279 44.1289 243.739 44.1992 244.144 44.3398C244.548 44.4746 244.891 44.6709 245.172 44.9287C245.453 45.1807 245.667 45.4883 245.813 45.8516C245.966 46.209 246.042 46.6133 246.042 47.0645C246.042 47.5215 245.966 47.9316 245.813 48.2949C245.667 48.6523 245.453 48.96 245.172 49.2178C244.891 49.4697 244.548 49.6631 244.144 49.7979C243.739 49.9326 243.279 50 242.764 50H238.536V40.5869ZM240.153 48.708H242.447C242.729 48.708 242.989 48.6787 243.229 48.6201C243.476 48.5615 243.687 48.4678 243.862 48.3389C244.038 48.2041 244.176 48.0342 244.275 47.8291C244.375 47.6182 244.425 47.3633 244.425 47.0645C244.425 46.7715 244.372 46.5225 244.267 46.3174C244.167 46.1123 244.023 45.9453 243.836 45.8164C243.654 45.6816 243.432 45.585 243.168 45.5264C242.91 45.4619 242.62 45.4297 242.298 45.4297H240.153V48.708ZM255.191 50H253.565V46.2734H251.482C251.107 46.2734 250.779 46.2822 250.498 46.2998C250.223 46.3115 249.988 46.3643 249.795 46.458C249.602 46.5518 249.449 46.6982 249.338 46.8975C249.232 47.0967 249.165 47.3809 249.136 47.75L249.065 48.7607C249.06 48.79 249.054 48.8486 249.048 48.9365C249.042 49.0244 249.03 49.1299 249.013 49.2529C248.995 49.3701 248.972 49.4961 248.942 49.6309C248.913 49.7656 248.878 49.8887 248.837 50H247.053C247.094 49.9473 247.132 49.8945 247.167 49.8418C247.208 49.7832 247.246 49.7041 247.281 49.6045C247.322 49.5049 247.357 49.376 247.387 49.2178C247.422 49.0596 247.454 48.8574 247.483 48.6113L247.589 47.4072C247.624 47.0908 247.665 46.833 247.712 46.6338C247.765 46.4346 247.835 46.2705 247.923 46.1416C248.017 46.0068 248.137 45.8984 248.283 45.8164C248.43 45.7285 248.614 45.6406 248.837 45.5527C247.829 45.1895 247.325 44.4453 247.325 43.3203C247.325 43.0391 247.36 42.7813 247.431 42.5469C247.501 42.3066 247.592 42.0928 247.703 41.9053C247.82 41.7178 247.949 41.5537 248.09 41.4131C248.236 41.2666 248.383 41.1465 248.529 41.0527C248.711 40.9355 248.91 40.8477 249.127 40.7891C249.344 40.7246 249.561 40.6777 249.777 40.6484C250 40.6191 250.217 40.6016 250.428 40.5957C250.639 40.5898 250.832 40.5869 251.008 40.5869H255.191V50ZM253.565 42.0107H251.104C250.894 42.0107 250.712 42.0137 250.56 42.0195C250.407 42.0195 250.272 42.0254 250.155 42.0371C250.044 42.0488 249.941 42.0693 249.848 42.0986C249.754 42.1279 249.657 42.1689 249.558 42.2217C249.353 42.3389 249.194 42.5117 249.083 42.7402C248.978 42.9688 248.925 43.2119 248.925 43.4697C248.925 43.7217 248.963 43.9355 249.039 44.1113C249.115 44.2813 249.215 44.4219 249.338 44.5332C249.467 44.6445 249.607 44.7324 249.76 44.7969C249.918 44.8555 250.076 44.8994 250.234 44.9287C250.398 44.9521 250.557 44.9668 250.709 44.9727C250.861 44.9785 250.993 44.9814 251.104 44.9814H253.565V42.0107Z" fill="black"/>
</svg>
