<svg width="342" height="81" viewBox="0 0 342 81" fill="none" xmlns="http://www.w3.org/2000/svg">
<rect x="1" y="1" width="340" height="79" fill="white" stroke="black" stroke-width="2"/>
<path d="M29.4883 17.9932H26.2451V16.5869L34.3486 16.5869V17.9932L31.1055 17.9932L31.1055 26H29.4883L29.4883 17.9932ZM42.5576 21.2803C42.5576 20.7588 42.499 20.2813 42.3818 19.8477C42.2646 19.4082 42.0889 19.0303 41.8545 18.7139C41.6201 18.3975 41.3301 18.1514 40.9844 17.9756C40.6445 17.7939 40.249 17.7031 39.7979 17.7031C39.3467 17.7031 38.9512 17.7939 38.6113 17.9756C38.2715 18.1514 37.9844 18.3975 37.75 18.7139C37.5156 19.0303 37.3398 19.4082 37.2227 19.8477C37.1055 20.2813 37.0469 20.7588 37.0469 21.2803C37.0469 21.8076 37.1055 22.2939 37.2227 22.7393C37.3398 23.1787 37.5156 23.5566 37.75 23.873C37.9844 24.1895 38.2715 24.4385 38.6113 24.6201C38.9512 24.7959 39.3467 24.8838 39.7979 24.8838C40.249 24.8838 40.6445 24.7959 40.9844 24.6201C41.3301 24.4385 41.6201 24.1895 41.8545 23.873C42.0889 23.5566 42.2646 23.1787 42.3818 22.7393C42.499 22.2939 42.5576 21.8076 42.5576 21.2803ZM44.1748 21.2803C44.1748 22.0537 44.0752 22.751 43.876 23.3721C43.6768 23.9873 43.3896 24.5117 43.0146 24.9453C42.6396 25.3789 42.1797 25.7129 41.6348 25.9473C41.0957 26.1758 40.4834 26.29 39.7979 26.29C39.1123 26.29 38.5 26.1758 37.9609 25.9473C37.4219 25.7129 36.9648 25.3789 36.5898 24.9453C36.2148 24.5117 35.9277 23.9873 35.7285 23.3721C35.5293 22.751 35.4297 22.0537 35.4297 21.2803C35.4297 20.5186 35.5293 19.8301 35.7285 19.2148C35.9277 18.5996 36.2148 18.0752 36.5898 17.6416C36.9648 17.208 37.4219 16.877 37.9609 16.6484C38.5 16.4141 39.1123 16.2969 39.7979 16.2969C40.4834 16.2969 41.0957 16.4141 41.6348 16.6484C42.1797 16.877 42.6396 17.208 43.0146 17.6416C43.3896 18.0752 43.6768 18.5996 43.876 19.2148C44.0752 19.8301 44.1748 20.5186 44.1748 21.2803ZM51.6719 22.2031C51.3203 22.2969 50.9336 22.376 50.5117 22.4404C50.0957 22.5049 49.7061 22.5371 49.3428 22.5371C48.083 22.5371 47.1484 22.2969 46.5391 21.8164C45.9297 21.3301 45.625 20.5654 45.625 19.5225V16.5869H47.2422V19.1973C47.2422 19.5488 47.2832 19.8535 47.3652 20.1113C47.4531 20.3691 47.5938 20.583 47.7871 20.7529C47.9805 20.917 48.2354 21.04 48.5518 21.1221C48.8682 21.2041 49.2578 21.2451 49.7207 21.2451C49.8438 21.2451 49.9902 21.2334 50.1602 21.21C50.3359 21.1865 50.5146 21.1572 50.6963 21.1221C50.8779 21.0869 51.0537 21.0488 51.2236 21.0078C51.3994 20.9609 51.5488 20.9141 51.6719 20.8672V16.5869H53.2979V26H51.6719V22.2031ZM55.6885 16.5869H57.3057V20.3838H61.7002V16.5869H63.3262V26H61.7002V21.79H57.3057V26H55.6885V16.5869ZM72.2822 21.2803C72.2822 20.7588 72.2236 20.2813 72.1064 19.8477C71.9893 19.4082 71.8135 19.0303 71.5791 18.7139C71.3447 18.3975 71.0547 18.1514 70.709 17.9756C70.3691 17.7939 69.9736 17.7031 69.5225 17.7031C69.0713 17.7031 68.6758 17.7939 68.3359 17.9756C67.9961 18.1514 67.709 18.3975 67.4746 18.7139C67.2402 19.0303 67.0645 19.4082 66.9473 19.8477C66.8301 20.2813 66.7715 20.7588 66.7715 21.2803C66.7715 21.8076 66.8301 22.2939 66.9473 22.7393C67.0645 23.1787 67.2402 23.5566 67.4746 23.873C67.709 24.1895 67.9961 24.4385 68.3359 24.6201C68.6758 24.7959 69.0713 24.8838 69.5225 24.8838C69.9736 24.8838 70.3691 24.7959 70.709 24.6201C71.0547 24.4385 71.3447 24.1895 71.5791 23.873C71.8135 23.5566 71.9893 23.1787 72.1064 22.7393C72.2236 22.2939 72.2822 21.8076 72.2822 21.2803ZM73.8994 21.2803C73.8994 22.0537 73.7998 22.751 73.6006 23.3721C73.4014 23.9873 73.1143 24.5117 72.7393 24.9453C72.3643 25.3789 71.9043 25.7129 71.3594 25.9473C70.8203 26.1758 70.208 26.29 69.5225 26.29C68.8369 26.29 68.2246 26.1758 67.6855 25.9473C67.1465 25.7129 66.6895 25.3789 66.3145 24.9453C65.9395 24.5117 65.6523 23.9873 65.4531 23.3721C65.2539 22.751 65.1543 22.0537 65.1543 21.2803C65.1543 20.5186 65.2539 19.8301 65.4531 19.2148C65.6523 18.5996 65.9395 18.0752 66.3145 17.6416C66.6895 17.208 67.1465 16.877 67.6855 16.6484C68.2246 16.4141 68.8369 16.2969 69.5225 16.2969C70.208 16.2969 70.8203 16.4141 71.3594 16.6484C71.9043 16.877 72.3643 17.208 72.7393 17.6416C73.1143 18.0752 73.4014 18.5996 73.6006 19.2148C73.7998 19.8301 73.8994 20.5186 73.8994 21.2803ZM87.0742 17.9932L83.4707 17.9932L83.4004 20.252C83.3652 21.3945 83.2773 22.3496 83.1367 23.1172C82.9961 23.8789 82.8027 24.4912 82.5566 24.9541C82.3164 25.417 82.0234 25.7451 81.6777 25.9385C81.332 26.1318 80.9365 26.2285 80.4912 26.2285C80.3271 26.2285 80.1836 26.2021 80.0605 26.1494C79.9434 26.1025 79.8525 26.0527 79.7881 26V24.5762C80.0166 24.6641 80.2188 24.708 80.3945 24.708C80.5176 24.708 80.6348 24.6875 80.7461 24.6465C80.8633 24.6055 80.9717 24.5264 81.0713 24.4092C81.1768 24.292 81.2734 24.1279 81.3613 23.917C81.4492 23.7002 81.5254 23.4189 81.5898 23.0732C81.6602 22.7275 81.7158 22.3086 81.7568 21.8164C81.8037 21.3242 81.8359 20.7383 81.8535 20.0586L81.9326 16.5869H88.6914V26H87.0742V17.9932ZM91.0732 16.5869H92.6904V23.8027H92.7256L97.3486 16.5869H99.2031V26H97.5771V18.7842H97.542L92.9277 26L91.0732 26V16.5869ZM109.1 17.9932H105.856V16.5869H113.96V17.9932H110.717V26H109.1V17.9932ZM124.595 16.5869H126.212V26H124.595V16.5869ZM115.595 16.5869L117.212 16.5869V20.1289L120.042 20.1289C120.552 20.1289 121.009 20.1992 121.413 20.3398C121.823 20.4746 122.169 20.6709 122.45 20.9287C122.731 21.1807 122.945 21.4883 123.092 21.8516C123.244 22.209 123.32 22.6133 123.32 23.0645C123.32 23.5215 123.244 23.9316 123.092 24.2949C122.945 24.6523 122.731 24.96 122.45 25.2178C122.169 25.4697 121.823 25.6631 121.413 25.7979C121.009 25.9326 120.552 26 120.042 26H115.595V16.5869ZM117.212 24.708H119.717C119.998 24.708 120.259 24.6787 120.499 24.6201C120.745 24.5615 120.956 24.4678 121.132 24.3389C121.308 24.2041 121.445 24.0342 121.545 23.8291C121.645 23.6182 121.694 23.3633 121.694 23.0645C121.694 22.7715 121.642 22.5225 121.536 22.3174C121.437 22.1123 121.293 21.9453 121.105 21.8164C120.924 21.6816 120.701 21.585 120.438 21.5264C120.18 21.4619 119.893 21.4297 119.576 21.4297H117.212V24.708ZM136.047 20.5596H136.864C137.081 20.5596 137.307 20.5332 137.541 20.4805C137.775 20.4277 137.989 20.3457 138.183 20.2344C138.376 20.1172 138.534 19.9678 138.657 19.7861C138.786 19.6045 138.851 19.3848 138.851 19.127C138.851 18.9395 138.81 18.7607 138.728 18.5908C138.651 18.415 138.534 18.2627 138.376 18.1338C138.224 17.999 138.03 17.8936 137.796 17.8174C137.562 17.7412 137.289 17.7031 136.979 17.7031C136.814 17.7031 136.621 17.7266 136.398 17.7734C136.176 17.8203 135.956 17.9082 135.739 18.0371C135.528 18.1602 135.338 18.3389 135.168 18.5732C135.004 18.8018 134.898 19.1006 134.852 19.4697H133.34C133.381 19.0479 133.466 18.6787 133.595 18.3623C133.724 18.04 133.885 17.7617 134.078 17.5273C134.271 17.293 134.488 17.0967 134.729 16.9385C134.975 16.7803 135.227 16.6543 135.484 16.5605C135.748 16.4668 136.012 16.3994 136.275 16.3584C136.539 16.3174 136.791 16.2969 137.031 16.2969C137.453 16.2969 137.869 16.3525 138.279 16.4639C138.689 16.5693 139.056 16.7334 139.378 16.9561C139.706 17.1729 139.97 17.4482 140.169 17.7822C140.368 18.1162 140.468 18.5059 140.468 18.9512C140.468 19.2383 140.427 19.4932 140.345 19.7158C140.263 19.9326 140.154 20.123 140.02 20.2871C139.891 20.4512 139.744 20.5918 139.58 20.709C139.416 20.8203 139.255 20.9141 139.097 20.9902V21.0342C139.261 21.0635 139.442 21.125 139.642 21.2188C139.841 21.3066 140.025 21.4355 140.195 21.6055C140.365 21.7695 140.506 21.9834 140.617 22.2471C140.734 22.5049 140.793 22.8213 140.793 23.1963C140.793 23.7236 140.679 24.1807 140.45 24.5674C140.228 24.9541 139.935 25.2764 139.571 25.5342C139.208 25.7861 138.798 25.9736 138.341 26.0967C137.884 26.2256 137.424 26.29 136.961 26.29C136.363 26.29 135.821 26.2139 135.335 26.0615C134.854 25.9092 134.438 25.6924 134.087 25.4111C133.735 25.1299 133.454 24.793 133.243 24.4004C133.038 24.0078 132.915 23.5742 132.874 23.0996H134.5C134.541 23.4453 134.641 23.7324 134.799 23.9609C134.957 24.1895 135.147 24.3711 135.37 24.5059C135.593 24.6406 135.839 24.7373 136.108 24.7959C136.384 24.8545 136.662 24.8838 136.943 24.8838C137.688 24.8838 138.244 24.7344 138.613 24.4355C138.988 24.1367 139.176 23.7354 139.176 23.2314C139.176 23.0146 139.141 22.8213 139.07 22.6514C139.006 22.4814 138.895 22.3379 138.736 22.2207C138.578 22.0977 138.367 22.0068 138.104 21.9482C137.846 21.8838 137.523 21.8516 137.137 21.8516C137.061 21.8516 136.973 21.8545 136.873 21.8604C136.779 21.8604 136.683 21.8633 136.583 21.8691C136.489 21.875 136.396 21.8838 136.302 21.8955C136.208 21.9014 136.123 21.9072 136.047 21.9131V20.5596ZM142.612 16.5869H144.229V20.3838H148.624V16.5869H150.25V26H148.624V21.79H144.229V26H142.612V16.5869ZM152.614 19.4082C152.632 18.834 152.74 18.3506 152.939 17.958C153.139 17.5596 153.408 17.2373 153.748 16.9912C154.088 16.7451 154.489 16.5693 154.952 16.4639C155.421 16.3525 155.931 16.2969 156.481 16.2969C156.938 16.2969 157.381 16.3438 157.809 16.4375C158.242 16.5313 158.626 16.6836 158.96 16.8945C159.294 17.0996 159.561 17.3691 159.76 17.7031C159.965 18.0313 160.067 18.4326 160.067 18.9072V24.3828C160.067 24.5352 160.108 24.667 160.19 24.7783C160.272 24.8838 160.404 24.9365 160.586 24.9365C160.668 24.9365 160.753 24.9307 160.841 24.9189C160.929 24.9014 161.02 24.8838 161.113 24.8662V25.9824C160.979 26.0176 160.844 26.0498 160.709 26.0791C160.58 26.1084 160.425 26.123 160.243 26.123C159.962 26.123 159.719 26.0996 159.514 26.0527C159.314 26.0059 159.145 25.9297 159.004 25.8242C158.869 25.7129 158.764 25.5723 158.688 25.4023C158.611 25.2266 158.562 25.0127 158.538 24.7607C158.339 24.9775 158.128 25.1797 157.905 25.3672C157.683 25.5488 157.434 25.71 157.158 25.8506C156.883 25.9854 156.575 26.0908 156.235 26.167C155.896 26.249 155.512 26.29 155.084 26.29C154.721 26.29 154.366 26.2314 154.021 26.1143C153.681 25.9971 153.373 25.8242 153.098 25.5957C152.828 25.3672 152.611 25.0859 152.447 24.752C152.283 24.4121 152.201 24.0195 152.201 23.5742C152.201 23.0879 152.283 22.6689 152.447 22.3174C152.611 21.96 152.825 21.6641 153.089 21.4297C153.353 21.1895 153.654 21.0049 153.994 20.876C154.334 20.7471 154.68 20.6621 155.031 20.6211L157.677 20.2959C157.929 20.2666 158.125 20.1699 158.266 20.0059C158.412 19.8359 158.485 19.5664 158.485 19.1973C158.485 18.6289 158.298 18.2217 157.923 17.9756C157.554 17.7236 157.021 17.5977 156.323 17.5977C155.608 17.5977 155.075 17.75 154.724 18.0547C154.372 18.3535 154.173 18.8047 154.126 19.4082H152.614ZM158.45 21.21C158.321 21.3037 158.16 21.3828 157.967 21.4473C157.779 21.5059 157.571 21.5557 157.343 21.5967C157.114 21.6377 156.871 21.6758 156.613 21.7109C156.355 21.7402 156.098 21.7725 155.84 21.8076C155.547 21.8486 155.277 21.9072 155.031 21.9834C154.785 22.0596 154.571 22.1592 154.39 22.2822C154.208 22.4053 154.067 22.5547 153.968 22.7305C153.868 22.9004 153.818 23.1025 153.818 23.3369C153.818 23.6064 153.859 23.8438 153.941 24.0488C154.029 24.2539 154.146 24.4268 154.293 24.5674C154.445 24.708 154.627 24.8135 154.838 24.8838C155.049 24.9541 155.28 24.9893 155.532 24.9893C155.69 24.9893 155.872 24.9717 156.077 24.9365C156.282 24.8955 156.493 24.8369 156.71 24.7607C156.927 24.6846 157.138 24.5879 157.343 24.4707C157.554 24.3477 157.741 24.2012 157.905 24.0313C158.069 23.8613 158.201 23.668 158.301 23.4512C158.4 23.2344 158.45 22.9912 158.45 22.7217V21.21ZM170.667 22.9941C170.603 23.4043 170.462 23.8057 170.245 24.1982C170.028 24.5908 169.744 24.9424 169.393 25.2529C169.041 25.5635 168.625 25.8125 168.145 26C167.67 26.1934 167.143 26.29 166.562 26.29C165.93 26.29 165.344 26.1875 164.805 25.9824C164.271 25.7715 163.809 25.458 163.416 25.042C163.029 24.6201 162.725 24.0928 162.502 23.46C162.279 22.8271 162.168 22.083 162.168 21.2275C162.168 20.6533 162.229 20.1348 162.353 19.6719C162.481 19.2031 162.651 18.7871 162.862 18.4238C163.079 18.0547 163.328 17.7383 163.609 17.4746C163.891 17.2051 164.187 16.9854 164.497 16.8154C164.813 16.6396 165.136 16.5107 165.464 16.4287C165.792 16.3408 166.108 16.2969 166.413 16.2969C167.058 16.2969 167.646 16.3936 168.18 16.5869C168.713 16.7803 169.17 17.0762 169.551 17.4746C169.938 17.8672 170.236 18.3623 170.447 18.96C170.664 19.5518 170.772 20.249 170.772 21.0518V21.8604L163.891 21.8604C163.896 22.3174 163.961 22.7334 164.084 23.1084C164.207 23.4775 164.383 23.7939 164.611 24.0576C164.84 24.3213 165.115 24.5264 165.438 24.6729C165.766 24.8135 166.135 24.8838 166.545 24.8838C166.961 24.8838 167.312 24.8252 167.6 24.708C167.887 24.5908 168.127 24.4414 168.32 24.2598C168.514 24.0781 168.669 23.876 168.786 23.6533C168.909 23.4307 169.012 23.2109 169.094 22.9941H170.667ZM169.146 20.5684C169.135 20.1113 169.064 19.7041 168.936 19.3467C168.812 18.9893 168.637 18.6904 168.408 18.4502C168.186 18.2041 167.916 18.0195 167.6 17.8965C167.283 17.7676 166.932 17.7031 166.545 17.7031C166.176 17.7031 165.836 17.7764 165.525 17.9229C165.215 18.0635 164.942 18.2627 164.708 18.5205C164.474 18.7725 164.286 19.0742 164.146 19.4258C164.005 19.7715 163.92 20.1523 163.891 20.5684L169.146 20.5684ZM172.671 16.5869H174.288V24.5938L177.681 24.5938V16.5869L179.298 16.5869V24.5938H182.682V16.5869H184.299V26L172.671 26V16.5869ZM186.681 16.5869H188.298V20.1289H190.908C191.424 20.1289 191.884 20.1992 192.288 20.3398C192.692 20.4746 193.035 20.6709 193.316 20.9287C193.598 21.1807 193.812 21.4883 193.958 21.8516C194.11 22.209 194.187 22.6133 194.187 23.0645C194.187 23.5215 194.11 23.9316 193.958 24.2949C193.812 24.6523 193.598 24.96 193.316 25.2178C193.035 25.4697 192.692 25.6631 192.288 25.7979C191.884 25.9326 191.424 26 190.908 26H186.681V16.5869ZM188.298 24.708H190.592C190.873 24.708 191.134 24.6787 191.374 24.6201C191.62 24.5615 191.831 24.4678 192.007 24.3389C192.183 24.2041 192.32 24.0342 192.42 23.8291C192.52 23.6182 192.569 23.3633 192.569 23.0645C192.569 22.7715 192.517 22.5225 192.411 22.3174C192.312 22.1123 192.168 21.9453 191.98 21.8164C191.799 21.6816 191.576 21.585 191.312 21.5264C191.055 21.4619 190.765 21.4297 190.442 21.4297H188.298V24.708ZM200.69 16.5869H202.308V21.1396L207.062 16.5869H209.181L204.76 20.7441L209.251 26H207.168L203.494 21.7285L202.308 22.7217V26H200.69V16.5869ZM210.534 19.4082C210.552 18.834 210.66 18.3506 210.859 17.958C211.059 17.5596 211.328 17.2373 211.668 16.9912C212.008 16.7451 212.409 16.5693 212.872 16.4639C213.341 16.3525 213.851 16.2969 214.401 16.2969C214.858 16.2969 215.301 16.3438 215.729 16.4375C216.162 16.5313 216.546 16.6836 216.88 16.8945C217.214 17.0996 217.48 17.3691 217.68 17.7031C217.885 18.0313 217.987 18.4326 217.987 18.9072V24.3828C217.987 24.5352 218.028 24.667 218.11 24.7783C218.192 24.8838 218.324 24.9365 218.506 24.9365C218.588 24.9365 218.673 24.9307 218.761 24.9189C218.849 24.9014 218.939 24.8838 219.033 24.8662V25.9824C218.898 26.0176 218.764 26.0498 218.629 26.0791C218.5 26.1084 218.345 26.123 218.163 26.123C217.882 26.123 217.639 26.0996 217.434 26.0527C217.234 26.0059 217.064 25.9297 216.924 25.8242C216.789 25.7129 216.684 25.5723 216.607 25.4023C216.531 25.2266 216.481 25.0127 216.458 24.7607C216.259 24.9775 216.048 25.1797 215.825 25.3672C215.603 25.5488 215.354 25.71 215.078 25.8506C214.803 25.9854 214.495 26.0908 214.155 26.167C213.815 26.249 213.432 26.29 213.004 26.29C212.641 26.29 212.286 26.2314 211.94 26.1143C211.601 25.9971 211.293 25.8242 211.018 25.5957C210.748 25.3672 210.531 25.0859 210.367 24.752C210.203 24.4121 210.121 24.0195 210.121 23.5742C210.121 23.0879 210.203 22.6689 210.367 22.3174C210.531 21.96 210.745 21.6641 211.009 21.4297C211.272 21.1895 211.574 21.0049 211.914 20.876C212.254 20.7471 212.6 20.6621 212.951 20.6211L215.597 20.2959C215.849 20.2666 216.045 20.1699 216.186 20.0059C216.332 19.8359 216.405 19.5664 216.405 19.1973C216.405 18.6289 216.218 18.2217 215.843 17.9756C215.474 17.7236 214.94 17.5977 214.243 17.5977C213.528 17.5977 212.995 17.75 212.644 18.0547C212.292 18.3535 212.093 18.8047 212.046 19.4082H210.534ZM216.37 21.21C216.241 21.3037 216.08 21.3828 215.887 21.4473C215.699 21.5059 215.491 21.5557 215.263 21.5967C215.034 21.6377 214.791 21.6758 214.533 21.7109C214.275 21.7402 214.018 21.7725 213.76 21.8076C213.467 21.8486 213.197 21.9072 212.951 21.9834C212.705 22.0596 212.491 22.1592 212.31 22.2822C212.128 22.4053 211.987 22.5547 211.888 22.7305C211.788 22.9004 211.738 23.1025 211.738 23.3369C211.738 23.6064 211.779 23.8438 211.861 24.0488C211.949 24.2539 212.066 24.4268 212.213 24.5674C212.365 24.708 212.547 24.8135 212.758 24.8838C212.969 24.9541 213.2 24.9893 213.452 24.9893C213.61 24.9893 213.792 24.9717 213.997 24.9365C214.202 24.8955 214.413 24.8369 214.63 24.7607C214.847 24.6846 215.058 24.5879 215.263 24.4707C215.474 24.3477 215.661 24.2012 215.825 24.0313C215.989 23.8613 216.121 23.668 216.221 23.4512C216.32 23.2344 216.37 22.9912 216.37 22.7217V21.21ZM220.571 16.5869L222.188 16.5869V21.1396L226.943 16.5869H229.062L224.641 20.7441L229.132 26H227.049L223.375 21.7285L222.188 22.7217V26H220.571V16.5869ZM235.442 16.5869H239.45C240.599 16.5869 241.457 16.8008 242.025 17.2285C242.6 17.6563 242.887 18.2773 242.887 19.0918C242.887 19.5254 242.781 19.8916 242.57 20.1904C242.359 20.4893 242.081 20.7529 241.735 20.9814C242.233 21.1689 242.629 21.4385 242.922 21.79C243.215 22.1416 243.361 22.5957 243.361 23.1523C243.361 23.5918 243.288 23.9873 243.142 24.3389C242.995 24.6904 242.772 24.9893 242.474 25.2354C242.175 25.4814 241.794 25.6719 241.331 25.8066C240.874 25.9355 240.332 26 239.705 26H235.442V16.5869ZM237.06 24.708H239.521C239.948 24.708 240.303 24.6758 240.584 24.6113C240.871 24.541 241.1 24.4414 241.27 24.3125C241.439 24.1836 241.56 24.0283 241.63 23.8467C241.7 23.665 241.735 23.46 241.735 23.2314C241.735 23.0029 241.7 22.7979 241.63 22.6162C241.56 22.4287 241.439 22.2734 241.27 22.1504C241.1 22.0215 240.871 21.9248 240.584 21.8604C240.303 21.79 239.948 21.7549 239.521 21.7549H237.06V24.708ZM237.06 20.5684H239.503C240.048 20.5684 240.479 20.46 240.795 20.2432C241.111 20.0264 241.27 19.6895 241.27 19.2324C241.27 18.9746 241.226 18.7607 241.138 18.5908C241.05 18.415 240.933 18.2744 240.786 18.1689C240.64 18.0635 240.473 17.9902 240.285 17.9492C240.104 17.9023 239.916 17.8789 239.723 17.8789H237.06V20.5684ZM254.304 16.5869H255.921V26H254.304V16.5869ZM245.304 16.5869H246.921V20.1289H249.751C250.261 20.1289 250.718 20.1992 251.122 20.3398C251.532 20.4746 251.878 20.6709 252.159 20.9287C252.44 21.1807 252.654 21.4883 252.801 21.8516C252.953 22.209 253.029 22.6133 253.029 23.0645C253.029 23.5215 252.953 23.9316 252.801 24.2949C252.654 24.6523 252.44 24.96 252.159 25.2178C251.878 25.4697 251.532 25.6631 251.122 25.7979C250.718 25.9326 250.261 26 249.751 26L245.304 26V16.5869ZM246.921 24.708H249.426C249.707 24.708 249.968 24.6787 250.208 24.6201C250.454 24.5615 250.665 24.4678 250.841 24.3389C251.017 24.2041 251.154 24.0342 251.254 23.8291C251.354 23.6182 251.403 23.3633 251.403 23.0645C251.403 22.7715 251.351 22.5225 251.245 22.3174C251.146 22.1123 251.002 21.9453 250.814 21.8164C250.633 21.6816 250.41 21.585 250.146 21.5264C249.889 21.4619 249.602 21.4297 249.285 21.4297H246.921V24.708ZM258.312 16.5869H264.156V17.9932L259.929 17.9932V26H258.312V16.5869ZM271.908 17.9932H268.305L268.234 20.252C268.199 21.3945 268.111 22.3496 267.971 23.1172C267.83 23.8789 267.637 24.4912 267.391 24.9541C267.15 25.417 266.857 25.7451 266.512 25.9385C266.166 26.1318 265.771 26.2285 265.325 26.2285C265.161 26.2285 265.018 26.2021 264.895 26.1494C264.777 26.1025 264.687 26.0527 264.622 26V24.5762C264.851 24.6641 265.053 24.708 265.229 24.708C265.352 24.708 265.469 24.6875 265.58 24.6465C265.697 24.6055 265.806 24.5264 265.905 24.4092C266.011 24.292 266.107 24.1279 266.195 23.917C266.283 23.7002 266.359 23.4189 266.424 23.0732C266.494 22.7275 266.55 22.3086 266.591 21.8164C266.638 21.3242 266.67 20.7383 266.688 20.0586L266.767 16.5869H273.525V26H271.908V17.9932ZM283.562 26H281.937V22.2734H279.854C279.479 22.2734 279.15 22.2822 278.869 22.2998C278.594 22.3115 278.359 22.3643 278.166 22.458C277.973 22.5518 277.82 22.6982 277.709 22.8975C277.604 23.0967 277.536 23.3809 277.507 23.75L277.437 24.7607C277.431 24.79 277.425 24.8486 277.419 24.9365C277.413 25.0244 277.401 25.1299 277.384 25.2529C277.366 25.3701 277.343 25.4961 277.313 25.6309C277.284 25.7656 277.249 25.8887 277.208 26H275.424C275.465 25.9473 275.503 25.8945 275.538 25.8418C275.579 25.7832 275.617 25.7041 275.652 25.6045C275.693 25.5049 275.729 25.376 275.758 25.2178C275.793 25.0596 275.825 24.8574 275.854 24.6113L275.96 23.4072C275.995 23.0908 276.036 22.833 276.083 22.6338C276.136 22.4346 276.206 22.2705 276.294 22.1416C276.388 22.0068 276.508 21.8984 276.654 21.8164C276.801 21.7285 276.985 21.6406 277.208 21.5527C276.2 21.1895 275.696 20.4453 275.696 19.3203C275.696 19.0391 275.731 18.7813 275.802 18.5469C275.872 18.3066 275.963 18.0928 276.074 17.9053C276.191 17.7178 276.32 17.5537 276.461 17.4131C276.607 17.2666 276.754 17.1465 276.9 17.0527C277.082 16.9355 277.281 16.8477 277.498 16.7891C277.715 16.7246 277.932 16.6777 278.148 16.6484C278.371 16.6191 278.588 16.6016 278.799 16.5957C279.01 16.5898 279.203 16.5869 279.379 16.5869H283.562V26ZM281.937 18.0107H279.476C279.265 18.0107 279.083 18.0137 278.931 18.0195C278.778 18.0195 278.644 18.0254 278.526 18.0371C278.415 18.0488 278.312 18.0693 278.219 18.0986C278.125 18.1279 278.028 18.1689 277.929 18.2217C277.724 18.3389 277.565 18.5117 277.454 18.7402C277.349 18.9688 277.296 19.2119 277.296 19.4697C277.296 19.7217 277.334 19.9355 277.41 20.1113C277.486 20.2813 277.586 20.4219 277.709 20.5332C277.838 20.6445 277.979 20.7324 278.131 20.7969C278.289 20.8555 278.447 20.8994 278.605 20.9287C278.77 20.9521 278.928 20.9668 279.08 20.9727C279.232 20.9785 279.364 20.9814 279.476 20.9814H281.937V18.0107ZM293.811 26L286.533 26V28.3027H285.021V24.5938H286.261C286.519 23.9609 286.724 23.3164 286.876 22.6602C287.028 21.998 287.146 21.333 287.228 20.665C287.31 19.9912 287.362 19.3145 287.386 18.6348C287.409 17.9551 287.421 17.2725 287.421 16.5869L293.995 16.5869V24.5938H295.322V28.3027H293.811V26ZM292.378 24.5938V17.9932H288.968C288.927 18.5264 288.883 19.0742 288.836 19.6367C288.795 20.1992 288.736 20.7646 288.66 21.333C288.59 21.8955 288.493 22.4521 288.37 23.0029C288.253 23.5537 288.098 24.084 287.904 24.5938H292.378ZM296.878 16.5869H298.495V23.8027H298.53L303.153 16.5869H305.008V26H303.382V18.7842H303.347L298.732 26H296.878V16.5869ZM309.895 17.9932L306.651 17.9932V16.5869L314.755 16.5869V17.9932H311.512V26H309.895V17.9932ZM17.043 37.5869H18.6602L18.6602 41.3838H23.0547V37.5869H24.6807V47H23.0547V42.79H18.6602V47H17.043L17.043 37.5869ZM27.0449 40.4082C27.0625 39.834 27.1709 39.3506 27.3701 38.958C27.5693 38.5596 27.8389 38.2373 28.1787 37.9912C28.5186 37.7451 28.9199 37.5693 29.3828 37.4639C29.8516 37.3525 30.3613 37.2969 30.9121 37.2969C31.3691 37.2969 31.8115 37.3438 32.2393 37.4375C32.6729 37.5312 33.0566 37.6836 33.3906 37.8945C33.7246 38.0996 33.9912 38.3691 34.1904 38.7031C34.3955 39.0312 34.498 39.4326 34.498 39.9072L34.498 45.3828C34.498 45.5352 34.5391 45.667 34.6211 45.7783C34.7031 45.8838 34.835 45.9365 35.0166 45.9365C35.0986 45.9365 35.1836 45.9307 35.2715 45.9189C35.3594 45.9014 35.4502 45.8838 35.5439 45.8662V46.9824C35.4092 47.0176 35.2744 47.0498 35.1396 47.0791C35.0107 47.1084 34.8555 47.123 34.6738 47.123C34.3926 47.123 34.1494 47.0996 33.9443 47.0527C33.7451 47.0059 33.5752 46.9297 33.4346 46.8242C33.2998 46.7129 33.1943 46.5723 33.1182 46.4023C33.042 46.2266 32.9922 46.0127 32.9687 45.7607C32.7695 45.9775 32.5586 46.1797 32.3359 46.3672C32.1133 46.5488 31.8643 46.71 31.5889 46.8506C31.3135 46.9854 31.0059 47.0908 30.666 47.167C30.3262 47.249 29.9424 47.29 29.5146 47.29C29.1514 47.29 28.7969 47.2314 28.4512 47.1143C28.1113 46.9971 27.8037 46.8242 27.5283 46.5957C27.2588 46.3672 27.042 46.0859 26.8779 45.752C26.7139 45.4121 26.6318 45.0195 26.6318 44.5742C26.6318 44.0879 26.7139 43.6689 26.8779 43.3174C27.042 42.96 27.2559 42.6641 27.5195 42.4297C27.7832 42.1895 28.085 42.0049 28.4248 41.876C28.7646 41.7471 29.1104 41.6621 29.4619 41.6211L32.1074 41.2959C32.3594 41.2666 32.5557 41.1699 32.6963 41.0059C32.8428 40.8359 32.916 40.5664 32.916 40.1973C32.916 39.6289 32.7285 39.2217 32.3535 38.9756C31.9844 38.7236 31.4512 38.5977 30.7539 38.5977C30.0391 38.5977 29.5059 38.75 29.1543 39.0547C28.8027 39.3535 28.6035 39.8047 28.5566 40.4082H27.0449ZM32.8809 42.21C32.752 42.3037 32.5908 42.3828 32.3975 42.4473C32.21 42.5059 32.002 42.5557 31.7734 42.5967C31.5449 42.6377 31.3018 42.6758 31.0439 42.7109C30.7861 42.7402 30.5283 42.7725 30.2705 42.8076C29.9775 42.8486 29.708 42.9072 29.4619 42.9834C29.2158 43.0596 29.002 43.1592 28.8203 43.2822C28.6387 43.4053 28.498 43.5547 28.3984 43.7305C28.2988 43.9004 28.249 44.1025 28.249 44.3369C28.249 44.6064 28.29 44.8438 28.3721 45.0488C28.46 45.2539 28.5771 45.4268 28.7236 45.5674C28.876 45.708 29.0576 45.8135 29.2686 45.8838C29.4795 45.9541 29.7109 45.9893 29.9629 45.9893C30.1211 45.9893 30.3027 45.9717 30.5078 45.9365C30.7129 45.8955 30.9238 45.8369 31.1406 45.7607C31.3574 45.6846 31.5684 45.5879 31.7734 45.4707C31.9844 45.3477 32.1719 45.2012 32.3359 45.0312C32.5 44.8613 32.6318 44.668 32.7314 44.4512C32.8311 44.2344 32.8809 43.9912 32.8809 43.7217V42.21ZM44.4824 43.6865C44.459 43.915 44.4121 44.1641 44.3418 44.4336C44.2773 44.7031 44.1807 44.9727 44.0518 45.2422C43.9229 45.5059 43.7559 45.7607 43.5508 46.0068C43.3516 46.2529 43.1055 46.4727 42.8125 46.666C42.5254 46.8535 42.1855 47.0029 41.793 47.1143C41.4004 47.2314 40.9521 47.29 40.4482 47.29C40.1729 47.29 39.8828 47.2549 39.5781 47.1846C39.2734 47.1201 38.9746 47.0088 38.6816 46.8506C38.3945 46.6924 38.1191 46.4902 37.8555 46.2441C37.5977 45.9922 37.3691 45.6816 37.1699 45.3125C36.9766 44.9434 36.8213 44.5156 36.7041 44.0293C36.5869 43.5371 36.5283 42.9746 36.5283 42.3418C36.5283 41.5625 36.6396 40.8623 36.8623 40.2412C37.085 39.6143 37.3809 39.084 37.75 38.6504C38.125 38.2168 38.5586 37.8828 39.0508 37.6484C39.5488 37.4141 40.0703 37.2969 40.6152 37.2969C41.1074 37.2969 41.541 37.3496 41.916 37.4551C42.2969 37.5605 42.6279 37.7012 42.9092 37.877C43.1904 38.0527 43.4277 38.2578 43.6211 38.4922C43.8145 38.7207 43.9697 38.9639 44.0869 39.2217C44.21 39.4736 44.3008 39.7314 44.3594 39.9951C44.4238 40.2588 44.4648 40.5107 44.4824 40.751H42.9707C42.8887 40.1123 42.666 39.6113 42.3027 39.248C41.9453 38.8848 41.4414 38.7031 40.791 38.7031C40.3457 38.7031 39.9561 38.7939 39.6221 38.9756C39.2939 39.1572 39.0186 39.4121 38.7959 39.7402C38.5791 40.0625 38.415 40.4551 38.3037 40.918C38.1982 41.375 38.1455 41.8789 38.1455 42.4297C38.1455 43.0508 38.2041 43.5869 38.3213 44.0381C38.4385 44.4834 38.6055 44.8525 38.8223 45.1455C39.0391 45.4326 39.3027 45.6465 39.6133 45.7871C39.9297 45.9219 40.2871 45.9893 40.6855 45.9893C40.9668 45.9893 41.2334 45.9395 41.4854 45.8398C41.7373 45.7344 41.9629 45.585 42.1621 45.3916C42.3613 45.1924 42.5312 44.9492 42.6719 44.6621C42.8125 44.375 42.9121 44.0498 42.9707 43.6865H44.4824ZM48.5869 38.9932L45.3438 38.9932V37.5869L53.4473 37.5869V38.9932H50.2041V47H48.5869V38.9932ZM61.6562 42.2803C61.6562 41.7588 61.5977 41.2813 61.4805 40.8477C61.3633 40.4082 61.1875 40.0303 60.9531 39.7139C60.7187 39.3975 60.4287 39.1514 60.083 38.9756C59.7432 38.7939 59.3477 38.7031 58.8965 38.7031C58.4453 38.7031 58.0498 38.7939 57.71 38.9756C57.3701 39.1514 57.083 39.3975 56.8486 39.7139C56.6143 40.0303 56.4385 40.4082 56.3213 40.8477C56.2041 41.2813 56.1455 41.7588 56.1455 42.2803C56.1455 42.8076 56.2041 43.2939 56.3213 43.7393C56.4385 44.1787 56.6143 44.5566 56.8486 44.873C57.083 45.1895 57.3701 45.4385 57.71 45.6201C58.0498 45.7959 58.4453 45.8838 58.8965 45.8838C59.3477 45.8838 59.7432 45.7959 60.083 45.6201C60.4287 45.4385 60.7187 45.1895 60.9531 44.873C61.1875 44.5566 61.3633 44.1787 61.4805 43.7393C61.5977 43.2939 61.6562 42.8076 61.6562 42.2803ZM63.2734 42.2803C63.2734 43.0537 63.1738 43.751 62.9746 44.3721C62.7754 44.9873 62.4883 45.5117 62.1133 45.9453C61.7383 46.3789 61.2783 46.7129 60.7334 46.9473C60.1943 47.1758 59.582 47.29 58.8965 47.29C58.2109 47.29 57.5986 47.1758 57.0596 46.9473C56.5205 46.7129 56.0635 46.3789 55.6885 45.9453C55.3135 45.5117 55.0264 44.9873 54.8271 44.3721C54.6279 43.751 54.5283 43.0537 54.5283 42.2803C54.5283 41.5186 54.6279 40.8301 54.8271 40.2148C55.0264 39.5996 55.3135 39.0752 55.6885 38.6416C56.0635 38.208 56.5205 37.877 57.0596 37.6484C57.5986 37.4141 58.2109 37.2969 58.8965 37.2969C59.582 37.2969 60.1943 37.4141 60.7334 37.6484C61.2783 37.877 61.7383 38.208 62.1133 38.6416C62.4883 39.0752 62.7754 39.5996 62.9746 40.2148C63.1738 40.8301 63.2734 41.5186 63.2734 42.2803ZM72.7568 47H71.1309V43.2734H69.0479C68.6729 43.2734 68.3447 43.2822 68.0635 43.2998C67.7881 43.3115 67.5537 43.3643 67.3604 43.458C67.167 43.5518 67.0146 43.6982 66.9033 43.8975C66.7979 44.0967 66.7305 44.3809 66.7012 44.75L66.6309 45.7607C66.625 45.79 66.6191 45.8486 66.6133 45.9365C66.6074 46.0244 66.5957 46.1299 66.5781 46.2529C66.5605 46.3701 66.5371 46.4961 66.5078 46.6309C66.4785 46.7656 66.4434 46.8887 66.4023 47H64.6182C64.6592 46.9473 64.6973 46.8945 64.7324 46.8418C64.7734 46.7832 64.8115 46.7041 64.8467 46.6045C64.8877 46.5049 64.9229 46.376 64.9521 46.2178C64.9873 46.0596 65.0195 45.8574 65.0488 45.6113L65.1543 44.4072C65.1895 44.0908 65.2305 43.833 65.2773 43.6338C65.3301 43.4346 65.4004 43.2705 65.4883 43.1416C65.582 43.0068 65.7021 42.8984 65.8486 42.8164C65.9951 42.7285 66.1797 42.6406 66.4023 42.5527C65.3945 42.1895 64.8906 41.4453 64.8906 40.3203C64.8906 40.0391 64.9258 39.7813 64.9961 39.5469C65.0664 39.3066 65.1572 39.0928 65.2686 38.9053C65.3857 38.7178 65.5146 38.5537 65.6553 38.4131C65.8018 38.2666 65.9482 38.1465 66.0947 38.0527C66.2764 37.9355 66.4756 37.8477 66.6924 37.7891C66.9092 37.7246 67.126 37.6777 67.3428 37.6484C67.5654 37.6191 67.7822 37.6016 67.9932 37.5957C68.2041 37.5898 68.3975 37.5869 68.5732 37.5869L72.7568 37.5869V47ZM71.1309 39.0107L68.6699 39.0107C68.459 39.0107 68.2773 39.0137 68.125 39.0195C67.9727 39.0195 67.8379 39.0254 67.7207 39.0371C67.6094 39.0488 67.5068 39.0693 67.4131 39.0986C67.3193 39.1279 67.2227 39.1689 67.123 39.2217C66.918 39.3389 66.7598 39.5117 66.6484 39.7402C66.543 39.9688 66.4902 40.2119 66.4902 40.4697C66.4902 40.7217 66.5283 40.9355 66.6045 41.1113C66.6807 41.2813 66.7803 41.4219 66.9033 41.5332C67.0322 41.6445 67.1729 41.7324 67.3252 41.7969C67.4834 41.8555 67.6416 41.8994 67.7998 41.9287C67.9639 41.9521 68.1221 41.9668 68.2744 41.9727C68.4268 41.9785 68.5586 41.9814 68.6699 41.9814H71.1309V39.0107ZM86.4414 47L75.1562 47V37.5869H76.7734V45.5938H80.166V37.5869H81.7832V45.5938H85.167V37.5869H86.7842V45.5938H87.9531V49.3027H86.4414V47ZM89.4121 40.4082C89.4297 39.834 89.5381 39.3506 89.7373 38.958C89.9365 38.5596 90.2061 38.2373 90.5459 37.9912C90.8857 37.7451 91.2871 37.5693 91.75 37.4639C92.2188 37.3525 92.7285 37.2969 93.2793 37.2969C93.7363 37.2969 94.1787 37.3438 94.6064 37.4375C95.04 37.5313 95.4238 37.6836 95.7578 37.8945C96.0918 38.0996 96.3584 38.3691 96.5576 38.7031C96.7627 39.0313 96.8652 39.4326 96.8652 39.9072V45.3828C96.8652 45.5352 96.9062 45.667 96.9883 45.7783C97.0703 45.8838 97.2021 45.9365 97.3838 45.9365C97.4658 45.9365 97.5508 45.9307 97.6387 45.9189C97.7266 45.9014 97.8174 45.8838 97.9111 45.8662V46.9824C97.7764 47.0176 97.6416 47.0498 97.5068 47.0791C97.3779 47.1084 97.2227 47.123 97.041 47.123C96.7598 47.123 96.5166 47.0996 96.3115 47.0527C96.1123 47.0059 95.9424 46.9297 95.8018 46.8242C95.667 46.7129 95.5615 46.5723 95.4854 46.4023C95.4092 46.2266 95.3594 46.0127 95.3359 45.7607C95.1367 45.9775 94.9258 46.1797 94.7031 46.3672C94.4805 46.5488 94.2314 46.71 93.9561 46.8506C93.6807 46.9854 93.373 47.0908 93.0332 47.167C92.6934 47.249 92.3096 47.29 91.8818 47.29C91.5186 47.29 91.1641 47.2314 90.8184 47.1143C90.4785 46.9971 90.1709 46.8242 89.8955 46.5957C89.626 46.3672 89.4092 46.0859 89.2451 45.752C89.0811 45.4121 88.999 45.0195 88.999 44.5742C88.999 44.0879 89.0811 43.6689 89.2451 43.3174C89.4092 42.96 89.623 42.6641 89.8867 42.4297C90.1504 42.1895 90.4521 42.0049 90.792 41.876C91.1318 41.7471 91.4775 41.6621 91.8291 41.6211L94.4746 41.2959C94.7266 41.2666 94.9229 41.1699 95.0635 41.0059C95.21 40.8359 95.2832 40.5664 95.2832 40.1973C95.2832 39.6289 95.0957 39.2217 94.7207 38.9756C94.3516 38.7236 93.8184 38.5977 93.1211 38.5977C92.4062 38.5977 91.873 38.75 91.5215 39.0547C91.1699 39.3535 90.9707 39.8047 90.9238 40.4082H89.4121ZM95.248 42.21C95.1191 42.3037 94.958 42.3828 94.7646 42.4473C94.5771 42.5059 94.3691 42.5557 94.1406 42.5967C93.9121 42.6377 93.6689 42.6758 93.4111 42.7109C93.1533 42.7402 92.8955 42.7725 92.6377 42.8076C92.3447 42.8486 92.0752 42.9072 91.8291 42.9834C91.583 43.0596 91.3691 43.1592 91.1875 43.2822C91.0059 43.4053 90.8652 43.5547 90.7656 43.7305C90.666 43.9004 90.6162 44.1025 90.6162 44.3369C90.6162 44.6064 90.6572 44.8438 90.7393 45.0488C90.8271 45.2539 90.9443 45.4268 91.0908 45.5674C91.2432 45.708 91.4248 45.8135 91.6357 45.8838C91.8467 45.9541 92.0781 45.9893 92.3301 45.9893C92.4883 45.9893 92.6699 45.9717 92.875 45.9365C93.0801 45.8955 93.291 45.8369 93.5078 45.7607C93.7246 45.6846 93.9355 45.5879 94.1406 45.4707C94.3516 45.3477 94.5391 45.2012 94.7031 45.0313C94.8672 44.8613 94.999 44.668 95.0986 44.4512C95.1982 44.2344 95.248 43.9912 95.248 43.7217V42.21ZM107.104 47H105.479V43.2734H103.396C103.021 43.2734 102.692 43.2822 102.411 43.2998C102.136 43.3115 101.901 43.3643 101.708 43.458C101.515 43.5518 101.362 43.6982 101.251 43.8975C101.146 44.0967 101.078 44.3809 101.049 44.75L100.979 45.7607C100.973 45.79 100.967 45.8486 100.961 45.9365C100.955 46.0244 100.943 46.1299 100.926 46.2529C100.908 46.3701 100.885 46.4961 100.855 46.6309C100.826 46.7656 100.791 46.8887 100.75 47H98.9658C99.0068 46.9473 99.0449 46.8945 99.0801 46.8418C99.1211 46.7832 99.1592 46.7041 99.1943 46.6045C99.2354 46.5049 99.2705 46.376 99.2998 46.2178C99.335 46.0596 99.3672 45.8574 99.3965 45.6113L99.502 44.4072C99.5371 44.0908 99.5781 43.833 99.625 43.6338C99.6777 43.4346 99.748 43.2705 99.8359 43.1416C99.9297 43.0068 100.05 42.8984 100.196 42.8164C100.343 42.7285 100.527 42.6406 100.75 42.5527C99.7422 42.1895 99.2383 41.4453 99.2383 40.3203C99.2383 40.0391 99.2734 39.7813 99.3438 39.5469C99.4141 39.3066 99.5049 39.0928 99.6162 38.9053C99.7334 38.7178 99.8623 38.5537 100.003 38.4131C100.149 38.2666 100.296 38.1465 100.442 38.0527C100.624 37.9355 100.823 37.8477 101.04 37.7891C101.257 37.7246 101.474 37.6777 101.69 37.6484C101.913 37.6191 102.13 37.6016 102.341 37.5957C102.552 37.5898 102.745 37.5869 102.921 37.5869H107.104V47ZM105.479 39.0107H103.018C102.807 39.0107 102.625 39.0137 102.473 39.0195C102.32 39.0195 102.186 39.0254 102.068 39.0371C101.957 39.0488 101.854 39.0693 101.761 39.0986C101.667 39.1279 101.57 39.1689 101.471 39.2217C101.266 39.3389 101.107 39.5117 100.996 39.7402C100.891 39.9688 100.838 40.2119 100.838 40.4697C100.838 40.7217 100.876 40.9355 100.952 41.1113C101.028 41.2813 101.128 41.4219 101.251 41.5332C101.38 41.6445 101.521 41.7324 101.673 41.7969C101.831 41.8555 101.989 41.8994 102.147 41.9287C102.312 41.9521 102.47 41.9668 102.622 41.9727C102.774 41.9785 102.906 41.9814 103.018 41.9814H105.479V39.0107ZM120.525 38.9932H116.131V47H114.514V37.5869H122.151V47H120.525V38.9932ZM130.202 43.2031C129.851 43.2969 129.464 43.376 129.042 43.4404C128.626 43.5049 128.236 43.5371 127.873 43.5371C126.613 43.5371 125.679 43.2969 125.069 42.8164C124.46 42.3301 124.155 41.5654 124.155 40.5225V37.5869H125.772V40.1973C125.772 40.5488 125.813 40.8535 125.896 41.1113C125.983 41.3691 126.124 41.583 126.317 41.7529C126.511 41.917 126.766 42.04 127.082 42.1221C127.398 42.2041 127.788 42.2451 128.251 42.2451C128.374 42.2451 128.521 42.2334 128.69 42.21C128.866 42.1865 129.045 42.1572 129.227 42.1221C129.408 42.0869 129.584 42.0488 129.754 42.0078C129.93 41.9609 130.079 41.9141 130.202 41.8672V37.5869H131.828V47H130.202V43.2031ZM142.234 43.9941C142.17 44.4043 142.029 44.8057 141.812 45.1982C141.596 45.5908 141.312 45.9424 140.96 46.2529C140.608 46.5635 140.192 46.8125 139.712 47C139.237 47.1934 138.71 47.29 138.13 47.29C137.497 47.29 136.911 47.1875 136.372 46.9824C135.839 46.7715 135.376 46.458 134.983 46.042C134.597 45.6201 134.292 45.0928 134.069 44.46C133.847 43.8271 133.735 43.083 133.735 42.2275C133.735 41.6533 133.797 41.1348 133.92 40.6719C134.049 40.2031 134.219 39.7871 134.43 39.4238C134.646 39.0547 134.896 38.7383 135.177 38.4746C135.458 38.2051 135.754 37.9854 136.064 37.8154C136.381 37.6396 136.703 37.5107 137.031 37.4287C137.359 37.3408 137.676 37.2969 137.98 37.2969C138.625 37.2969 139.214 37.3936 139.747 37.5869C140.28 37.7803 140.737 38.0762 141.118 38.4746C141.505 38.8672 141.804 39.3623 142.015 39.96C142.231 40.5518 142.34 41.249 142.34 42.0518V42.8604H135.458C135.464 43.3174 135.528 43.7334 135.651 44.1084C135.774 44.4775 135.95 44.7939 136.179 45.0576C136.407 45.3213 136.683 45.5264 137.005 45.6729C137.333 45.8135 137.702 45.8838 138.112 45.8838C138.528 45.8838 138.88 45.8252 139.167 45.708C139.454 45.5908 139.694 45.4414 139.888 45.2598C140.081 45.0781 140.236 44.876 140.354 44.6533C140.477 44.4307 140.579 44.2109 140.661 43.9941H142.234ZM140.714 41.5684C140.702 41.1113 140.632 40.7041 140.503 40.3467C140.38 39.9893 140.204 39.6904 139.976 39.4502C139.753 39.2041 139.483 39.0195 139.167 38.8965C138.851 38.7676 138.499 38.7031 138.112 38.7031C137.743 38.7031 137.403 38.7764 137.093 38.9229C136.782 39.0635 136.51 39.2627 136.275 39.5205C136.041 39.7725 135.854 40.0742 135.713 40.4258C135.572 40.7715 135.487 41.1523 135.458 41.5684H140.714ZM150.575 38.9932H146.972L146.901 41.252C146.866 42.3945 146.778 43.3496 146.638 44.1172C146.497 44.8789 146.304 45.4912 146.058 45.9541C145.817 46.417 145.524 46.7451 145.179 46.9385C144.833 47.1318 144.438 47.2285 143.992 47.2285C143.828 47.2285 143.685 47.2021 143.562 47.1494C143.444 47.1025 143.354 47.0527 143.289 47V45.5762C143.518 45.6641 143.72 45.708 143.896 45.708C144.019 45.708 144.136 45.6875 144.247 45.6465C144.364 45.6055 144.473 45.5264 144.572 45.4092C144.678 45.292 144.774 45.1279 144.862 44.917C144.95 44.7002 145.026 44.4189 145.091 44.0732C145.161 43.7275 145.217 43.3086 145.258 42.8164C145.305 42.3242 145.337 41.7383 145.354 41.0586L145.434 37.5869H152.192V47H150.575V38.9932ZM154.557 40.4082C154.574 39.834 154.683 39.3506 154.882 38.958C155.081 38.5596 155.351 38.2373 155.69 37.9912C156.03 37.7451 156.432 37.5693 156.895 37.4639C157.363 37.3525 157.873 37.2969 158.424 37.2969C158.881 37.2969 159.323 37.3438 159.751 37.4375C160.185 37.5313 160.568 37.6836 160.902 37.8945C161.236 38.0996 161.503 38.3691 161.702 38.7031C161.907 39.0313 162.01 39.4326 162.01 39.9072V45.3828C162.01 45.5352 162.051 45.667 162.133 45.7783C162.215 45.8838 162.347 45.9365 162.528 45.9365C162.61 45.9365 162.695 45.9307 162.783 45.9189C162.871 45.9014 162.962 45.8838 163.056 45.8662V46.9824C162.921 47.0176 162.786 47.0498 162.651 47.0791C162.522 47.1084 162.367 47.123 162.186 47.123C161.904 47.123 161.661 47.0996 161.456 47.0527C161.257 47.0059 161.087 46.9297 160.946 46.8242C160.812 46.7129 160.706 46.5723 160.63 46.4023C160.554 46.2266 160.504 46.0127 160.48 45.7607C160.281 45.9775 160.07 46.1797 159.848 46.3672C159.625 46.5488 159.376 46.71 159.101 46.8506C158.825 46.9854 158.518 47.0908 158.178 47.167C157.838 47.249 157.454 47.29 157.026 47.29C156.663 47.29 156.309 47.2314 155.963 47.1143C155.623 46.9971 155.315 46.8242 155.04 46.5957C154.771 46.3672 154.554 46.0859 154.39 45.752C154.226 45.4121 154.144 45.0195 154.144 44.5742C154.144 44.0879 154.226 43.6689 154.39 43.3174C154.554 42.96 154.768 42.6641 155.031 42.4297C155.295 42.1895 155.597 42.0049 155.937 41.876C156.276 41.7471 156.622 41.6621 156.974 41.6211L159.619 41.2959C159.871 41.2666 160.067 41.1699 160.208 41.0059C160.354 40.8359 160.428 40.5664 160.428 40.1973C160.428 39.6289 160.24 39.2217 159.865 38.9756C159.496 38.7236 158.963 38.5977 158.266 38.5977C157.551 38.5977 157.018 38.75 156.666 39.0547C156.314 39.3535 156.115 39.8047 156.068 40.4082H154.557ZM160.393 42.21C160.264 42.3037 160.103 42.3828 159.909 42.4473C159.722 42.5059 159.514 42.5557 159.285 42.5967C159.057 42.6377 158.813 42.6758 158.556 42.7109C158.298 42.7402 158.04 42.7725 157.782 42.8076C157.489 42.8486 157.22 42.9072 156.974 42.9834C156.728 43.0596 156.514 43.1592 156.332 43.2822C156.15 43.4053 156.01 43.5547 155.91 43.7305C155.811 43.9004 155.761 44.1025 155.761 44.3369C155.761 44.6064 155.802 44.8438 155.884 45.0488C155.972 45.2539 156.089 45.4268 156.235 45.5674C156.388 45.708 156.569 45.8135 156.78 45.8838C156.991 45.9541 157.223 45.9893 157.475 45.9893C157.633 45.9893 157.814 45.9717 158.02 45.9365C158.225 45.8955 158.436 45.8369 158.652 45.7607C158.869 45.6846 159.08 45.5879 159.285 45.4707C159.496 45.3477 159.684 45.2012 159.848 45.0313C160.012 44.8613 160.144 44.668 160.243 44.4512C160.343 44.2344 160.393 43.9912 160.393 43.7217V42.21ZM164.901 48.8369C165.306 48.7666 165.59 48.4824 165.754 47.9844C165.842 47.7207 165.886 47.4658 165.886 47.2197C165.886 47.1787 165.883 47.1406 165.877 47.1055C165.877 47.0762 165.871 47.041 165.859 47H164.901V45.084H166.782V46.8594C166.782 47.5566 166.642 48.1689 166.36 48.6963C166.079 49.2236 165.593 49.5488 164.901 49.6719V48.8369ZM180.625 38.9932H176.23V47H174.613V37.5869H182.251V47H180.625V38.9932ZM191.207 42.2803C191.207 41.7588 191.148 41.2813 191.031 40.8477C190.914 40.4082 190.738 40.0303 190.504 39.7139C190.27 39.3975 189.979 39.1514 189.634 38.9756C189.294 38.7939 188.898 38.7031 188.447 38.7031C187.996 38.7031 187.601 38.7939 187.261 38.9756C186.921 39.1514 186.634 39.3975 186.399 39.7139C186.165 40.0303 185.989 40.4082 185.872 40.8477C185.755 41.2813 185.696 41.7588 185.696 42.2803C185.696 42.8076 185.755 43.2939 185.872 43.7393C185.989 44.1787 186.165 44.5566 186.399 44.873C186.634 45.1895 186.921 45.4385 187.261 45.6201C187.601 45.7959 187.996 45.8838 188.447 45.8838C188.898 45.8838 189.294 45.7959 189.634 45.6201C189.979 45.4385 190.27 45.1895 190.504 44.873C190.738 44.5566 190.914 44.1787 191.031 43.7393C191.148 43.2939 191.207 42.8076 191.207 42.2803ZM192.824 42.2803C192.824 43.0537 192.725 43.751 192.525 44.3721C192.326 44.9873 192.039 45.5117 191.664 45.9453C191.289 46.3789 190.829 46.7129 190.284 46.9473C189.745 47.1758 189.133 47.29 188.447 47.29C187.762 47.29 187.149 47.1758 186.61 46.9473C186.071 46.7129 185.614 46.3789 185.239 45.9453C184.864 45.5117 184.577 44.9873 184.378 44.3721C184.179 43.751 184.079 43.0537 184.079 42.2803C184.079 41.5186 184.179 40.8301 184.378 40.2148C184.577 39.5996 184.864 39.0752 185.239 38.6416C185.614 38.208 186.071 37.877 186.61 37.6484C187.149 37.4141 187.762 37.2969 188.447 37.2969C189.133 37.2969 189.745 37.4141 190.284 37.6484C190.829 37.877 191.289 38.208 191.664 38.6416C192.039 39.0752 192.326 39.5996 192.525 40.2148C192.725 40.8301 192.824 41.5186 192.824 42.2803ZM200.664 38.9932H196.27V47H194.652V37.5869H202.29V47H200.664V38.9932ZM204.584 37.5869H206.201V38.8789H206.236C206.342 38.6621 206.474 38.457 206.632 38.2637C206.796 38.0703 206.989 37.9033 207.212 37.7627C207.44 37.6162 207.701 37.502 207.994 37.4199C208.293 37.3379 208.633 37.2969 209.014 37.2969C209.518 37.2969 210.001 37.3936 210.464 37.5869C210.927 37.7803 211.337 38.0703 211.694 38.457C212.052 38.8438 212.336 39.3301 212.547 39.916C212.758 40.4961 212.863 41.1729 212.863 41.9463C212.863 42.9131 212.764 43.7363 212.564 44.416C212.371 45.0898 212.093 45.6406 211.729 46.0684C211.372 46.4961 210.938 46.8066 210.429 47C209.919 47.1934 209.351 47.29 208.724 47.29C208.413 47.29 208.123 47.249 207.854 47.167C207.584 47.085 207.341 46.9795 207.124 46.8506C206.913 46.7158 206.731 46.5693 206.579 46.4111C206.427 46.2471 206.312 46.0889 206.236 45.9365H206.201V50.709H204.584V37.5869ZM206.166 42.3418C206.166 42.8516 206.216 43.3232 206.315 43.7568C206.415 44.1846 206.567 44.5566 206.772 44.873C206.983 45.1895 207.244 45.4385 207.555 45.6201C207.871 45.7959 208.243 45.8838 208.671 45.8838C209.116 45.8838 209.5 45.7959 209.822 45.6201C210.15 45.4385 210.42 45.1895 210.631 44.873C210.842 44.5566 210.997 44.1846 211.097 43.7568C211.196 43.3232 211.246 42.8516 211.246 42.3418C211.246 41.8086 211.196 41.3193 211.097 40.874C210.997 40.4287 210.842 40.0449 210.631 39.7227C210.42 39.4004 210.15 39.1514 209.822 38.9756C209.5 38.7939 209.116 38.7031 208.671 38.7031C208.243 38.7031 207.871 38.7939 207.555 38.9756C207.244 39.1514 206.983 39.4004 206.772 39.7227C206.567 40.0449 206.415 40.4287 206.315 40.874C206.216 41.3193 206.166 41.8086 206.166 42.3418ZM221.266 42.2803C221.266 41.7588 221.207 41.2813 221.09 40.8477C220.973 40.4082 220.797 40.0303 220.562 39.7139C220.328 39.3975 220.038 39.1514 219.692 38.9756C219.353 38.7939 218.957 38.7031 218.506 38.7031C218.055 38.7031 217.659 38.7939 217.319 38.9756C216.979 39.1514 216.692 39.3975 216.458 39.7139C216.224 40.0303 216.048 40.4082 215.931 40.8477C215.813 41.2813 215.755 41.7588 215.755 42.2803C215.755 42.8076 215.813 43.2939 215.931 43.7393C216.048 44.1787 216.224 44.5566 216.458 44.873C216.692 45.1895 216.979 45.4385 217.319 45.6201C217.659 45.7959 218.055 45.8838 218.506 45.8838C218.957 45.8838 219.353 45.7959 219.692 45.6201C220.038 45.4385 220.328 45.1895 220.562 44.873C220.797 44.5566 220.973 44.1787 221.09 43.7393C221.207 43.2939 221.266 42.8076 221.266 42.2803ZM222.883 42.2803C222.883 43.0537 222.783 43.751 222.584 44.3721C222.385 44.9873 222.098 45.5117 221.723 45.9453C221.348 46.3789 220.888 46.7129 220.343 46.9473C219.804 47.1758 219.191 47.29 218.506 47.29C217.82 47.29 217.208 47.1758 216.669 46.9473C216.13 46.7129 215.673 46.3789 215.298 45.9453C214.923 45.5117 214.636 44.9873 214.437 44.3721C214.237 43.751 214.138 43.0537 214.138 42.2803C214.138 41.5186 214.237 40.8301 214.437 40.2148C214.636 39.5996 214.923 39.0752 215.298 38.6416C215.673 38.208 216.13 37.877 216.669 37.6484C217.208 37.4141 217.82 37.2969 218.506 37.2969C219.191 37.2969 219.804 37.4141 220.343 37.6484C220.888 37.877 221.348 38.208 221.723 38.6416C222.098 39.0752 222.385 39.5996 222.584 40.2148C222.783 40.8301 222.883 41.5186 222.883 42.2803ZM232.023 33.9658C232.012 34.0537 231.994 34.1621 231.971 34.291C231.953 34.4141 231.915 34.5459 231.856 34.6865C231.798 34.8271 231.716 34.9707 231.61 35.1172C231.511 35.2578 231.376 35.3896 231.206 35.5127C231.112 35.5771 231.027 35.6328 230.951 35.6797C230.875 35.7266 230.778 35.7676 230.661 35.8027C230.544 35.8379 230.395 35.8672 230.213 35.8906C230.031 35.9141 229.788 35.9287 229.483 35.9346L228.815 35.9521C228.358 35.9639 227.945 36.0576 227.576 36.2334C227.213 36.4033 226.891 36.6436 226.609 36.9541C226.334 37.2588 226.105 37.6279 225.924 38.0615C225.742 38.4951 225.607 38.9785 225.52 39.5117C225.643 39.2773 225.795 39.0488 225.977 38.8262C226.158 38.5977 226.384 38.3955 226.653 38.2197C226.923 38.0381 227.239 37.8945 227.603 37.7891C227.966 37.6777 228.388 37.6221 228.868 37.6221C229.413 37.6221 229.929 37.7188 230.415 37.9121C230.907 38.1055 231.335 38.3955 231.698 38.7822C232.067 39.1689 232.36 39.6494 232.577 40.2236C232.794 40.7979 232.902 41.4658 232.902 42.2275C232.902 42.4678 232.885 42.7607 232.85 43.1064C232.814 43.4463 232.744 43.8037 232.639 44.1787C232.533 44.5537 232.381 44.9287 232.182 45.3037C231.988 45.6729 231.728 46.0039 231.399 46.2969C231.077 46.5898 230.682 46.8271 230.213 47.0088C229.75 47.1963 229.193 47.29 228.543 47.29C228.273 47.29 227.986 47.2666 227.682 47.2197C227.383 47.1787 227.081 47.0996 226.776 46.9824C226.478 46.8652 226.185 46.7012 225.897 46.4902C225.616 46.2793 225.358 46.0098 225.124 45.6816C225.007 45.5176 224.89 45.3301 224.772 45.1191C224.661 44.9023 224.559 44.6416 224.465 44.3369C224.371 44.0322 224.295 43.6719 224.236 43.2559C224.184 42.8398 224.157 42.3477 224.157 41.7793C224.157 41.4043 224.175 40.9795 224.21 40.5049C224.245 40.0303 224.307 39.5469 224.395 39.0547C224.482 38.5625 224.6 38.0879 224.746 37.6309C224.893 37.168 225.08 36.7637 225.309 36.418C225.555 36.043 225.812 35.7383 226.082 35.5039C226.352 35.2695 226.639 35.085 226.943 34.9502C227.248 34.8154 227.576 34.7188 227.928 34.6602C228.279 34.6016 228.66 34.5635 229.07 34.5459L229.642 34.5283C229.829 34.5225 229.987 34.5137 230.116 34.502C230.251 34.4844 230.362 34.458 230.45 34.4229C230.538 34.3877 230.608 34.335 230.661 34.2646C230.714 34.1943 230.758 34.0947 230.793 33.9658H232.023ZM225.774 42.4648C225.774 42.6406 225.783 42.8486 225.801 43.0889C225.824 43.3291 225.868 43.5811 225.933 43.8447C225.997 44.1025 226.091 44.3604 226.214 44.6182C226.337 44.876 226.498 45.1074 226.697 45.3125C226.902 45.5117 227.154 45.6758 227.453 45.8047C227.752 45.9277 228.109 45.9893 228.525 45.9893C228.988 45.9893 229.378 45.916 229.694 45.7695C230.011 45.6172 230.271 45.4238 230.477 45.1895C230.682 44.9492 230.837 44.6855 230.942 44.3984C231.054 44.1113 231.133 43.833 231.18 43.5635C231.232 43.2881 231.262 43.0391 231.268 42.8164C231.279 42.5879 231.285 42.415 231.285 42.2979C231.285 41.8701 231.235 41.4512 231.136 41.041C231.042 40.6309 230.887 40.2676 230.67 39.9512C230.459 39.6348 230.181 39.3799 229.835 39.1865C229.495 38.9932 229.076 38.8965 228.578 38.8965C228.092 38.8965 227.673 38.9932 227.321 39.1865C226.97 39.374 226.68 39.6318 226.451 39.96C226.223 40.2822 226.053 40.6602 225.941 41.0938C225.83 41.5215 225.774 41.9785 225.774 42.4648ZM233.746 37.5869H235.521L238.026 45.251H238.062L240.566 37.5869H242.342L238.747 47.3779C238.565 47.8701 238.398 48.2979 238.246 48.6611C238.094 49.0244 237.944 49.332 237.798 49.584C237.651 49.8418 237.502 50.0498 237.35 50.208C237.203 50.3662 237.039 50.4893 236.857 50.5771C236.682 50.6709 236.482 50.7324 236.26 50.7617C236.043 50.7969 235.791 50.8145 235.504 50.8145C235.27 50.8145 235.085 50.8027 234.95 50.7793C234.821 50.7617 234.707 50.7383 234.607 50.709V49.25C234.713 49.2852 234.851 49.3203 235.021 49.3555C235.19 49.3906 235.369 49.4082 235.557 49.4082C235.855 49.4082 236.096 49.335 236.277 49.1885C236.465 49.0479 236.608 48.8457 236.708 48.582L237.235 47.2549L233.746 37.5869ZM246.271 33.9307C246.347 34.3057 246.505 34.6045 246.745 34.8271C246.985 35.0439 247.34 35.1523 247.809 35.1523C248.283 35.1523 248.641 35.0469 248.881 34.8359C249.121 34.6191 249.276 34.3174 249.347 33.9307H250.85C250.844 34.2822 250.768 34.6016 250.621 34.8887C250.475 35.1699 250.267 35.4102 249.997 35.6094C249.733 35.8086 249.414 35.9639 249.039 36.0752C248.67 36.1807 248.26 36.2334 247.809 36.2334C247.357 36.2334 246.947 36.1807 246.578 36.0752C246.209 35.9697 245.893 35.8174 245.629 35.6182C245.365 35.4189 245.157 35.1787 245.005 34.8975C244.858 34.6104 244.782 34.2881 244.776 33.9307H246.271ZM243.73 37.5869H245.348V44.8027H245.383L250.006 37.5869H251.86V47H250.234V39.7842H250.199L245.585 47H243.73V37.5869ZM266.652 43.6865C266.629 43.915 266.582 44.1641 266.512 44.4336C266.447 44.7031 266.351 44.9727 266.222 45.2422C266.093 45.5059 265.926 45.7607 265.721 46.0068C265.521 46.2529 265.275 46.4727 264.982 46.666C264.695 46.8535 264.355 47.0029 263.963 47.1143C263.57 47.2314 263.122 47.29 262.618 47.29C262.343 47.29 262.053 47.2549 261.748 47.1846C261.443 47.1201 261.145 47.0088 260.852 46.8506C260.564 46.6924 260.289 46.4902 260.025 46.2441C259.768 45.9922 259.539 45.6816 259.34 45.3125C259.146 44.9434 258.991 44.5156 258.874 44.0293C258.757 43.5371 258.698 42.9746 258.698 42.3418C258.698 41.5625 258.81 40.8623 259.032 40.2412C259.255 39.6143 259.551 39.084 259.92 38.6504C260.295 38.2168 260.729 37.8828 261.221 37.6484C261.719 37.4141 262.24 37.2969 262.785 37.2969C263.277 37.2969 263.711 37.3496 264.086 37.4551C264.467 37.5605 264.798 37.7012 265.079 37.877C265.36 38.0527 265.598 38.2578 265.791 38.4922C265.984 38.7207 266.14 38.9639 266.257 39.2217C266.38 39.4736 266.471 39.7314 266.529 39.9951C266.594 40.2588 266.635 40.5107 266.652 40.751H265.141C265.059 40.1123 264.836 39.6113 264.473 39.248C264.115 38.8848 263.611 38.7031 262.961 38.7031C262.516 38.7031 262.126 38.7939 261.792 38.9756C261.464 39.1572 261.188 39.4121 260.966 39.7402C260.749 40.0625 260.585 40.4551 260.474 40.918C260.368 41.375 260.315 41.8789 260.315 42.4297C260.315 43.0508 260.374 43.5869 260.491 44.0381C260.608 44.4834 260.775 44.8525 260.992 45.1455C261.209 45.4326 261.473 45.6465 261.783 45.7871C262.1 45.9219 262.457 45.9893 262.855 45.9893C263.137 45.9893 263.403 45.9395 263.655 45.8398C263.907 45.7344 264.133 45.585 264.332 45.3916C264.531 45.1924 264.701 44.9492 264.842 44.6621C264.982 44.375 265.082 44.0498 265.141 43.6865H266.652ZM274.826 42.2803C274.826 41.7588 274.768 41.2813 274.65 40.8477C274.533 40.4082 274.357 40.0303 274.123 39.7139C273.889 39.3975 273.599 39.1514 273.253 38.9756C272.913 38.7939 272.518 38.7031 272.066 38.7031C271.615 38.7031 271.22 38.7939 270.88 38.9756C270.54 39.1514 270.253 39.3975 270.019 39.7139C269.784 40.0303 269.608 40.4082 269.491 40.8477C269.374 41.2813 269.315 41.7588 269.315 42.2803C269.315 42.8076 269.374 43.2939 269.491 43.7393C269.608 44.1787 269.784 44.5566 270.019 44.873C270.253 45.1895 270.54 45.4385 270.88 45.6201C271.22 45.7959 271.615 45.8838 272.066 45.8838C272.518 45.8838 272.913 45.7959 273.253 45.6201C273.599 45.4385 273.889 45.1895 274.123 44.873C274.357 44.5566 274.533 44.1787 274.65 43.7393C274.768 43.2939 274.826 42.8076 274.826 42.2803ZM276.443 42.2803C276.443 43.0537 276.344 43.751 276.145 44.3721C275.945 44.9873 275.658 45.5117 275.283 45.9453C274.908 46.3789 274.448 46.7129 273.903 46.9473C273.364 47.1758 272.752 47.29 272.066 47.29C271.381 47.29 270.769 47.1758 270.229 46.9473C269.69 46.7129 269.233 46.3789 268.858 45.9453C268.483 45.5117 268.196 44.9873 267.997 44.3721C267.798 43.751 267.698 43.0537 267.698 42.2803C267.698 41.5186 267.798 40.8301 267.997 40.2148C268.196 39.5996 268.483 39.0752 268.858 38.6416C269.233 38.208 269.69 37.877 270.229 37.6484C270.769 37.4141 271.381 37.2969 272.066 37.2969C272.752 37.2969 273.364 37.4141 273.903 37.6484C274.448 37.877 274.908 38.208 275.283 38.6416C275.658 39.0752 275.945 39.5996 276.145 40.2148C276.344 40.8301 276.443 41.5186 276.443 42.2803ZM285.584 33.9658C285.572 34.0537 285.555 34.1621 285.531 34.291C285.514 34.4141 285.476 34.5459 285.417 34.6865C285.358 34.8271 285.276 34.9707 285.171 35.1172C285.071 35.2578 284.937 35.3896 284.767 35.5127C284.673 35.5771 284.588 35.6328 284.512 35.6797C284.436 35.7266 284.339 35.7676 284.222 35.8027C284.104 35.8379 283.955 35.8672 283.773 35.8906C283.592 35.9141 283.349 35.9287 283.044 35.9346L282.376 35.9521C281.919 35.9639 281.506 36.0576 281.137 36.2334C280.773 36.4033 280.451 36.6436 280.17 36.9541C279.895 37.2588 279.666 37.6279 279.484 38.0615C279.303 38.4951 279.168 38.9785 279.08 39.5117C279.203 39.2773 279.355 39.0488 279.537 38.8262C279.719 38.5977 279.944 38.3955 280.214 38.2197C280.483 38.0381 280.8 37.8945 281.163 37.7891C281.526 37.6777 281.948 37.6221 282.429 37.6221C282.974 37.6221 283.489 37.7188 283.976 37.9121C284.468 38.1055 284.896 38.3955 285.259 38.7822C285.628 39.1689 285.921 39.6494 286.138 40.2236C286.354 40.7979 286.463 41.4658 286.463 42.2275C286.463 42.4678 286.445 42.7607 286.41 43.1064C286.375 43.4463 286.305 43.8037 286.199 44.1787C286.094 44.5537 285.941 44.9287 285.742 45.3037C285.549 45.6729 285.288 46.0039 284.96 46.2969C284.638 46.5898 284.242 46.8271 283.773 47.0088C283.311 47.1963 282.754 47.29 282.104 47.29C281.834 47.29 281.547 47.2666 281.242 47.2197C280.943 47.1787 280.642 47.0996 280.337 46.9824C280.038 46.8652 279.745 46.7012 279.458 46.4902C279.177 46.2793 278.919 46.0098 278.685 45.6816C278.567 45.5176 278.45 45.3301 278.333 45.1191C278.222 44.9023 278.119 44.6416 278.025 44.3369C277.932 44.0322 277.855 43.6719 277.797 43.2559C277.744 42.8398 277.718 42.3477 277.718 41.7793C277.718 41.4043 277.735 40.9795 277.771 40.5049C277.806 40.0303 277.867 39.5469 277.955 39.0547C278.043 38.5625 278.16 38.0879 278.307 37.6309C278.453 37.168 278.641 36.7637 278.869 36.418C279.115 36.043 279.373 35.7383 279.643 35.5039C279.912 35.2695 280.199 35.085 280.504 34.9502C280.809 34.8154 281.137 34.7188 281.488 34.6602C281.84 34.6016 282.221 34.5635 282.631 34.5459L283.202 34.5283C283.39 34.5225 283.548 34.5137 283.677 34.502C283.812 34.4844 283.923 34.458 284.011 34.4229C284.099 34.3877 284.169 34.335 284.222 34.2646C284.274 34.1943 284.318 34.0947 284.354 33.9658H285.584ZM279.335 42.4648C279.335 42.6406 279.344 42.8486 279.361 43.0889C279.385 43.3291 279.429 43.5811 279.493 43.8447C279.558 44.1025 279.651 44.3604 279.774 44.6182C279.897 44.876 280.059 45.1074 280.258 45.3125C280.463 45.5117 280.715 45.6758 281.014 45.8047C281.312 45.9277 281.67 45.9893 282.086 45.9893C282.549 45.9893 282.938 45.916 283.255 45.7695C283.571 45.6172 283.832 45.4238 284.037 45.1895C284.242 44.9492 284.397 44.6855 284.503 44.3984C284.614 44.1113 284.693 43.833 284.74 43.5635C284.793 43.2881 284.822 43.0391 284.828 42.8164C284.84 42.5879 284.846 42.415 284.846 42.2979C284.846 41.8701 284.796 41.4512 284.696 41.041C284.603 40.6309 284.447 40.2676 284.23 39.9512C284.02 39.6348 283.741 39.3799 283.396 39.1865C283.056 38.9932 282.637 38.8965 282.139 38.8965C281.652 38.8965 281.233 38.9932 280.882 39.1865C280.53 39.374 280.24 39.6318 280.012 39.96C279.783 40.2822 279.613 40.6602 279.502 41.0938C279.391 41.5215 279.335 41.9785 279.335 42.4648ZM288.203 37.5869H289.82V38.8789H289.855C289.961 38.6621 290.093 38.457 290.251 38.2637C290.415 38.0703 290.608 37.9033 290.831 37.7627C291.06 37.6162 291.32 37.502 291.613 37.4199C291.912 37.3379 292.252 37.2969 292.633 37.2969C293.137 37.2969 293.62 37.3936 294.083 37.5869C294.546 37.7803 294.956 38.0703 295.313 38.457C295.671 38.8438 295.955 39.3301 296.166 39.916C296.377 40.4961 296.482 41.1729 296.482 41.9463C296.482 42.9131 296.383 43.7363 296.184 44.416C295.99 45.0898 295.712 45.6406 295.349 46.0684C294.991 46.4961 294.558 46.8066 294.048 47C293.538 47.1934 292.97 47.29 292.343 47.29C292.032 47.29 291.742 47.249 291.473 47.167C291.203 47.085 290.96 46.9795 290.743 46.8506C290.532 46.7158 290.351 46.5693 290.198 46.4111C290.046 46.2471 289.932 46.0889 289.855 45.9365H289.82V50.709H288.203V37.5869ZM289.785 42.3418C289.785 42.8516 289.835 43.3232 289.935 43.7568C290.034 44.1846 290.187 44.5566 290.392 44.873C290.603 45.1895 290.863 45.4385 291.174 45.6201C291.49 45.7959 291.862 45.8838 292.29 45.8838C292.735 45.8838 293.119 45.7959 293.441 45.6201C293.77 45.4385 294.039 45.1895 294.25 44.873C294.461 44.5566 294.616 44.1846 294.716 43.7568C294.815 43.3232 294.865 42.8516 294.865 42.3418C294.865 41.8086 294.815 41.3193 294.716 40.874C294.616 40.4287 294.461 40.0449 294.25 39.7227C294.039 39.4004 293.77 39.1514 293.441 38.9756C293.119 38.7939 292.735 38.7031 292.29 38.7031C291.862 38.7031 291.49 38.7939 291.174 38.9756C290.863 39.1514 290.603 39.4004 290.392 39.7227C290.187 40.0449 290.034 40.4287 289.935 40.874C289.835 41.3193 289.785 41.8086 289.785 42.3418ZM298.293 40.4082C298.311 39.834 298.419 39.3506 298.618 38.958C298.817 38.5596 299.087 38.2373 299.427 37.9912C299.767 37.7451 300.168 37.5693 300.631 37.4639C301.1 37.3525 301.609 37.2969 302.16 37.2969C302.617 37.2969 303.06 37.3438 303.487 37.4375C303.921 37.5313 304.305 37.6836 304.639 37.8945C304.973 38.0996 305.239 38.3691 305.438 38.7031C305.644 39.0313 305.746 39.4326 305.746 39.9072V45.3828C305.746 45.5352 305.787 45.667 305.869 45.7783C305.951 45.8838 306.083 45.9365 306.265 45.9365C306.347 45.9365 306.432 45.9307 306.52 45.9189C306.607 45.9014 306.698 45.8838 306.792 45.8662V46.9824C306.657 47.0176 306.522 47.0498 306.388 47.0791C306.259 47.1084 306.104 47.123 305.922 47.123C305.641 47.123 305.397 47.0996 305.192 47.0527C304.993 47.0059 304.823 46.9297 304.683 46.8242C304.548 46.7129 304.442 46.5723 304.366 46.4023C304.29 46.2266 304.24 46.0127 304.217 45.7607C304.018 45.9775 303.807 46.1797 303.584 46.3672C303.361 46.5488 303.112 46.71 302.837 46.8506C302.562 46.9854 302.254 47.0908 301.914 47.167C301.574 47.249 301.19 47.29 300.763 47.29C300.399 47.29 300.045 47.2314 299.699 47.1143C299.359 46.9971 299.052 46.8242 298.776 46.5957C298.507 46.3672 298.29 46.0859 298.126 45.752C297.962 45.4121 297.88 45.0195 297.88 44.5742C297.88 44.0879 297.962 43.6689 298.126 43.3174C298.29 42.96 298.504 42.6641 298.768 42.4297C299.031 42.1895 299.333 42.0049 299.673 41.876C300.013 41.7471 300.358 41.6621 300.71 41.6211L303.355 41.2959C303.607 41.2666 303.804 41.1699 303.944 41.0059C304.091 40.8359 304.164 40.5664 304.164 40.1973C304.164 39.6289 303.977 39.2217 303.602 38.9756C303.232 38.7236 302.699 38.5977 302.002 38.5977C301.287 38.5977 300.754 38.75 300.402 39.0547C300.051 39.3535 299.852 39.8047 299.805 40.4082H298.293ZM304.129 42.21C304 42.3037 303.839 42.3828 303.646 42.4473C303.458 42.5059 303.25 42.5557 303.021 42.5967C302.793 42.6377 302.55 42.6758 302.292 42.7109C302.034 42.7402 301.776 42.7725 301.519 42.8076C301.226 42.8486 300.956 42.9072 300.71 42.9834C300.464 43.0596 300.25 43.1592 300.068 43.2822C299.887 43.4053 299.746 43.5547 299.646 43.7305C299.547 43.9004 299.497 44.1025 299.497 44.3369C299.497 44.6064 299.538 44.8438 299.62 45.0488C299.708 45.2539 299.825 45.4268 299.972 45.5674C300.124 45.708 300.306 45.8135 300.517 45.8838C300.728 45.9541 300.959 45.9893 301.211 45.9893C301.369 45.9893 301.551 45.9717 301.756 45.9365C301.961 45.8955 302.172 45.8369 302.389 45.7607C302.605 45.6846 302.816 45.5879 303.021 45.4707C303.232 45.3477 303.42 45.2012 303.584 45.0313C303.748 44.8613 303.88 44.668 303.979 44.4512C304.079 44.2344 304.129 43.9912 304.129 43.7217V42.21ZM310.835 38.9932H307.592V37.5869L315.695 37.5869V38.9932L312.452 38.9932V47H310.835V38.9932ZM317.33 37.5869H318.947V41.1289H321.558C322.073 41.1289 322.533 41.1992 322.938 41.3398C323.342 41.4746 323.685 41.6709 323.966 41.9287C324.247 42.1807 324.461 42.4883 324.607 42.8516C324.76 43.209 324.836 43.6133 324.836 44.0645C324.836 44.5215 324.76 44.9316 324.607 45.2949C324.461 45.6523 324.247 45.96 323.966 46.2178C323.685 46.4697 323.342 46.6631 322.938 46.7979C322.533 46.9326 322.073 47 321.558 47H317.33V37.5869ZM318.947 45.708H321.241C321.522 45.708 321.783 45.6787 322.023 45.6201C322.27 45.5615 322.48 45.4678 322.656 45.3389C322.832 45.2041 322.97 45.0342 323.069 44.8291C323.169 44.6182 323.219 44.3633 323.219 44.0645C323.219 43.7715 323.166 43.5225 323.061 43.3174C322.961 43.1123 322.817 42.9453 322.63 42.8164C322.448 42.6816 322.226 42.585 321.962 42.5264C321.704 42.4619 321.414 42.4297 321.092 42.4297H318.947V45.708ZM128.752 63.2803C128.752 62.7588 128.693 62.2813 128.576 61.8477C128.459 61.4082 128.283 61.0303 128.049 60.7139C127.814 60.3975 127.524 60.1514 127.179 59.9756C126.839 59.7939 126.443 59.7031 125.992 59.7031C125.541 59.7031 125.146 59.7939 124.806 59.9756C124.466 60.1514 124.179 60.3975 123.944 60.7139C123.71 61.0303 123.534 61.4082 123.417 61.8477C123.3 62.2813 123.241 62.7588 123.241 63.2803C123.241 63.8076 123.3 64.2939 123.417 64.7393C123.534 65.1787 123.71 65.5566 123.944 65.873C124.179 66.1895 124.466 66.4385 124.806 66.6201C125.146 66.7959 125.541 66.8838 125.992 66.8838C126.443 66.8838 126.839 66.7959 127.179 66.6201C127.524 66.4385 127.814 66.1895 128.049 65.873C128.283 65.5566 128.459 65.1787 128.576 64.7393C128.693 64.2939 128.752 63.8076 128.752 63.2803ZM130.369 63.2803C130.369 64.0537 130.27 64.751 130.07 65.3721C129.871 65.9873 129.584 66.5117 129.209 66.9453C128.834 67.3789 128.374 67.7129 127.829 67.9473C127.29 68.1758 126.678 68.29 125.992 68.29C125.307 68.29 124.694 68.1758 124.155 67.9473C123.616 67.7129 123.159 67.3789 122.784 66.9453C122.409 66.5117 122.122 65.9873 121.923 65.3721C121.724 64.751 121.624 64.0537 121.624 63.2803C121.624 62.5186 121.724 61.8301 121.923 61.2148C122.122 60.5996 122.409 60.0752 122.784 59.6416C123.159 59.208 123.616 58.877 124.155 58.6484C124.694 58.4141 125.307 58.2969 125.992 58.2969C126.678 58.2969 127.29 58.4141 127.829 58.6484C128.374 58.877 128.834 59.208 129.209 59.6416C129.584 60.0752 129.871 60.5996 130.07 61.2148C130.27 61.8301 130.369 62.5186 130.369 63.2803ZM140.046 68H132.769V70.3027H131.257V66.5938H132.496C132.754 65.9609 132.959 65.3164 133.111 64.6602C133.264 63.998 133.381 63.333 133.463 62.665C133.545 61.9912 133.598 61.3145 133.621 60.6348C133.645 59.9551 133.656 59.2725 133.656 58.5869H140.23V66.5938H141.558V70.3027H140.046V68ZM138.613 66.5938V59.9932H135.203C135.162 60.5264 135.118 61.0742 135.071 61.6367C135.03 62.1992 134.972 62.7646 134.896 63.333C134.825 63.8955 134.729 64.4521 134.605 65.0029C134.488 65.5537 134.333 66.084 134.14 66.5938H138.613ZM143.113 58.5869H144.73V62.3838H149.125V58.5869H150.751V68H149.125V63.79H144.73V68H143.113V58.5869ZM152.148 58.5869H153.924L156.429 66.251H156.464L158.969 58.5869H160.744L157.149 68.3779C156.968 68.8701 156.801 69.2979 156.648 69.6611C156.496 70.0244 156.347 70.332 156.2 70.584C156.054 70.8418 155.904 71.0498 155.752 71.208C155.605 71.3662 155.441 71.4893 155.26 71.5771C155.084 71.6709 154.885 71.7324 154.662 71.7617C154.445 71.7969 154.193 71.8145 153.906 71.8145C153.672 71.8145 153.487 71.8027 153.353 71.7793C153.224 71.7617 153.109 71.7383 153.01 71.709V70.25C153.115 70.2852 153.253 70.3203 153.423 70.3555C153.593 70.3906 153.771 70.4082 153.959 70.4082C154.258 70.4082 154.498 70.335 154.68 70.1885C154.867 70.0479 155.011 69.8457 155.11 69.582L155.638 68.2549L152.148 58.5869ZM167.143 58.5869H168.76V65.8027H168.795L173.418 58.5869H175.272V68H173.646V60.7842H173.611L168.997 68H167.143V58.5869ZM180.089 62.5596H180.906C181.123 62.5596 181.349 62.5332 181.583 62.4805C181.817 62.4277 182.031 62.3457 182.225 62.2344C182.418 62.1172 182.576 61.9678 182.699 61.7861C182.828 61.6045 182.893 61.3848 182.893 61.127C182.893 60.9395 182.852 60.7607 182.77 60.5908C182.693 60.415 182.576 60.2627 182.418 60.1338C182.266 59.999 182.072 59.8936 181.838 59.8174C181.604 59.7412 181.331 59.7031 181.021 59.7031C180.856 59.7031 180.663 59.7266 180.44 59.7734C180.218 59.8203 179.998 59.9082 179.781 60.0371C179.57 60.1602 179.38 60.3389 179.21 60.5732C179.046 60.8018 178.94 61.1006 178.894 61.4697H177.382C177.423 61.0479 177.508 60.6787 177.637 60.3623C177.766 60.04 177.927 59.7617 178.12 59.5273C178.313 59.293 178.53 59.0967 178.771 58.9385C179.017 58.7803 179.269 58.6543 179.526 58.5605C179.79 58.4668 180.054 58.3994 180.317 58.3584C180.581 58.3174 180.833 58.2969 181.073 58.2969C181.495 58.2969 181.911 58.3525 182.321 58.4639C182.731 58.5693 183.098 58.7334 183.42 58.9561C183.748 59.1729 184.012 59.4482 184.211 59.7822C184.41 60.1162 184.51 60.5059 184.51 60.9512C184.51 61.2383 184.469 61.4932 184.387 61.7158C184.305 61.9326 184.196 62.123 184.062 62.2871C183.933 62.4512 183.786 62.5918 183.622 62.709C183.458 62.8203 183.297 62.9141 183.139 62.9902V63.0342C183.303 63.0635 183.484 63.125 183.684 63.2188C183.883 63.3066 184.067 63.4355 184.237 63.6055C184.407 63.7695 184.548 63.9834 184.659 64.2471C184.776 64.5049 184.835 64.8213 184.835 65.1963C184.835 65.7236 184.721 66.1807 184.492 66.5674C184.27 66.9541 183.977 67.2764 183.613 67.5342C183.25 67.7861 182.84 67.9736 182.383 68.0967C181.926 68.2256 181.466 68.29 181.003 68.29C180.405 68.29 179.863 68.2139 179.377 68.0615C178.896 67.9092 178.48 67.6924 178.129 67.4111C177.777 67.1299 177.496 66.793 177.285 66.4004C177.08 66.0078 176.957 65.5742 176.916 65.0996H178.542C178.583 65.4453 178.683 65.7324 178.841 65.9609C178.999 66.1895 179.189 66.3711 179.412 66.5059C179.635 66.6406 179.881 66.7373 180.15 66.7959C180.426 66.8545 180.704 66.8838 180.985 66.8838C181.729 66.8838 182.286 66.7344 182.655 66.4355C183.03 66.1367 183.218 65.7354 183.218 65.2314C183.218 65.0146 183.183 64.8213 183.112 64.6514C183.048 64.4814 182.937 64.3379 182.778 64.2207C182.62 64.0977 182.409 64.0068 182.146 63.9482C181.888 63.8838 181.565 63.8516 181.179 63.8516C181.103 63.8516 181.015 63.8545 180.915 63.8604C180.821 63.8604 180.725 63.8633 180.625 63.8691C180.531 63.875 180.438 63.8838 180.344 63.8955C180.25 63.9014 180.165 63.9072 180.089 63.9131V62.5596ZM191.664 58.5869H193.281V62.3838H197.676V58.5869H199.302V68H197.676V63.79H193.281V68H191.664V58.5869ZM201.684 58.5869H203.301V65.8027H203.336L207.959 58.5869H209.813V68H208.188V60.7842H208.152L203.538 68H201.684V58.5869ZM215.403 64.4932L213.188 68H211.185L214.48 63.1748L211.352 58.5869H213.382L215.614 61.8652L217.741 58.5869H219.684L216.502 63.1748L219.833 68H217.794L215.403 64.4932Z" fill="black"/>
</svg>
