<svg width="342" height="81" viewBox="0 0 342 81" fill="none" xmlns="http://www.w3.org/2000/svg">
<rect x="1" y="1" width="340" height="79" fill="white" stroke="black" stroke-width="2"/>
<path d="M38.46 27.9932H34.0654V36H32.4482V26.5869H40.0859V36H38.46V27.9932ZM42.3799 26.5869H43.9971V27.8789H44.0322C44.1377 27.6621 44.2695 27.457 44.4277 27.2637C44.5918 27.0703 44.7852 26.9033 45.0078 26.7627C45.2363 26.6162 45.4971 26.502 45.79 26.4199C46.0889 26.3379 46.4287 26.2969 46.8096 26.2969C47.3135 26.2969 47.7969 26.3936 48.2598 26.5869C48.7227 26.7803 49.1328 27.0703 49.4902 27.457C49.8477 27.8438 50.1318 28.3301 50.3428 28.916C50.5537 29.4961 50.6592 30.1729 50.6592 30.9463C50.6592 31.9131 50.5596 32.7363 50.3604 33.416C50.167 34.0898 49.8887 34.6406 49.5254 35.0684C49.168 35.4961 48.7344 35.8066 48.2246 36C47.7148 36.1934 47.1465 36.29 46.5195 36.29C46.209 36.29 45.9189 36.249 45.6494 36.167C45.3799 36.085 45.1367 35.9795 44.9199 35.8506C44.709 35.7158 44.5273 35.5693 44.375 35.4111C44.2227 35.2471 44.1084 35.0889 44.0322 34.9365H43.9971V39.709H42.3799V26.5869ZM43.9619 31.3418C43.9619 31.8516 44.0117 32.3232 44.1113 32.7568C44.2109 33.1846 44.3633 33.5566 44.5684 33.873C44.7793 34.1895 45.04 34.4385 45.3506 34.6201C45.667 34.7959 46.0391 34.8838 46.4668 34.8838C46.9121 34.8838 47.2959 34.7959 47.6182 34.6201C47.9463 34.4385 48.2158 34.1895 48.4268 33.873C48.6377 33.5566 48.793 33.1846 48.8926 32.7568C48.9922 32.3232 49.042 31.8516 49.042 31.3418C49.042 30.8086 48.9922 30.3193 48.8926 29.874C48.793 29.4287 48.6377 29.0449 48.4268 28.7227C48.2158 28.4004 47.9463 28.1514 47.6182 27.9756C47.2959 27.7939 46.9121 27.7031 46.4668 27.7031C46.0391 27.7031 45.667 27.7939 45.3506 27.9756C45.04 28.1514 44.7793 28.4004 44.5684 28.7227C44.3633 29.0449 44.2109 29.4287 44.1113 29.874C44.0117 30.3193 43.9619 30.8086 43.9619 31.3418ZM59.0615 31.2803C59.0615 30.7588 59.0029 30.2813 58.8857 29.8477C58.7686 29.4082 58.5928 29.0303 58.3584 28.7139C58.124 28.3975 57.834 28.1514 57.4883 27.9756C57.1484 27.7939 56.7529 27.7031 56.3018 27.7031C55.8506 27.7031 55.4551 27.7939 55.1152 27.9756C54.7754 28.1514 54.4883 28.3975 54.2539 28.7139C54.0195 29.0303 53.8438 29.4082 53.7266 29.8477C53.6094 30.2813 53.5508 30.7588 53.5508 31.2803C53.5508 31.8076 53.6094 32.2939 53.7266 32.7393C53.8438 33.1787 54.0195 33.5566 54.2539 33.873C54.4883 34.1895 54.7754 34.4385 55.1152 34.6201C55.4551 34.7959 55.8506 34.8838 56.3018 34.8838C56.7529 34.8838 57.1484 34.7959 57.4883 34.6201C57.834 34.4385 58.124 34.1895 58.3584 33.873C58.5928 33.5566 58.7686 33.1787 58.8857 32.7393C59.0029 32.2939 59.0615 31.8076 59.0615 31.2803ZM60.6787 31.2803C60.6787 32.0537 60.5791 32.751 60.3799 33.3721C60.1807 33.9873 59.8936 34.5117 59.5186 34.9453C59.1436 35.3789 58.6836 35.7129 58.1387 35.9473C57.5996 36.1758 56.9873 36.29 56.3018 36.29C55.6162 36.29 55.0039 36.1758 54.4648 35.9473C53.9258 35.7129 53.4688 35.3789 53.0938 34.9453C52.7188 34.5117 52.4316 33.9873 52.2324 33.3721C52.0332 32.751 51.9336 32.0537 51.9336 31.2803C51.9336 30.5186 52.0332 29.8301 52.2324 29.2148C52.4316 28.5996 52.7188 28.0752 53.0938 27.6416C53.4688 27.208 53.9258 26.877 54.4648 26.6484C55.0039 26.4141 55.6162 26.2969 56.3018 26.2969C56.9873 26.2969 57.5996 26.4141 58.1387 26.6484C58.6836 26.877 59.1436 27.208 59.5186 27.6416C59.8936 28.0752 60.1807 28.5996 60.3799 29.2148C60.5791 29.8301 60.6787 30.5186 60.6787 31.2803ZM62.5068 26.5869H66.5146C67.6631 26.5869 68.5215 26.8008 69.0898 27.2285C69.6641 27.6563 69.9512 28.2773 69.9512 29.0918C69.9512 29.5254 69.8457 29.8916 69.6348 30.1904C69.4238 30.4893 69.1455 30.7529 68.7998 30.9814C69.2979 31.1689 69.6934 31.4385 69.9863 31.79C70.2793 32.1416 70.4258 32.5957 70.4258 33.1523C70.4258 33.5918 70.3525 33.9873 70.2061 34.3389C70.0596 34.6904 69.8369 34.9893 69.5381 35.2354C69.2393 35.4814 68.8584 35.6719 68.3955 35.8066C67.9385 35.9355 67.3965 36 66.7695 36H62.5068V26.5869ZM64.124 34.708H66.585C67.0127 34.708 67.3672 34.6758 67.6484 34.6113C67.9355 34.541 68.1641 34.4414 68.334 34.3125C68.5039 34.1836 68.624 34.0283 68.6943 33.8467C68.7646 33.665 68.7998 33.46 68.7998 33.2314C68.7998 33.0029 68.7646 32.7979 68.6943 32.6162C68.624 32.4287 68.5039 32.2734 68.334 32.1504C68.1641 32.0215 67.9355 31.9248 67.6484 31.8604C67.3672 31.79 67.0127 31.7549 66.585 31.7549H64.124V34.708ZM64.124 30.5684H66.5674C67.1123 30.5684 67.543 30.46 67.8594 30.2432C68.1758 30.0264 68.334 29.6895 68.334 29.2324C68.334 28.9746 68.29 28.7607 68.2021 28.5908C68.1143 28.415 67.9971 28.2744 67.8506 28.1689C67.7041 28.0635 67.5371 27.9902 67.3496 27.9492C67.168 27.9023 66.9805 27.8789 66.7871 27.8789H64.124V30.5684ZM80.3838 32.9941C80.3193 33.4043 80.1787 33.8057 79.9619 34.1982C79.7451 34.5908 79.4609 34.9424 79.1094 35.2529C78.7578 35.5635 78.3418 35.8125 77.8613 36C77.3867 36.1934 76.8594 36.29 76.2793 36.29C75.6465 36.29 75.0605 36.1875 74.5215 35.9824C73.9883 35.7715 73.5254 35.458 73.1328 35.042C72.7461 34.6201 72.4414 34.0928 72.2188 33.46C71.9961 32.8271 71.8848 32.083 71.8848 31.2275C71.8848 30.6533 71.9463 30.1348 72.0693 29.6719C72.1982 29.2031 72.3682 28.7871 72.5791 28.4238C72.7959 28.0547 73.0449 27.7383 73.3262 27.4746C73.6074 27.2051 73.9033 26.9854 74.2139 26.8154C74.5303 26.6396 74.8525 26.5107 75.1807 26.4287C75.5088 26.3408 75.8252 26.2969 76.1299 26.2969C76.7744 26.2969 77.3633 26.3936 77.8965 26.5869C78.4297 26.7803 78.8867 27.0762 79.2676 27.4746C79.6543 27.8672 79.9531 28.3623 80.1641 28.96C80.3809 29.5518 80.4893 30.249 80.4893 31.0518V31.8604L73.6074 31.8604C73.6133 32.3174 73.6777 32.7334 73.8008 33.1084C73.9238 33.4775 74.0996 33.7939 74.3281 34.0576C74.5566 34.3213 74.832 34.5264 75.1543 34.6729C75.4824 34.8135 75.8516 34.8838 76.2617 34.8838C76.6777 34.8838 77.0293 34.8252 77.3164 34.708C77.6035 34.5908 77.8438 34.4414 78.0371 34.2598C78.2305 34.0781 78.3857 33.876 78.5029 33.6533C78.626 33.4307 78.7285 33.2109 78.8105 32.9941H80.3838ZM78.8633 30.5684C78.8516 30.1113 78.7812 29.7041 78.6523 29.3467C78.5293 28.9893 78.3535 28.6904 78.125 28.4502C77.9023 28.2041 77.6328 28.0195 77.3164 27.8965C77 27.7676 76.6484 27.7031 76.2617 27.7031C75.8926 27.7031 75.5527 27.7764 75.2422 27.9229C74.9316 28.0635 74.6592 28.2627 74.4248 28.5205C74.1904 28.7725 74.0029 29.0742 73.8623 29.4258C73.7217 29.7715 73.6367 30.1523 73.6074 30.5684L78.8633 30.5684ZM82.2998 26.5869H83.917V27.8789H83.9521C84.0576 27.6621 84.1895 27.457 84.3477 27.2637C84.5117 27.0703 84.7051 26.9033 84.9277 26.7627C85.1562 26.6162 85.417 26.502 85.71 26.4199C86.0088 26.3379 86.3486 26.2969 86.7295 26.2969C87.2334 26.2969 87.7168 26.3936 88.1797 26.5869C88.6426 26.7803 89.0527 27.0703 89.4102 27.457C89.7676 27.8438 90.0518 28.3301 90.2627 28.916C90.4736 29.4961 90.5791 30.1729 90.5791 30.9463C90.5791 31.9131 90.4795 32.7363 90.2803 33.416C90.0869 34.0898 89.8086 34.6406 89.4453 35.0684C89.0879 35.4961 88.6543 35.8066 88.1445 36C87.6348 36.1934 87.0664 36.29 86.4395 36.29C86.1289 36.29 85.8389 36.249 85.5693 36.167C85.2998 36.085 85.0566 35.9795 84.8398 35.8506C84.6289 35.7158 84.4473 35.5693 84.2949 35.4111C84.1426 35.2471 84.0283 35.0889 83.9521 34.9365H83.917V39.709H82.2998V26.5869ZM83.8818 31.3418C83.8818 31.8516 83.9316 32.3232 84.0312 32.7568C84.1309 33.1846 84.2832 33.5566 84.4883 33.873C84.6992 34.1895 84.96 34.4385 85.2705 34.6201C85.5869 34.7959 85.959 34.8838 86.3867 34.8838C86.832 34.8838 87.2158 34.7959 87.5381 34.6201C87.8662 34.4385 88.1357 34.1895 88.3467 33.873C88.5576 33.5566 88.7129 33.1846 88.8125 32.7568C88.9121 32.3232 88.9619 31.8516 88.9619 31.3418C88.9619 30.8086 88.9121 30.3193 88.8125 29.874C88.7129 29.4287 88.5576 29.0449 88.3467 28.7227C88.1357 28.4004 87.8662 28.1514 87.5381 27.9756C87.2158 27.7939 86.832 27.7031 86.3867 27.7031C85.959 27.7031 85.5869 27.7939 85.2705 27.9756C84.96 28.1514 84.6992 28.4004 84.4883 28.7227C84.2832 29.0449 84.1309 29.4287 84.0312 29.874C83.9316 30.3193 83.8818 30.8086 83.8818 31.3418ZM92.4072 26.5869H94.0244V30.1289H96.6348C97.1504 30.1289 97.6104 30.1992 98.0146 30.3398C98.4189 30.4746 98.7617 30.6709 99.043 30.9287C99.3242 31.1807 99.5381 31.4883 99.6846 31.8516C99.8369 32.209 99.9131 32.6133 99.9131 33.0645C99.9131 33.5215 99.8369 33.9316 99.6846 34.2949C99.5381 34.6523 99.3242 34.96 99.043 35.2178C98.7617 35.4697 98.4189 35.6631 98.0146 35.7979C97.6104 35.9326 97.1504 36 96.6348 36H92.4072V26.5869ZM94.0244 34.708H96.3184C96.5996 34.708 96.8604 34.6787 97.1006 34.6201C97.3467 34.5615 97.5576 34.4678 97.7334 34.3389C97.9092 34.2041 98.0469 34.0342 98.1465 33.8291C98.2461 33.6182 98.2959 33.3633 98.2959 33.0645C98.2959 32.7715 98.2432 32.5225 98.1377 32.3174C98.0381 32.1123 97.8945 31.9453 97.707 31.8164C97.5254 31.6816 97.3027 31.585 97.0391 31.5264C96.7812 31.4619 96.4912 31.4297 96.1689 31.4297H94.0244V34.708ZM113.817 32.6865C113.794 32.915 113.747 33.1641 113.677 33.4336C113.612 33.7031 113.516 33.9727 113.387 34.2422C113.258 34.5059 113.091 34.7607 112.886 35.0068C112.687 35.2529 112.44 35.4727 112.147 35.666C111.86 35.8535 111.521 36.0029 111.128 36.1143C110.735 36.2314 110.287 36.29 109.783 36.29C109.508 36.29 109.218 36.2549 108.913 36.1846C108.608 36.1201 108.31 36.0088 108.017 35.8506C107.729 35.6924 107.454 35.4902 107.19 35.2441C106.933 34.9922 106.704 34.6816 106.505 34.3125C106.312 33.9434 106.156 33.5156 106.039 33.0293C105.922 32.5371 105.863 31.9746 105.863 31.3418C105.863 30.5625 105.975 29.8623 106.197 29.2412C106.42 28.6143 106.716 28.084 107.085 27.6504C107.46 27.2168 107.894 26.8828 108.386 26.6484C108.884 26.4141 109.405 26.2969 109.95 26.2969C110.442 26.2969 110.876 26.3496 111.251 26.4551C111.632 26.5605 111.963 26.7012 112.244 26.877C112.525 27.0527 112.763 27.2578 112.956 27.4922C113.149 27.7207 113.305 27.9639 113.422 28.2217C113.545 28.4736 113.636 28.7314 113.694 28.9951C113.759 29.2588 113.8 29.5107 113.817 29.751H112.306C112.224 29.1123 112.001 28.6113 111.638 28.248C111.28 27.8848 110.776 27.7031 110.126 27.7031C109.681 27.7031 109.291 27.7939 108.957 27.9756C108.629 28.1572 108.354 28.4121 108.131 28.7402C107.914 29.0625 107.75 29.4551 107.639 29.918C107.533 30.375 107.48 30.8789 107.48 31.4297C107.48 32.0508 107.539 32.5869 107.656 33.0381C107.773 33.4834 107.94 33.8525 108.157 34.1455C108.374 34.4326 108.638 34.6465 108.948 34.7871C109.265 34.9219 109.622 34.9893 110.021 34.9893C110.302 34.9893 110.568 34.9395 110.82 34.8398C111.072 34.7344 111.298 34.585 111.497 34.3916C111.696 34.1924 111.866 33.9492 112.007 33.6621C112.147 33.375 112.247 33.0498 112.306 32.6865H113.817ZM115.417 26.5869L119.425 26.5869C120.573 26.5869 121.432 26.8008 122 27.2285C122.574 27.6563 122.861 28.2773 122.861 29.0918C122.861 29.5254 122.756 29.8916 122.545 30.1904C122.334 30.4893 122.056 30.7529 121.71 30.9814C122.208 31.1689 122.604 31.4385 122.896 31.79C123.189 32.1416 123.336 32.5957 123.336 33.1523C123.336 33.5918 123.263 33.9873 123.116 34.3389C122.97 34.6904 122.747 34.9893 122.448 35.2354C122.149 35.4814 121.769 35.6719 121.306 35.8066C120.849 35.9355 120.307 36 119.68 36H115.417V26.5869ZM117.034 34.708H119.495C119.923 34.708 120.277 34.6758 120.559 34.6113C120.846 34.541 121.074 34.4414 121.244 34.3125C121.414 34.1836 121.534 34.0283 121.604 33.8467C121.675 33.665 121.71 33.46 121.71 33.2314C121.71 33.0029 121.675 32.7979 121.604 32.6162C121.534 32.4287 121.414 32.2734 121.244 32.1504C121.074 32.0215 120.846 31.9248 120.559 31.8604C120.277 31.79 119.923 31.7549 119.495 31.7549H117.034V34.708ZM117.034 30.5684H119.478C120.022 30.5684 120.453 30.46 120.77 30.2432C121.086 30.0264 121.244 29.6895 121.244 29.2324C121.244 28.9746 121.2 28.7607 121.112 28.5908C121.024 28.415 120.907 28.2744 120.761 28.1689C120.614 28.0635 120.447 27.9902 120.26 27.9492C120.078 27.9023 119.891 27.8789 119.697 27.8789H117.034V30.5684ZM131.853 31.2803C131.853 30.7588 131.794 30.2813 131.677 29.8477C131.56 29.4082 131.384 29.0303 131.149 28.7139C130.915 28.3975 130.625 28.1514 130.279 27.9756C129.939 27.7939 129.544 27.7031 129.093 27.7031C128.642 27.7031 128.246 27.7939 127.906 27.9756C127.566 28.1514 127.279 28.3975 127.045 28.7139C126.811 29.0303 126.635 29.4082 126.518 29.8477C126.4 30.2813 126.342 30.7588 126.342 31.2803C126.342 31.8076 126.4 32.2939 126.518 32.7393C126.635 33.1787 126.811 33.5566 127.045 33.873C127.279 34.1895 127.566 34.4385 127.906 34.6201C128.246 34.7959 128.642 34.8838 129.093 34.8838C129.544 34.8838 129.939 34.7959 130.279 34.6201C130.625 34.4385 130.915 34.1895 131.149 33.873C131.384 33.5566 131.56 33.1787 131.677 32.7393C131.794 32.2939 131.853 31.8076 131.853 31.2803ZM133.47 31.2803C133.47 32.0537 133.37 32.751 133.171 33.3721C132.972 33.9873 132.685 34.5117 132.31 34.9453C131.935 35.3789 131.475 35.7129 130.93 35.9473C130.391 36.1758 129.778 36.29 129.093 36.29C128.407 36.29 127.795 36.1758 127.256 35.9473C126.717 35.7129 126.26 35.3789 125.885 34.9453C125.51 34.5117 125.223 33.9873 125.023 33.3721C124.824 32.751 124.725 32.0537 124.725 31.2803C124.725 30.5186 124.824 29.8301 125.023 29.2148C125.223 28.5996 125.51 28.0752 125.885 27.6416C126.26 27.208 126.717 26.877 127.256 26.6484C127.795 26.4141 128.407 26.2969 129.093 26.2969C129.778 26.2969 130.391 26.4141 130.93 26.6484C131.475 26.877 131.935 27.208 132.31 27.6416C132.685 28.0752 132.972 28.5996 133.171 29.2148C133.37 29.8301 133.47 30.5186 133.47 31.2803ZM135.298 26.5869H136.915V33.8027H136.95L141.573 26.5869H143.428V36H141.802V28.7842H141.767L137.152 36H135.298V26.5869ZM153.254 30.5596H154.071C154.288 30.5596 154.514 30.5332 154.748 30.4805C154.982 30.4277 155.196 30.3457 155.39 30.2344C155.583 30.1172 155.741 29.9678 155.864 29.7861C155.993 29.6045 156.058 29.3848 156.058 29.127C156.058 28.9395 156.017 28.7607 155.935 28.5908C155.858 28.415 155.741 28.2627 155.583 28.1338C155.431 27.999 155.237 27.8936 155.003 27.8174C154.769 27.7412 154.496 27.7031 154.186 27.7031C154.021 27.7031 153.828 27.7266 153.605 27.7734C153.383 27.8203 153.163 27.9082 152.946 28.0371C152.735 28.1602 152.545 28.3389 152.375 28.5732C152.211 28.8018 152.105 29.1006 152.059 29.4697H150.547C150.588 29.0479 150.673 28.6787 150.802 28.3623C150.931 28.04 151.092 27.7617 151.285 27.5273C151.479 27.293 151.695 27.0967 151.936 26.9385C152.182 26.7803 152.434 26.6543 152.691 26.5605C152.955 26.4668 153.219 26.3994 153.482 26.3584C153.746 26.3174 153.998 26.2969 154.238 26.2969C154.66 26.2969 155.076 26.3525 155.486 26.4639C155.896 26.5693 156.263 26.7334 156.585 26.9561C156.913 27.1729 157.177 27.4482 157.376 27.7822C157.575 28.1162 157.675 28.5059 157.675 28.9512C157.675 29.2383 157.634 29.4932 157.552 29.7158C157.47 29.9326 157.361 30.123 157.227 30.2871C157.098 30.4512 156.951 30.5918 156.787 30.709C156.623 30.8203 156.462 30.9141 156.304 30.9902V31.0342C156.468 31.0635 156.649 31.125 156.849 31.2188C157.048 31.3066 157.232 31.4355 157.402 31.6055C157.572 31.7695 157.713 31.9834 157.824 32.2471C157.941 32.5049 158 32.8213 158 33.1963C158 33.7236 157.886 34.1807 157.657 34.5674C157.435 34.9541 157.142 35.2764 156.778 35.5342C156.415 35.7861 156.005 35.9736 155.548 36.0967C155.091 36.2256 154.631 36.29 154.168 36.29C153.57 36.29 153.028 36.2139 152.542 36.0615C152.062 35.9092 151.646 35.6924 151.294 35.4111C150.942 35.1299 150.661 34.793 150.45 34.4004C150.245 34.0078 150.122 33.5742 150.081 33.0996H151.707C151.748 33.4453 151.848 33.7324 152.006 33.9609C152.164 34.1895 152.354 34.3711 152.577 34.5059C152.8 34.6406 153.046 34.7373 153.315 34.7959C153.591 34.8545 153.869 34.8838 154.15 34.8838C154.895 34.8838 155.451 34.7344 155.82 34.4355C156.195 34.1367 156.383 33.7354 156.383 33.2314C156.383 33.0146 156.348 32.8213 156.277 32.6514C156.213 32.4814 156.102 32.3379 155.943 32.2207C155.785 32.0977 155.574 32.0068 155.311 31.9482C155.053 31.8838 154.73 31.8516 154.344 31.8516C154.268 31.8516 154.18 31.8545 154.08 31.8604C153.986 31.8604 153.89 31.8633 153.79 31.8691C153.696 31.875 153.603 31.8838 153.509 31.8955C153.415 31.9014 153.33 31.9072 153.254 31.9131V30.5596ZM159.819 26.5869H161.437V30.3838L165.831 30.3838V26.5869H167.457V36H165.831V31.79L161.437 31.79V36H159.819V26.5869ZM169.821 29.4082C169.839 28.834 169.947 28.3506 170.146 27.958C170.346 27.5596 170.615 27.2373 170.955 26.9912C171.295 26.7451 171.696 26.5693 172.159 26.4639C172.628 26.3525 173.138 26.2969 173.688 26.2969C174.146 26.2969 174.588 26.3438 175.016 26.4375C175.449 26.5313 175.833 26.6836 176.167 26.8945C176.501 27.0996 176.768 27.3691 176.967 27.7031C177.172 28.0313 177.274 28.4326 177.274 28.9072V34.3828C177.274 34.5352 177.315 34.667 177.397 34.7783C177.479 34.8838 177.611 34.9365 177.793 34.9365C177.875 34.9365 177.96 34.9307 178.048 34.9189C178.136 34.9014 178.227 34.8838 178.32 34.8662V35.9824C178.186 36.0176 178.051 36.0498 177.916 36.0791C177.787 36.1084 177.632 36.123 177.45 36.123C177.169 36.123 176.926 36.0996 176.721 36.0527C176.521 36.0059 176.352 35.9297 176.211 35.8242C176.076 35.7129 175.971 35.5723 175.895 35.4023C175.818 35.2266 175.769 35.0127 175.745 34.7607C175.546 34.9775 175.335 35.1797 175.112 35.3672C174.89 35.5488 174.641 35.71 174.365 35.8506C174.09 35.9854 173.782 36.0908 173.442 36.167C173.103 36.249 172.719 36.29 172.291 36.29C171.928 36.29 171.573 36.2314 171.228 36.1143C170.888 35.9971 170.58 35.8242 170.305 35.5957C170.035 35.3672 169.818 35.0859 169.654 34.752C169.49 34.4121 169.408 34.0195 169.408 33.5742C169.408 33.0879 169.49 32.6689 169.654 32.3174C169.818 31.96 170.032 31.6641 170.296 31.4297C170.56 31.1895 170.861 31.0049 171.201 30.876C171.541 30.7471 171.887 30.6621 172.238 30.6211L174.884 30.2959C175.136 30.2666 175.332 30.1699 175.473 30.0059C175.619 29.8359 175.692 29.5664 175.692 29.1973C175.692 28.6289 175.505 28.2217 175.13 27.9756C174.761 27.7236 174.228 27.5977 173.53 27.5977C172.815 27.5977 172.282 27.75 171.931 28.0547C171.579 28.3535 171.38 28.8047 171.333 29.4082H169.821ZM175.657 31.21C175.528 31.3037 175.367 31.3828 175.174 31.4473C174.986 31.5059 174.778 31.5557 174.55 31.5967C174.321 31.6377 174.078 31.6758 173.82 31.7109C173.562 31.7402 173.305 31.7725 173.047 31.8076C172.754 31.8486 172.484 31.9072 172.238 31.9834C171.992 32.0596 171.778 32.1592 171.597 32.2822C171.415 32.4053 171.274 32.5547 171.175 32.7305C171.075 32.9004 171.025 33.1025 171.025 33.3369C171.025 33.6064 171.066 33.8438 171.148 34.0488C171.236 34.2539 171.354 34.4268 171.5 34.5674C171.652 34.708 171.834 34.8135 172.045 34.8838C172.256 34.9541 172.487 34.9893 172.739 34.9893C172.897 34.9893 173.079 34.9717 173.284 34.9365C173.489 34.8955 173.7 34.8369 173.917 34.7607C174.134 34.6846 174.345 34.5879 174.55 34.4707C174.761 34.3477 174.948 34.2012 175.112 34.0313C175.276 33.8613 175.408 33.668 175.508 33.4512C175.607 33.2344 175.657 32.9912 175.657 32.7217V31.21ZM179.858 26.5869H181.476V30.3838H185.87V26.5869H187.496V36H185.87V31.79H181.476V36H179.858V26.5869ZM189.878 26.5869H191.495V33.8027H191.53L196.153 26.5869H198.008V36H196.382V28.7842H196.347L191.732 36H189.878V26.5869ZM208.045 36H206.419V32.2734H204.336C203.961 32.2734 203.633 32.2822 203.352 32.2998C203.076 32.3115 202.842 32.3643 202.648 32.458C202.455 32.5518 202.303 32.6982 202.191 32.8975C202.086 33.0967 202.019 33.3809 201.989 33.75L201.919 34.7607C201.913 34.79 201.907 34.8486 201.901 34.9365C201.896 35.0244 201.884 35.1299 201.866 35.2529C201.849 35.3701 201.825 35.4961 201.796 35.6309C201.767 35.7656 201.731 35.8887 201.69 36H199.906C199.947 35.9473 199.985 35.8945 200.021 35.8418C200.062 35.7832 200.1 35.7041 200.135 35.6045C200.176 35.5049 200.211 35.376 200.24 35.2178C200.275 35.0596 200.308 34.8574 200.337 34.6113L200.442 33.4072C200.478 33.0908 200.519 32.833 200.565 32.6338C200.618 32.4346 200.688 32.2705 200.776 32.1416C200.87 32.0068 200.99 31.8984 201.137 31.8164C201.283 31.7285 201.468 31.6406 201.69 31.5527C200.683 31.1895 200.179 30.4453 200.179 29.3203C200.179 29.0391 200.214 28.7813 200.284 28.5469C200.354 28.3066 200.445 28.0928 200.557 27.9053C200.674 27.7178 200.803 27.5537 200.943 27.4131C201.09 27.2666 201.236 27.1465 201.383 27.0527C201.564 26.9355 201.764 26.8477 201.98 26.7891C202.197 26.7246 202.414 26.6777 202.631 26.6484C202.854 26.6191 203.07 26.6016 203.281 26.5957C203.492 26.5898 203.686 26.5869 203.861 26.5869L208.045 26.5869V36ZM206.419 28.0107H203.958C203.747 28.0107 203.565 28.0137 203.413 28.0195C203.261 28.0195 203.126 28.0254 203.009 28.0371C202.897 28.0488 202.795 28.0693 202.701 28.0986C202.607 28.1279 202.511 28.1689 202.411 28.2217C202.206 28.3389 202.048 28.5117 201.937 28.7402C201.831 28.9688 201.778 29.2119 201.778 29.4697C201.778 29.7217 201.816 29.9355 201.893 30.1113C201.969 30.2813 202.068 30.4219 202.191 30.5332C202.32 30.6445 202.461 30.7324 202.613 30.7969C202.771 30.8555 202.93 30.8994 203.088 30.9287C203.252 30.9521 203.41 30.9668 203.562 30.9727C203.715 30.9785 203.847 30.9814 203.958 30.9814H206.419V28.0107ZM215.454 26.5869H219.462C220.61 26.5869 221.469 26.8008 222.037 27.2285C222.611 27.6563 222.898 28.2773 222.898 29.0918C222.898 29.5254 222.793 29.8916 222.582 30.1904C222.371 30.4893 222.093 30.7529 221.747 30.9814C222.245 31.1689 222.641 31.4385 222.934 31.79C223.227 32.1416 223.373 32.5957 223.373 33.1523C223.373 33.5918 223.3 33.9873 223.153 34.3389C223.007 34.6904 222.784 34.9893 222.485 35.2354C222.187 35.4814 221.806 35.6719 221.343 35.8066C220.886 35.9355 220.344 36 219.717 36H215.454V26.5869ZM217.071 34.708H219.532C219.96 34.708 220.314 34.6758 220.596 34.6113C220.883 34.541 221.111 34.4414 221.281 34.3125C221.451 34.1836 221.571 34.0283 221.642 33.8467C221.712 33.665 221.747 33.46 221.747 33.2314C221.747 33.0029 221.712 32.7979 221.642 32.6162C221.571 32.4287 221.451 32.2734 221.281 32.1504C221.111 32.0215 220.883 31.9248 220.596 31.8604C220.314 31.79 219.96 31.7549 219.532 31.7549H217.071V34.708ZM217.071 30.5684H219.515C220.06 30.5684 220.49 30.46 220.807 30.2432C221.123 30.0264 221.281 29.6895 221.281 29.2324C221.281 28.9746 221.237 28.7607 221.149 28.5908C221.062 28.415 220.944 28.2744 220.798 28.1689C220.651 28.0635 220.484 27.9902 220.297 27.9492C220.115 27.9023 219.928 27.8789 219.734 27.8789H217.071V30.5684ZM236.337 27.9932H231.942V36H230.325V26.5869H237.963V36H236.337V27.9932ZM246.014 32.2031C245.662 32.2969 245.275 32.376 244.854 32.4404C244.438 32.5049 244.048 32.5371 243.685 32.5371C242.425 32.5371 241.49 32.2969 240.881 31.8164C240.271 31.3301 239.967 30.5654 239.967 29.5225V26.5869H241.584V29.1973C241.584 29.5488 241.625 29.8535 241.707 30.1113C241.795 30.3691 241.936 30.583 242.129 30.7529C242.322 30.917 242.577 31.04 242.894 31.1221C243.21 31.2041 243.6 31.2451 244.062 31.2451C244.186 31.2451 244.332 31.2334 244.502 31.21C244.678 31.1865 244.856 31.1572 245.038 31.1221C245.22 31.0869 245.396 31.0488 245.565 31.0078C245.741 30.9609 245.891 30.9141 246.014 30.8672V26.5869H247.64V36H246.014V32.2031ZM258.046 32.9941C257.981 33.4043 257.841 33.8057 257.624 34.1982C257.407 34.5908 257.123 34.9424 256.771 35.2529C256.42 35.5635 256.004 35.8125 255.523 36C255.049 36.1934 254.521 36.29 253.941 36.29C253.309 36.29 252.723 36.1875 252.184 35.9824C251.65 35.7715 251.188 35.458 250.795 35.042C250.408 34.6201 250.104 34.0928 249.881 33.46C249.658 32.8271 249.547 32.083 249.547 31.2275C249.547 30.6533 249.608 30.1348 249.731 29.6719C249.86 29.2031 250.03 28.7871 250.241 28.4238C250.458 28.0547 250.707 27.7383 250.988 27.4746C251.27 27.2051 251.565 26.9854 251.876 26.8154C252.192 26.6396 252.515 26.5107 252.843 26.4287C253.171 26.3408 253.487 26.2969 253.792 26.2969C254.437 26.2969 255.025 26.3936 255.559 26.5869C256.092 26.7803 256.549 27.0762 256.93 27.4746C257.316 27.8672 257.615 28.3623 257.826 28.96C258.043 29.5518 258.151 30.249 258.151 31.0518V31.8604L251.27 31.8604C251.275 32.3174 251.34 32.7334 251.463 33.1084C251.586 33.4775 251.762 33.7939 251.99 34.0576C252.219 34.3213 252.494 34.5264 252.816 34.6729C253.145 34.8135 253.514 34.8838 253.924 34.8838C254.34 34.8838 254.691 34.8252 254.979 34.708C255.266 34.5908 255.506 34.4414 255.699 34.2598C255.893 34.0781 256.048 33.876 256.165 33.6533C256.288 33.4307 256.391 33.2109 256.473 32.9941H258.046ZM256.525 30.5684C256.514 30.1113 256.443 29.7041 256.314 29.3467C256.191 28.9893 256.016 28.6904 255.787 28.4502C255.564 28.2041 255.295 28.0195 254.979 27.8965C254.662 27.7676 254.311 27.7031 253.924 27.7031C253.555 27.7031 253.215 27.7764 252.904 27.9229C252.594 28.0635 252.321 28.2627 252.087 28.5205C251.853 28.7725 251.665 29.0742 251.524 29.4258C251.384 29.7715 251.299 30.1523 251.27 30.5684L256.525 30.5684ZM266.387 27.9932L262.783 27.9932L262.713 30.252C262.678 31.3945 262.59 32.3496 262.449 33.1172C262.309 33.8789 262.115 34.4912 261.869 34.9541C261.629 35.417 261.336 35.7451 260.99 35.9385C260.645 36.1318 260.249 36.2285 259.804 36.2285C259.64 36.2285 259.496 36.2021 259.373 36.1494C259.256 36.1025 259.165 36.0527 259.101 36V34.5762C259.329 34.6641 259.531 34.708 259.707 34.708C259.83 34.708 259.947 34.6875 260.059 34.6465C260.176 34.6055 260.284 34.5264 260.384 34.4092C260.489 34.292 260.586 34.1279 260.674 33.917C260.762 33.7002 260.838 33.4189 260.902 33.0732C260.973 32.7275 261.028 32.3086 261.069 31.8164C261.116 31.3242 261.148 30.7383 261.166 30.0586L261.245 26.5869L268.004 26.5869V36H266.387V27.9932ZM270.386 26.5869H272.003V33.8027H272.038L276.661 26.5869H278.516V36H276.89V28.7842H276.854L272.24 36H270.386V26.5869ZM280.897 26.5869H282.515V30.3838H286.909V26.5869H288.535V36H286.909V31.79H282.515V36H280.897V26.5869ZM297.491 31.2803C297.491 30.7588 297.433 30.2813 297.315 29.8477C297.198 29.4082 297.022 29.0303 296.788 28.7139C296.554 28.3975 296.264 28.1514 295.918 27.9756C295.578 27.7939 295.183 27.7031 294.731 27.7031C294.28 27.7031 293.885 27.7939 293.545 27.9756C293.205 28.1514 292.918 28.3975 292.684 28.7139C292.449 29.0303 292.273 29.4082 292.156 29.8477C292.039 30.2813 291.98 30.7588 291.98 31.2803C291.98 31.8076 292.039 32.2939 292.156 32.7393C292.273 33.1787 292.449 33.5566 292.684 33.873C292.918 34.1895 293.205 34.4385 293.545 34.6201C293.885 34.7959 294.28 34.8838 294.731 34.8838C295.183 34.8838 295.578 34.7959 295.918 34.6201C296.264 34.4385 296.554 34.1895 296.788 33.873C297.022 33.5566 297.198 33.1787 297.315 32.7393C297.433 32.2939 297.491 31.8076 297.491 31.2803ZM299.108 31.2803C299.108 32.0537 299.009 32.751 298.81 33.3721C298.61 33.9873 298.323 34.5117 297.948 34.9453C297.573 35.3789 297.113 35.7129 296.568 35.9473C296.029 36.1758 295.417 36.29 294.731 36.29C294.046 36.29 293.434 36.1758 292.895 35.9473C292.355 35.7129 291.898 35.3789 291.523 34.9453C291.148 34.5117 290.861 33.9873 290.662 33.3721C290.463 32.751 290.363 32.0537 290.363 31.2803C290.363 30.5186 290.463 29.8301 290.662 29.2148C290.861 28.5996 291.148 28.0752 291.523 27.6416C291.898 27.208 292.355 26.877 292.895 26.6484C293.434 26.4141 294.046 26.2969 294.731 26.2969C295.417 26.2969 296.029 26.4141 296.568 26.6484C297.113 26.877 297.573 27.208 297.948 27.6416C298.323 28.0752 298.61 28.5996 298.81 29.2148C299.009 29.8301 299.108 30.5186 299.108 31.2803ZM300.937 26.5869H303.292L305.779 34.3037H305.814L308.337 26.5869H310.552V36H309.04V28.4238H309.005L306.518 36H304.971L302.483 28.4238H302.448V36H300.937V26.5869ZM44.5684 57H42.9424V53.2734H40.8594C40.4844 53.2734 40.1562 53.2822 39.875 53.2998C39.5996 53.3115 39.3652 53.3643 39.1719 53.458C38.9785 53.5518 38.8262 53.6982 38.7148 53.8975C38.6094 54.0967 38.542 54.3809 38.5127 54.75L38.4424 55.7607C38.4365 55.79 38.4307 55.8486 38.4248 55.9365C38.4189 56.0244 38.4072 56.1299 38.3896 56.2529C38.3721 56.3701 38.3486 56.4961 38.3193 56.6309C38.29 56.7656 38.2549 56.8887 38.2139 57L36.4297 57C36.4707 56.9473 36.5088 56.8945 36.5439 56.8418C36.585 56.7832 36.623 56.7041 36.6582 56.6045C36.6992 56.5049 36.7344 56.376 36.7637 56.2178C36.7988 56.0596 36.8311 55.8574 36.8604 55.6113L36.9658 54.4072C37.001 54.0908 37.042 53.833 37.0889 53.6338C37.1416 53.4346 37.2119 53.2705 37.2998 53.1416C37.3936 53.0068 37.5137 52.8984 37.6602 52.8164C37.8066 52.7285 37.9912 52.6406 38.2139 52.5527C37.2061 52.1895 36.7021 51.4453 36.7021 50.3203C36.7021 50.0391 36.7373 49.7812 36.8076 49.5469C36.8779 49.3066 36.9688 49.0928 37.0801 48.9053C37.1973 48.7178 37.3262 48.5537 37.4668 48.4131C37.6133 48.2666 37.7598 48.1465 37.9062 48.0527C38.0879 47.9355 38.2871 47.8477 38.5039 47.7891C38.7207 47.7246 38.9375 47.6777 39.1543 47.6484C39.377 47.6191 39.5938 47.6016 39.8047 47.5957C40.0156 47.5898 40.209 47.5869 40.3848 47.5869H44.5684L44.5684 57ZM42.9424 49.0107H40.4814C40.2705 49.0107 40.0889 49.0137 39.9365 49.0195C39.7842 49.0195 39.6494 49.0254 39.5322 49.0371C39.4209 49.0488 39.3184 49.0693 39.2246 49.0986C39.1309 49.1279 39.0342 49.1689 38.9346 49.2217C38.7295 49.3389 38.5713 49.5117 38.46 49.7402C38.3545 49.9688 38.3018 50.2119 38.3018 50.4697C38.3018 50.7217 38.3398 50.9355 38.416 51.1113C38.4922 51.2813 38.5918 51.4219 38.7148 51.5332C38.8438 51.6445 38.9844 51.7324 39.1367 51.7969C39.2949 51.8555 39.4531 51.8994 39.6113 51.9287C39.7754 51.9521 39.9336 51.9668 40.0859 51.9727C40.2383 51.9785 40.3701 51.9814 40.4814 51.9814H42.9424V49.0107ZM49.4023 51.5596H50.2197C50.4365 51.5596 50.6621 51.5332 50.8965 51.4805C51.1309 51.4277 51.3447 51.3457 51.5381 51.2344C51.7314 51.1172 51.8896 50.9678 52.0127 50.7861C52.1416 50.6045 52.2061 50.3848 52.2061 50.127C52.2061 49.9395 52.165 49.7607 52.083 49.5908C52.0068 49.415 51.8896 49.2627 51.7314 49.1338C51.5791 48.999 51.3857 48.8936 51.1514 48.8174C50.917 48.7412 50.6445 48.7031 50.334 48.7031C50.1699 48.7031 49.9766 48.7266 49.7539 48.7734C49.5312 48.8203 49.3115 48.9082 49.0947 49.0371C48.8838 49.1602 48.6934 49.3389 48.5234 49.5732C48.3594 49.8018 48.2539 50.1006 48.207 50.4697H46.6953C46.7363 50.0479 46.8213 49.6787 46.9502 49.3623C47.0791 49.04 47.2402 48.7617 47.4336 48.5273C47.627 48.293 47.8438 48.0967 48.084 47.9385C48.3301 47.7803 48.582 47.6543 48.8398 47.5605C49.1035 47.4668 49.3672 47.3994 49.6309 47.3584C49.8945 47.3174 50.1465 47.2969 50.3867 47.2969C50.8086 47.2969 51.2246 47.3525 51.6348 47.4639C52.0449 47.5693 52.4111 47.7334 52.7334 47.9561C53.0615 48.1729 53.3252 48.4482 53.5244 48.7822C53.7236 49.1162 53.8232 49.5059 53.8232 49.9512C53.8232 50.2383 53.7822 50.4932 53.7002 50.7158C53.6182 50.9326 53.5098 51.123 53.375 51.2871C53.2461 51.4512 53.0996 51.5918 52.9355 51.709C52.7715 51.8203 52.6104 51.9141 52.4521 51.9902V52.0342C52.6162 52.0635 52.7979 52.125 52.9971 52.2188C53.1963 52.3066 53.3809 52.4355 53.5508 52.6055C53.7207 52.7695 53.8613 52.9834 53.9727 53.2471C54.0898 53.5049 54.1484 53.8213 54.1484 54.1963C54.1484 54.7236 54.0342 55.1807 53.8057 55.5674C53.583 55.9541 53.29 56.2764 52.9268 56.5342C52.5635 56.7861 52.1533 56.9736 51.6963 57.0967C51.2393 57.2256 50.7793 57.29 50.3164 57.29C49.7187 57.29 49.1768 57.2139 48.6904 57.0615C48.21 56.9092 47.7939 56.6924 47.4424 56.4111C47.0908 56.1299 46.8096 55.793 46.5986 55.4004C46.3936 55.0078 46.2705 54.5742 46.2295 54.0996H47.8555C47.8965 54.4453 47.9961 54.7324 48.1543 54.9609C48.3125 55.1895 48.5029 55.3711 48.7256 55.5059C48.9482 55.6406 49.1943 55.7373 49.4639 55.7959C49.7393 55.8545 50.0176 55.8838 50.2988 55.8838C51.043 55.8838 51.5996 55.7344 51.9687 55.4355C52.3437 55.1367 52.5312 54.7354 52.5312 54.2314C52.5312 54.0146 52.4961 53.8213 52.4258 53.6514C52.3613 53.4814 52.25 53.3379 52.0918 53.2207C51.9336 53.0977 51.7227 53.0068 51.459 52.9482C51.2012 52.8838 50.8789 52.8516 50.4922 52.8516C50.416 52.8516 50.3281 52.8545 50.2285 52.8604C50.1348 52.8604 50.0381 52.8633 49.9385 52.8691C49.8447 52.875 49.751 52.8838 49.6572 52.8955C49.5635 52.9014 49.4785 52.9072 49.4023 52.9131V51.5596ZM64.9678 47.5869H66.585V57H64.9678V47.5869ZM55.9678 47.5869H57.585V51.1289H60.415C60.9248 51.1289 61.3818 51.1992 61.7861 51.3398C62.1963 51.4746 62.542 51.6709 62.8232 51.9287C63.1045 52.1807 63.3184 52.4883 63.4648 52.8516C63.6172 53.209 63.6934 53.6133 63.6934 54.0645C63.6934 54.5215 63.6172 54.9316 63.4648 55.2949C63.3184 55.6523 63.1045 55.96 62.8232 56.2178C62.542 56.4697 62.1963 56.6631 61.7861 56.7979C61.3818 56.9326 60.9248 57 60.415 57H55.9678V47.5869ZM57.585 55.708H60.0898C60.3711 55.708 60.6318 55.6787 60.8721 55.6201C61.1182 55.5615 61.3291 55.4678 61.5049 55.3389C61.6807 55.2041 61.8184 55.0342 61.918 54.8291C62.0176 54.6182 62.0674 54.3633 62.0674 54.0645C62.0674 53.7715 62.0146 53.5225 61.9092 53.3174C61.8096 53.1123 61.666 52.9453 61.4785 52.8164C61.2969 52.6816 61.0742 52.585 60.8105 52.5264C60.5527 52.4619 60.2656 52.4297 59.9492 52.4297H57.585V55.708ZM68.9756 47.5869H70.5928V52.1396L75.3477 47.5869H77.4658L73.0449 51.7441L77.5361 57H75.4531L71.7793 52.7285L70.5928 53.7217V57H68.9756V47.5869ZM86.8525 53.9941C86.7881 54.4043 86.6475 54.8057 86.4307 55.1982C86.2139 55.5908 85.9297 55.9424 85.5781 56.2529C85.2266 56.5635 84.8105 56.8125 84.3301 57C83.8555 57.1934 83.3281 57.29 82.748 57.29C82.1152 57.29 81.5293 57.1875 80.9902 56.9824C80.457 56.7715 79.9941 56.458 79.6016 56.042C79.2148 55.6201 78.9102 55.0928 78.6875 54.46C78.4648 53.8271 78.3535 53.083 78.3535 52.2275C78.3535 51.6533 78.415 51.1348 78.5381 50.6719C78.667 50.2031 78.8369 49.7871 79.0479 49.4238C79.2646 49.0547 79.5137 48.7383 79.7949 48.4746C80.0762 48.2051 80.3721 47.9854 80.6826 47.8154C80.999 47.6396 81.3213 47.5107 81.6494 47.4287C81.9775 47.3408 82.2939 47.2969 82.5986 47.2969C83.2432 47.2969 83.832 47.3936 84.3652 47.5869C84.8984 47.7803 85.3555 48.0762 85.7363 48.4746C86.123 48.8672 86.4219 49.3623 86.6328 49.96C86.8496 50.5518 86.958 51.249 86.958 52.0518V52.8604L80.0762 52.8604C80.082 53.3174 80.1465 53.7334 80.2695 54.1084C80.3926 54.4775 80.5684 54.7939 80.7969 55.0576C81.0254 55.3213 81.3008 55.5264 81.623 55.6729C81.9512 55.8135 82.3203 55.8838 82.7305 55.8838C83.1465 55.8838 83.498 55.8252 83.7852 55.708C84.0723 55.5908 84.3125 55.4414 84.5059 55.2598C84.6992 55.0781 84.8545 54.876 84.9717 54.6533C85.0947 54.4307 85.1973 54.2109 85.2793 53.9941H86.8525ZM85.332 51.5684C85.3203 51.1113 85.25 50.7041 85.1211 50.3467C84.998 49.9893 84.8223 49.6904 84.5938 49.4502C84.3711 49.2041 84.1016 49.0195 83.7852 48.8965C83.4688 48.7676 83.1172 48.7031 82.7305 48.7031C82.3613 48.7031 82.0215 48.7764 81.7109 48.9229C81.4004 49.0635 81.1279 49.2627 80.8936 49.5205C80.6592 49.7725 80.4717 50.0742 80.3311 50.4258C80.1904 50.7715 80.1055 51.1523 80.0762 51.5684L85.332 51.5684ZM89.1641 58.8369C89.5684 58.7666 89.8525 58.4824 90.0166 57.9844C90.1045 57.7207 90.1484 57.4658 90.1484 57.2197C90.1484 57.1787 90.1455 57.1406 90.1396 57.1055C90.1396 57.0762 90.1338 57.041 90.1221 57H89.1641V55.084H91.0449V56.8594C91.0449 57.5566 90.9043 58.1689 90.623 58.6963C90.3418 59.2236 89.8555 59.5488 89.1641 59.6719V58.8369ZM98.7881 47.5869H100.405V48.8789H100.44C100.546 48.6621 100.678 48.457 100.836 48.2637C101 48.0703 101.193 47.9033 101.416 47.7627C101.645 47.6162 101.905 47.502 102.198 47.4199C102.497 47.3379 102.837 47.2969 103.218 47.2969C103.722 47.2969 104.205 47.3936 104.668 47.5869C105.131 47.7803 105.541 48.0703 105.898 48.457C106.256 48.8438 106.54 49.3301 106.751 49.916C106.962 50.4961 107.067 51.1729 107.067 51.9463C107.067 52.9131 106.968 53.7363 106.769 54.416C106.575 55.0898 106.297 55.6406 105.934 56.0684C105.576 56.4961 105.143 56.8066 104.633 57C104.123 57.1934 103.555 57.29 102.928 57.29C102.617 57.29 102.327 57.249 102.058 57.167C101.788 57.085 101.545 56.9795 101.328 56.8506C101.117 56.7158 100.936 56.5693 100.783 56.4111C100.631 56.2471 100.517 56.0889 100.44 55.9365H100.405V60.709H98.7881V47.5869ZM100.37 52.3418C100.37 52.8516 100.42 53.3232 100.52 53.7568C100.619 54.1846 100.771 54.5566 100.977 54.873C101.188 55.1895 101.448 55.4385 101.759 55.6201C102.075 55.7959 102.447 55.8838 102.875 55.8838C103.32 55.8838 103.704 55.7959 104.026 55.6201C104.354 55.4385 104.624 55.1895 104.835 54.873C105.046 54.5566 105.201 54.1846 105.301 53.7568C105.4 53.3232 105.45 52.8516 105.45 52.3418C105.45 51.8086 105.4 51.3193 105.301 50.874C105.201 50.4287 105.046 50.0449 104.835 49.7227C104.624 49.4004 104.354 49.1514 104.026 48.9756C103.704 48.7939 103.32 48.7031 102.875 48.7031C102.447 48.7031 102.075 48.7939 101.759 48.9756C101.448 49.1514 101.188 49.4004 100.977 49.7227C100.771 50.0449 100.619 50.4287 100.52 50.874C100.42 51.3193 100.37 51.8086 100.37 52.3418ZM108.878 50.4082C108.896 49.834 109.004 49.3506 109.203 48.958C109.402 48.5596 109.672 48.2373 110.012 47.9912C110.352 47.7451 110.753 47.5693 111.216 47.4639C111.685 47.3525 112.194 47.2969 112.745 47.2969C113.202 47.2969 113.645 47.3438 114.072 47.4375C114.506 47.5313 114.89 47.6836 115.224 47.8945C115.558 48.0996 115.824 48.3691 116.023 48.7031C116.229 49.0313 116.331 49.4326 116.331 49.9072V55.3828C116.331 55.5352 116.372 55.667 116.454 55.7783C116.536 55.8838 116.668 55.9365 116.85 55.9365C116.932 55.9365 117.017 55.9307 117.104 55.9189C117.192 55.9014 117.283 55.8838 117.377 55.8662V56.9824C117.242 57.0176 117.107 57.0498 116.973 57.0791C116.844 57.1084 116.688 57.123 116.507 57.123C116.226 57.123 115.982 57.0996 115.777 57.0527C115.578 57.0059 115.408 56.9297 115.268 56.8242C115.133 56.7129 115.027 56.5723 114.951 56.4023C114.875 56.2266 114.825 56.0127 114.802 55.7607C114.603 55.9775 114.392 56.1797 114.169 56.3672C113.946 56.5488 113.697 56.71 113.422 56.8506C113.146 56.9854 112.839 57.0908 112.499 57.167C112.159 57.249 111.775 57.29 111.348 57.29C110.984 57.29 110.63 57.2314 110.284 57.1143C109.944 56.9971 109.637 56.8242 109.361 56.5957C109.092 56.3672 108.875 56.0859 108.711 55.752C108.547 55.4121 108.465 55.0195 108.465 54.5742C108.465 54.0879 108.547 53.6689 108.711 53.3174C108.875 52.96 109.089 52.6641 109.353 52.4297C109.616 52.1895 109.918 52.0049 110.258 51.876C110.598 51.7471 110.943 51.6621 111.295 51.6211L113.94 51.2959C114.192 51.2666 114.389 51.1699 114.529 51.0059C114.676 50.8359 114.749 50.5664 114.749 50.1973C114.749 49.6289 114.562 49.2217 114.187 48.9756C113.817 48.7236 113.284 48.5977 112.587 48.5977C111.872 48.5977 111.339 48.75 110.987 49.0547C110.636 49.3535 110.437 49.8047 110.39 50.4082H108.878ZM114.714 52.21C114.585 52.3037 114.424 52.3828 114.23 52.4473C114.043 52.5059 113.835 52.5557 113.606 52.5967C113.378 52.6377 113.135 52.6758 112.877 52.7109C112.619 52.7402 112.361 52.7725 112.104 52.8076C111.811 52.8486 111.541 52.9072 111.295 52.9834C111.049 53.0596 110.835 53.1592 110.653 53.2822C110.472 53.4053 110.331 53.5547 110.231 53.7305C110.132 53.9004 110.082 54.1025 110.082 54.3369C110.082 54.6064 110.123 54.8438 110.205 55.0488C110.293 55.2539 110.41 55.4268 110.557 55.5674C110.709 55.708 110.891 55.8135 111.102 55.8838C111.312 55.9541 111.544 55.9893 111.796 55.9893C111.954 55.9893 112.136 55.9717 112.341 55.9365C112.546 55.8955 112.757 55.8369 112.974 55.7607C113.19 55.6846 113.401 55.5879 113.606 55.4707C113.817 55.3477 114.005 55.2012 114.169 55.0313C114.333 54.8613 114.465 54.668 114.564 54.4512C114.664 54.2344 114.714 53.9912 114.714 53.7217V52.21ZM121.35 51.5596H122.167C122.384 51.5596 122.609 51.5332 122.844 51.4805C123.078 51.4277 123.292 51.3457 123.485 51.2344C123.679 51.1172 123.837 50.9678 123.96 50.7861C124.089 50.6045 124.153 50.3848 124.153 50.127C124.153 49.9395 124.112 49.7607 124.03 49.5908C123.954 49.415 123.837 49.2627 123.679 49.1338C123.526 48.999 123.333 48.8936 123.099 48.8174C122.864 48.7412 122.592 48.7031 122.281 48.7031C122.117 48.7031 121.924 48.7266 121.701 48.7734C121.479 48.8203 121.259 48.9082 121.042 49.0371C120.831 49.1602 120.641 49.3389 120.471 49.5732C120.307 49.8018 120.201 50.1006 120.154 50.4697H118.643C118.684 50.0479 118.769 49.6787 118.897 49.3623C119.026 49.04 119.188 48.7617 119.381 48.5273C119.574 48.293 119.791 48.0967 120.031 47.9385C120.277 47.7803 120.529 47.6543 120.787 47.5605C121.051 47.4668 121.314 47.3994 121.578 47.3584C121.842 47.3174 122.094 47.2969 122.334 47.2969C122.756 47.2969 123.172 47.3525 123.582 47.4639C123.992 47.5693 124.358 47.7334 124.681 47.9561C125.009 48.1729 125.272 48.4482 125.472 48.7822C125.671 49.1162 125.771 49.5059 125.771 49.9512C125.771 50.2383 125.729 50.4932 125.647 50.7158C125.565 50.9326 125.457 51.123 125.322 51.2871C125.193 51.4512 125.047 51.5918 124.883 51.709C124.719 51.8203 124.558 51.9141 124.399 51.9902V52.0342C124.563 52.0635 124.745 52.125 124.944 52.2188C125.144 52.3066 125.328 52.4355 125.498 52.6055C125.668 52.7695 125.809 52.9834 125.92 53.2471C126.037 53.5049 126.096 53.8213 126.096 54.1963C126.096 54.7236 125.981 55.1807 125.753 55.5674C125.53 55.9541 125.237 56.2764 124.874 56.5342C124.511 56.7861 124.101 56.9736 123.644 57.0967C123.187 57.2256 122.727 57.29 122.264 57.29C121.666 57.29 121.124 57.2139 120.638 57.0615C120.157 56.9092 119.741 56.6924 119.39 56.4111C119.038 56.1299 118.757 55.793 118.546 55.4004C118.341 55.0078 118.218 54.5742 118.177 54.0996H119.803C119.844 54.4453 119.943 54.7324 120.102 54.9609C120.26 55.1895 120.45 55.3711 120.673 55.5059C120.896 55.6406 121.142 55.7373 121.411 55.7959C121.687 55.8545 121.965 55.8838 122.246 55.8838C122.99 55.8838 123.547 55.7344 123.916 55.4355C124.291 55.1367 124.479 54.7354 124.479 54.2314C124.479 54.0146 124.443 53.8213 124.373 53.6514C124.309 53.4814 124.197 53.3379 124.039 53.2207C123.881 53.0977 123.67 53.0068 123.406 52.9482C123.148 52.8838 122.826 52.8516 122.439 52.8516C122.363 52.8516 122.275 52.8545 122.176 52.8604C122.082 52.8604 121.985 52.8633 121.886 52.8691C121.792 52.875 121.698 52.8838 121.604 52.8955C121.511 52.9014 121.426 52.9072 121.35 52.9131V51.5596ZM135.228 43.9658C135.216 44.0537 135.198 44.1621 135.175 44.291C135.157 44.4141 135.119 44.5459 135.061 44.6865C135.002 44.8271 134.92 44.9707 134.814 45.1172C134.715 45.2578 134.58 45.3896 134.41 45.5127C134.316 45.5771 134.231 45.6328 134.155 45.6797C134.079 45.7266 133.982 45.7676 133.865 45.8027C133.748 45.8379 133.599 45.8672 133.417 45.8906C133.235 45.9141 132.992 45.9287 132.688 45.9346L132.02 45.9521C131.562 45.9639 131.149 46.0576 130.78 46.2334C130.417 46.4033 130.095 46.6436 129.813 46.9541C129.538 47.2588 129.31 47.6279 129.128 48.0615C128.946 48.4951 128.812 48.9785 128.724 49.5117C128.847 49.2773 128.999 49.0488 129.181 48.8262C129.362 48.5977 129.588 48.3955 129.857 48.2197C130.127 48.0381 130.443 47.8945 130.807 47.7891C131.17 47.6777 131.592 47.6221 132.072 47.6221C132.617 47.6221 133.133 47.7188 133.619 47.9121C134.111 48.1055 134.539 48.3955 134.902 48.7822C135.271 49.1689 135.564 49.6494 135.781 50.2236C135.998 50.7979 136.106 51.4658 136.106 52.2275C136.106 52.4678 136.089 52.7607 136.054 53.1064C136.019 53.4463 135.948 53.8037 135.843 54.1787C135.737 54.5537 135.585 54.9287 135.386 55.3037C135.192 55.6729 134.932 56.0039 134.604 56.2969C134.281 56.5898 133.886 56.8271 133.417 57.0088C132.954 57.1963 132.397 57.29 131.747 57.29C131.478 57.29 131.19 57.2666 130.886 57.2197C130.587 57.1787 130.285 57.0996 129.98 56.9824C129.682 56.8652 129.389 56.7012 129.102 56.4902C128.82 56.2793 128.562 56.0098 128.328 55.6816C128.211 55.5176 128.094 55.3301 127.977 55.1191C127.865 54.9023 127.763 54.6416 127.669 54.3369C127.575 54.0322 127.499 53.6719 127.44 53.2559C127.388 52.8398 127.361 52.3477 127.361 51.7793C127.361 51.4043 127.379 50.9795 127.414 50.5049C127.449 50.0303 127.511 49.5469 127.599 49.0547C127.687 48.5625 127.804 48.0879 127.95 47.6309C128.097 47.168 128.284 46.7637 128.513 46.418C128.759 46.043 129.017 45.7383 129.286 45.5039C129.556 45.2695 129.843 45.085 130.147 44.9502C130.452 44.8154 130.78 44.7188 131.132 44.6602C131.483 44.6016 131.864 44.5635 132.274 44.5459L132.846 44.5283C133.033 44.5225 133.191 44.5137 133.32 44.502C133.455 44.4844 133.566 44.458 133.654 44.4229C133.742 44.3877 133.812 44.335 133.865 44.2646C133.918 44.1943 133.962 44.0947 133.997 43.9658H135.228ZM128.979 52.4648C128.979 52.6406 128.987 52.8486 129.005 53.0889C129.028 53.3291 129.072 53.5811 129.137 53.8447C129.201 54.1025 129.295 54.3604 129.418 54.6182C129.541 54.876 129.702 55.1074 129.901 55.3125C130.106 55.5117 130.358 55.6758 130.657 55.8047C130.956 55.9277 131.313 55.9893 131.729 55.9893C132.192 55.9893 132.582 55.916 132.898 55.7695C133.215 55.6172 133.476 55.4238 133.681 55.1895C133.886 54.9492 134.041 54.6855 134.146 54.3984C134.258 54.1113 134.337 53.833 134.384 53.5635C134.437 53.2881 134.466 53.0391 134.472 52.8164C134.483 52.5879 134.489 52.415 134.489 52.2979C134.489 51.8701 134.439 51.4512 134.34 51.041C134.246 50.6309 134.091 50.2676 133.874 49.9512C133.663 49.6348 133.385 49.3799 133.039 49.1865C132.699 48.9932 132.28 48.8965 131.782 48.8965C131.296 48.8965 130.877 48.9932 130.525 49.1865C130.174 49.374 129.884 49.6318 129.655 49.96C129.427 50.2822 129.257 50.6602 129.146 51.0938C129.034 51.5215 128.979 51.9785 128.979 52.4648ZM145.95 53.9941C145.886 54.4043 145.745 54.8057 145.528 55.1982C145.312 55.5908 145.027 55.9424 144.676 56.2529C144.324 56.5635 143.908 56.8125 143.428 57C142.953 57.1934 142.426 57.29 141.846 57.29C141.213 57.29 140.627 57.1875 140.088 56.9824C139.555 56.7715 139.092 56.458 138.699 56.042C138.312 55.6201 138.008 55.0928 137.785 54.46C137.562 53.8271 137.451 53.083 137.451 52.2275C137.451 51.6533 137.513 51.1348 137.636 50.6719C137.765 50.2031 137.935 49.7871 138.146 49.4238C138.362 49.0547 138.611 48.7383 138.893 48.4746C139.174 48.2051 139.47 47.9854 139.78 47.8154C140.097 47.6396 140.419 47.5107 140.747 47.4287C141.075 47.3408 141.392 47.2969 141.696 47.2969C142.341 47.2969 142.93 47.3936 143.463 47.5869C143.996 47.7803 144.453 48.0762 144.834 48.4746C145.221 48.8672 145.52 49.3623 145.73 49.96C145.947 50.5518 146.056 51.249 146.056 52.0518V52.8604H139.174C139.18 53.3174 139.244 53.7334 139.367 54.1084C139.49 54.4775 139.666 54.7939 139.895 55.0576C140.123 55.3213 140.398 55.5264 140.721 55.6729C141.049 55.8135 141.418 55.8838 141.828 55.8838C142.244 55.8838 142.596 55.8252 142.883 55.708C143.17 55.5908 143.41 55.4414 143.604 55.2598C143.797 55.0781 143.952 54.876 144.069 54.6533C144.192 54.4307 144.295 54.2109 144.377 53.9941H145.95ZM144.43 51.5684C144.418 51.1113 144.348 50.7041 144.219 50.3467C144.096 49.9893 143.92 49.6904 143.691 49.4502C143.469 49.2041 143.199 49.0195 142.883 48.8965C142.566 48.7676 142.215 48.7031 141.828 48.7031C141.459 48.7031 141.119 48.7764 140.809 48.9229C140.498 49.0635 140.226 49.2627 139.991 49.5205C139.757 49.7725 139.569 50.0742 139.429 50.4258C139.288 50.7715 139.203 51.1523 139.174 51.5684H144.43ZM147.866 47.5869H149.483V48.8789H149.519C149.624 48.6621 149.756 48.457 149.914 48.2637C150.078 48.0703 150.271 47.9033 150.494 47.7627C150.723 47.6162 150.983 47.502 151.276 47.4199C151.575 47.3379 151.915 47.2969 152.296 47.2969C152.8 47.2969 153.283 47.3936 153.746 47.5869C154.209 47.7803 154.619 48.0703 154.977 48.457C155.334 48.8438 155.618 49.3301 155.829 49.916C156.04 50.4961 156.146 51.1729 156.146 51.9463C156.146 52.9131 156.046 53.7363 155.847 54.416C155.653 55.0898 155.375 55.6406 155.012 56.0684C154.654 56.4961 154.221 56.8066 153.711 57C153.201 57.1934 152.633 57.29 152.006 57.29C151.695 57.29 151.405 57.249 151.136 57.167C150.866 57.085 150.623 56.9795 150.406 56.8506C150.195 56.7158 150.014 56.5693 149.861 56.4111C149.709 56.2471 149.595 56.0889 149.519 55.9365H149.483V60.709H147.866V47.5869ZM149.448 52.3418C149.448 52.8516 149.498 53.3232 149.598 53.7568C149.697 54.1846 149.85 54.5566 150.055 54.873C150.266 55.1895 150.526 55.4385 150.837 55.6201C151.153 55.7959 151.525 55.8838 151.953 55.8838C152.398 55.8838 152.782 55.7959 153.104 55.6201C153.433 55.4385 153.702 55.1895 153.913 54.873C154.124 54.5566 154.279 54.1846 154.379 53.7568C154.479 53.3232 154.528 52.8516 154.528 52.3418C154.528 51.8086 154.479 51.3193 154.379 50.874C154.279 50.4287 154.124 50.0449 153.913 49.7227C153.702 49.4004 153.433 49.1514 153.104 48.9756C152.782 48.7939 152.398 48.7031 151.953 48.7031C151.525 48.7031 151.153 48.7939 150.837 48.9756C150.526 49.1514 150.266 49.4004 150.055 49.7227C149.85 50.0449 149.697 50.4287 149.598 50.874C149.498 51.3193 149.448 51.8086 149.448 52.3418ZM157.974 47.5869H159.591V54.8027H159.626L164.249 47.5869H166.104V57H164.478V49.7842H164.442L159.828 57H157.974V47.5869ZM175.886 53.6865C175.862 53.915 175.815 54.1641 175.745 54.4336C175.681 54.7031 175.584 54.9727 175.455 55.2422C175.326 55.5059 175.159 55.7607 174.954 56.0068C174.755 56.2529 174.509 56.4727 174.216 56.666C173.929 56.8535 173.589 57.0029 173.196 57.1143C172.804 57.2314 172.355 57.29 171.852 57.29C171.576 57.29 171.286 57.2549 170.981 57.1846C170.677 57.1201 170.378 57.0088 170.085 56.8506C169.798 56.6924 169.522 56.4902 169.259 56.2441C169.001 55.9922 168.772 55.6816 168.573 55.3125C168.38 54.9434 168.225 54.5156 168.107 54.0293C167.99 53.5371 167.932 52.9746 167.932 52.3418C167.932 51.5625 168.043 50.8623 168.266 50.2412C168.488 49.6143 168.784 49.084 169.153 48.6504C169.528 48.2168 169.962 47.8828 170.454 47.6484C170.952 47.4141 171.474 47.2969 172.019 47.2969C172.511 47.2969 172.944 47.3496 173.319 47.4551C173.7 47.5605 174.031 47.7012 174.312 47.877C174.594 48.0527 174.831 48.2578 175.024 48.4922C175.218 48.7207 175.373 48.9639 175.49 49.2217C175.613 49.4736 175.704 49.7314 175.763 49.9951C175.827 50.2588 175.868 50.5107 175.886 50.751H174.374C174.292 50.1123 174.069 49.6113 173.706 49.248C173.349 48.8848 172.845 48.7031 172.194 48.7031C171.749 48.7031 171.359 48.7939 171.025 48.9756C170.697 49.1572 170.422 49.4121 170.199 49.7402C169.982 50.0625 169.818 50.4551 169.707 50.918C169.602 51.375 169.549 51.8789 169.549 52.4297C169.549 53.0508 169.607 53.5869 169.725 54.0381C169.842 54.4834 170.009 54.8525 170.226 55.1455C170.442 55.4326 170.706 55.6465 171.017 55.7871C171.333 55.9219 171.69 55.9893 172.089 55.9893C172.37 55.9893 172.637 55.9395 172.889 55.8398C173.141 55.7344 173.366 55.585 173.565 55.3916C173.765 55.1924 173.935 54.9492 174.075 54.6621C174.216 54.375 174.315 54.0498 174.374 53.6865H175.886ZM177.485 47.5869H179.103V51.1289H181.713C182.229 51.1289 182.688 51.1992 183.093 51.3398C183.497 51.4746 183.84 51.6709 184.121 51.9287C184.402 52.1807 184.616 52.4883 184.763 52.8516C184.915 53.209 184.991 53.6133 184.991 54.0645C184.991 54.5215 184.915 54.9316 184.763 55.2949C184.616 55.6523 184.402 55.96 184.121 56.2178C183.84 56.4697 183.497 56.6631 183.093 56.7979C182.688 56.9326 182.229 57 181.713 57H177.485V47.5869ZM179.103 55.708H181.396C181.678 55.708 181.938 55.6787 182.179 55.6201C182.425 55.5615 182.636 55.4678 182.812 55.3389C182.987 55.2041 183.125 55.0342 183.225 54.8291C183.324 54.6182 183.374 54.3633 183.374 54.0645C183.374 53.7715 183.321 53.5225 183.216 53.3174C183.116 53.1123 182.973 52.9453 182.785 52.8164C182.604 52.6816 182.381 52.585 182.117 52.5264C181.859 52.4619 181.569 52.4297 181.247 52.4297H179.103V55.708ZM191.495 47.5869H195.503C196.651 47.5869 197.51 47.8008 198.078 48.2285C198.652 48.6563 198.939 49.2773 198.939 50.0918C198.939 50.5254 198.834 50.8916 198.623 51.1904C198.412 51.4893 198.134 51.7529 197.788 51.9814C198.286 52.1689 198.682 52.4385 198.975 52.79C199.268 53.1416 199.414 53.5957 199.414 54.1523C199.414 54.5918 199.341 54.9873 199.194 55.3389C199.048 55.6904 198.825 55.9893 198.526 56.2354C198.228 56.4814 197.847 56.6719 197.384 56.8066C196.927 56.9355 196.385 57 195.758 57H191.495V47.5869ZM193.112 55.708H195.573C196.001 55.708 196.355 55.6758 196.637 55.6113C196.924 55.541 197.152 55.4414 197.322 55.3125C197.492 55.1836 197.612 55.0283 197.683 54.8467C197.753 54.665 197.788 54.46 197.788 54.2314C197.788 54.0029 197.753 53.7979 197.683 53.6162C197.612 53.4287 197.492 53.2734 197.322 53.1504C197.152 53.0215 196.924 52.9248 196.637 52.8604C196.355 52.79 196.001 52.7549 195.573 52.7549H193.112V55.708ZM193.112 51.5684H195.556C196.101 51.5684 196.531 51.46 196.848 51.2432C197.164 51.0264 197.322 50.6895 197.322 50.2324C197.322 49.9746 197.278 49.7607 197.19 49.5908C197.103 49.415 196.985 49.2744 196.839 49.1689C196.692 49.0635 196.525 48.9902 196.338 48.9492C196.156 48.9023 195.969 48.8789 195.775 48.8789H193.112V51.5684ZM208.757 51.6914H212C211.936 50.7422 211.692 50.0068 211.271 49.4854C210.849 48.9639 210.257 48.7031 209.495 48.7031C209.144 48.7031 208.836 48.7559 208.572 48.8613C208.314 48.9668 208.095 49.1045 207.913 49.2744C207.737 49.4443 207.594 49.6406 207.482 49.8633C207.377 50.0859 207.298 50.3115 207.245 50.54H205.698C205.774 49.9775 205.938 49.4941 206.19 49.0898C206.442 48.6797 206.744 48.3428 207.096 48.0791C207.453 47.8096 207.843 47.6133 208.265 47.4902C208.687 47.3613 209.108 47.2969 209.53 47.2969C210.204 47.2969 210.802 47.4199 211.323 47.666C211.845 47.9063 212.281 48.2461 212.633 48.6855C212.99 49.125 213.26 49.6494 213.441 50.2588C213.629 50.8682 213.723 51.5361 213.723 52.2627C213.723 53.0068 213.629 53.6865 213.441 54.3018C213.26 54.917 212.99 55.4473 212.633 55.8926C212.281 56.332 211.845 56.6748 211.323 56.9209C210.802 57.167 210.204 57.29 209.53 57.29C209.038 57.29 208.575 57.2227 208.142 57.0879C207.714 56.9531 207.33 56.748 206.99 56.4727C206.656 56.1973 206.369 55.8486 206.129 55.4268C205.889 54.999 205.71 54.498 205.593 53.9238H207.245C207.274 54.2109 207.351 54.4746 207.474 54.7148C207.597 54.9551 207.755 55.1631 207.948 55.3389C208.147 55.5088 208.376 55.6436 208.634 55.7432C208.897 55.8369 209.179 55.8838 209.478 55.8838C209.905 55.8838 210.277 55.7959 210.594 55.6201C210.91 55.4385 211.171 55.207 211.376 54.9258C211.581 54.6445 211.733 54.334 211.833 53.9941C211.938 53.6484 211.994 53.3115 212 52.9834H208.757V51.6914ZM218.047 48.9932H214.804V47.5869H222.907V48.9932H219.664V57H218.047V48.9932ZM231.116 52.2803C231.116 51.7588 231.058 51.2813 230.94 50.8477C230.823 50.4082 230.647 50.0303 230.413 49.7139C230.179 49.3975 229.889 49.1514 229.543 48.9756C229.203 48.7939 228.808 48.7031 228.356 48.7031C227.905 48.7031 227.51 48.7939 227.17 48.9756C226.83 49.1514 226.543 49.3975 226.309 49.7139C226.074 50.0303 225.898 50.4082 225.781 50.8477C225.664 51.2813 225.605 51.7588 225.605 52.2803C225.605 52.8076 225.664 53.2939 225.781 53.7393C225.898 54.1787 226.074 54.5566 226.309 54.873C226.543 55.1895 226.83 55.4385 227.17 55.6201C227.51 55.7959 227.905 55.8838 228.356 55.8838C228.808 55.8838 229.203 55.7959 229.543 55.6201C229.889 55.4385 230.179 55.1895 230.413 54.873C230.647 54.5566 230.823 54.1787 230.94 53.7393C231.058 53.2939 231.116 52.8076 231.116 52.2803ZM232.733 52.2803C232.733 53.0537 232.634 53.751 232.435 54.3721C232.235 54.9873 231.948 55.5117 231.573 55.9453C231.198 56.3789 230.738 56.7129 230.193 56.9473C229.654 57.1758 229.042 57.29 228.356 57.29C227.671 57.29 227.059 57.1758 226.52 56.9473C225.98 56.7129 225.523 56.3789 225.148 55.9453C224.773 55.5117 224.486 54.9873 224.287 54.3721C224.088 53.751 223.988 53.0537 223.988 52.2803C223.988 51.5186 224.088 50.8301 224.287 50.2148C224.486 49.5996 224.773 49.0752 225.148 48.6416C225.523 48.208 225.98 47.877 226.52 47.6484C227.059 47.4141 227.671 47.2969 228.356 47.2969C229.042 47.2969 229.654 47.4141 230.193 47.6484C230.738 47.877 231.198 48.208 231.573 48.6416C231.948 49.0752 232.235 49.5996 232.435 50.2148C232.634 50.8301 232.733 51.5186 232.733 52.2803ZM234.562 47.5869H236.917L239.404 55.3037H239.439L241.962 47.5869H244.177V57H242.665V49.4238H242.63L240.143 57H238.596L236.108 49.4238H236.073V57H234.562V47.5869ZM254.064 48.9932H250.821V47.5869H258.925V48.9932H255.682V57H254.064V48.9932ZM268.575 53.9941C268.511 54.4043 268.37 54.8057 268.153 55.1982C267.937 55.5908 267.652 55.9424 267.301 56.2529C266.949 56.5635 266.533 56.8125 266.053 57C265.578 57.1934 265.051 57.29 264.471 57.29C263.838 57.29 263.252 57.1875 262.713 56.9824C262.18 56.7715 261.717 56.458 261.324 56.042C260.938 55.6201 260.633 55.0928 260.41 54.46C260.188 53.8271 260.076 53.083 260.076 52.2275C260.076 51.6533 260.138 51.1348 260.261 50.6719C260.39 50.2031 260.56 49.7871 260.771 49.4238C260.987 49.0547 261.236 48.7383 261.518 48.4746C261.799 48.2051 262.095 47.9854 262.405 47.8154C262.722 47.6396 263.044 47.5107 263.372 47.4287C263.7 47.3408 264.017 47.2969 264.321 47.2969C264.966 47.2969 265.555 47.3936 266.088 47.5869C266.621 47.7803 267.078 48.0762 267.459 48.4746C267.846 48.8672 268.145 49.3623 268.355 49.96C268.572 50.5518 268.681 51.249 268.681 52.0518V52.8604H261.799C261.805 53.3174 261.869 53.7334 261.992 54.1084C262.115 54.4775 262.291 54.7939 262.52 55.0576C262.748 55.3213 263.023 55.5264 263.346 55.6729C263.674 55.8135 264.043 55.8838 264.453 55.8838C264.869 55.8838 265.221 55.8252 265.508 55.708C265.795 55.5908 266.035 55.4414 266.229 55.2598C266.422 55.0781 266.577 54.876 266.694 54.6533C266.817 54.4307 266.92 54.2109 267.002 53.9941H268.575ZM267.055 51.5684C267.043 51.1113 266.973 50.7041 266.844 50.3467C266.721 49.9893 266.545 49.6904 266.316 49.4502C266.094 49.2041 265.824 49.0195 265.508 48.8965C265.191 48.7676 264.84 48.7031 264.453 48.7031C264.084 48.7031 263.744 48.7764 263.434 48.9229C263.123 49.0635 262.851 49.2627 262.616 49.5205C262.382 49.7725 262.194 50.0742 262.054 50.4258C261.913 50.7715 261.828 51.1523 261.799 51.5684H267.055ZM270.579 47.5869H272.196V52.1396L276.951 47.5869H279.069L274.648 51.7441L279.14 57H277.057L273.383 52.7285L272.196 53.7217V57H270.579V47.5869ZM287.841 53.6865C287.817 53.915 287.771 54.1641 287.7 54.4336C287.636 54.7031 287.539 54.9727 287.41 55.2422C287.281 55.5059 287.114 55.7607 286.909 56.0068C286.71 56.2529 286.464 56.4727 286.171 56.666C285.884 56.8535 285.544 57.0029 285.151 57.1143C284.759 57.2314 284.311 57.29 283.807 57.29C283.531 57.29 283.241 57.2549 282.937 57.1846C282.632 57.1201 282.333 57.0088 282.04 56.8506C281.753 56.6924 281.478 56.4902 281.214 56.2441C280.956 55.9922 280.728 55.6816 280.528 55.3125C280.335 54.9434 280.18 54.5156 280.062 54.0293C279.945 53.5371 279.887 52.9746 279.887 52.3418C279.887 51.5625 279.998 50.8623 280.221 50.2412C280.443 49.6143 280.739 49.084 281.108 48.6504C281.483 48.2168 281.917 47.8828 282.409 47.6484C282.907 47.4141 283.429 47.2969 283.974 47.2969C284.466 47.2969 284.899 47.3496 285.274 47.4551C285.655 47.5605 285.986 47.7012 286.268 47.877C286.549 48.0527 286.786 48.2578 286.979 48.4922C287.173 48.7207 287.328 48.9639 287.445 49.2217C287.568 49.4736 287.659 49.7314 287.718 49.9951C287.782 50.2588 287.823 50.5107 287.841 50.751H286.329C286.247 50.1123 286.024 49.6113 285.661 49.248C285.304 48.8848 284.8 48.7031 284.149 48.7031C283.704 48.7031 283.314 48.7939 282.98 48.9756C282.652 49.1572 282.377 49.4121 282.154 49.7402C281.938 50.0625 281.773 50.4551 281.662 50.918C281.557 51.375 281.504 51.8789 281.504 52.4297C281.504 53.0508 281.562 53.5869 281.68 54.0381C281.797 54.4834 281.964 54.8525 282.181 55.1455C282.397 55.4326 282.661 55.6465 282.972 55.7871C283.288 55.9219 283.646 55.9893 284.044 55.9893C284.325 55.9893 284.592 55.9395 284.844 55.8398C285.096 55.7344 285.321 55.585 285.521 55.3916C285.72 55.1924 285.89 54.9492 286.03 54.6621C286.171 54.375 286.271 54.0498 286.329 53.6865H287.841ZM291.945 48.9932H288.702V47.5869H296.806V48.9932H293.562V57H291.945V48.9932ZM306.456 53.9941C306.392 54.4043 306.251 54.8057 306.034 55.1982C305.817 55.5908 305.533 55.9424 305.182 56.2529C304.83 56.5635 304.414 56.8125 303.934 57C303.459 57.1934 302.932 57.29 302.352 57.29C301.719 57.29 301.133 57.1875 300.594 56.9824C300.061 56.7715 299.598 56.458 299.205 56.042C298.818 55.6201 298.514 55.0928 298.291 54.46C298.068 53.8271 297.957 53.083 297.957 52.2275C297.957 51.6533 298.019 51.1348 298.142 50.6719C298.271 50.2031 298.44 49.7871 298.651 49.4238C298.868 49.0547 299.117 48.7383 299.398 48.4746C299.68 48.2051 299.976 47.9854 300.286 47.8154C300.603 47.6396 300.925 47.5107 301.253 47.4287C301.581 47.3408 301.897 47.2969 302.202 47.2969C302.847 47.2969 303.436 47.3936 303.969 47.5869C304.502 47.7803 304.959 48.0762 305.34 48.4746C305.727 48.8672 306.025 49.3623 306.236 49.96C306.453 50.5518 306.562 51.249 306.562 52.0518V52.8604L299.68 52.8604C299.686 53.3174 299.75 53.7334 299.873 54.1084C299.996 54.4775 300.172 54.7939 300.4 55.0576C300.629 55.3213 300.904 55.5264 301.227 55.6729C301.555 55.8135 301.924 55.8838 302.334 55.8838C302.75 55.8838 303.102 55.8252 303.389 55.708C303.676 55.5908 303.916 55.4414 304.109 55.2598C304.303 55.0781 304.458 54.876 304.575 54.6533C304.698 54.4307 304.801 54.2109 304.883 53.9941H306.456ZM304.936 51.5684C304.924 51.1113 304.854 50.7041 304.725 50.3467C304.602 49.9893 304.426 49.6904 304.197 49.4502C303.975 49.2041 303.705 49.0195 303.389 48.8965C303.072 48.7676 302.721 48.7031 302.334 48.7031C301.965 48.7031 301.625 48.7764 301.314 48.9229C301.004 49.0635 300.731 49.2627 300.497 49.5205C300.263 49.7725 300.075 50.0742 299.935 50.4258C299.794 50.7715 299.709 51.1523 299.68 51.5684L304.936 51.5684Z" fill="black"/>
</svg>
